<svg viewBox="0 0 92.11 65.37" xmlns="http://www.w3.org/2000/svg" xmlns:xlink="http://www.w3.org/1999/xlink"><radialGradient id="a" cx="57.67" cy="13.78" gradientTransform="matrix(-1 0 0 -.73 115.34 23.84)" gradientUnits="userSpaceOnUse" r="70.26"><stop offset="0" stop-color="#fff"/><stop offset=".2" stop-color="#d5f3ff"/><stop offset="1" stop-color="#85bcf1"/></radialGradient><linearGradient id="b"><stop offset="0" stop-color="#fff"/><stop offset=".1" stop-color="#fff" stop-opacity=".85"/><stop offset=".29" stop-color="#fff" stop-opacity=".59"/><stop offset=".47" stop-color="#fff" stop-opacity=".38"/><stop offset=".63" stop-color="#fff" stop-opacity=".22"/><stop offset=".78" stop-color="#fff" stop-opacity=".1"/><stop offset=".91" stop-color="#fff" stop-opacity=".03"/><stop offset="1" stop-color="#fff" stop-opacity="0"/></linearGradient><radialGradient id="c" cx="1198.4" cy="-1619.45" fx="1198.4" fy="-1619.45" gradientTransform="matrix(-.84113854 1.15645404 -1.61768823 -1.31205248 -1562.37 -3490.29)" gradientUnits="userSpaceOnUse" r="8.48" xlink:href="#b"/><radialGradient id="d" cx="1198.15" cy="-1635.1" fx="1198.15" fy="-1635.1" r="6.66" xlink:href="#c"/><radialGradient id="e" cx="10.93" cy="51.53" gradientTransform="matrix(.90100132 -.43381635 1.26240557 2.62191384 -63.98 -78.88)" gradientUnits="userSpaceOnUse" r="4.87" xlink:href="#b"/><path d="m73 25.15c-.96-14.05-12.65-25.15-26.94-25.15s-25.98 11.1-26.94 25.15c-10.65.52-19.12 9.32-19.12 20.09s9.01 20.12 20.12 20.12h51.86c11.11 0 20.12-9.01 20.12-20.12s-8.47-19.57-19.11-20.1z" fill="url(#a)"/><path d="m46.06 27.65c-7.58-6.15-10.53-15.5-6.61-20.9 3.93-5.4 13.26-4.8 20.84 1.35 7.57 6.15 10.53 15.51 6.6 20.9-3.93 5.4-13.26 4.79-20.83-1.35z" fill="url(#c)"/><path d="m73.14 45.82c-5.95-4.83-8.28-12.19-5.19-16.43s10.42-3.77 16.37 1.06 8.27 12.19 5.19 16.43c-3.09 4.25-10.42 3.77-16.37-1.06z" fill="url(#d)" opacity=".4"/><path d="m14.39 46.49c-4.39-6.85-9.5-10.15-11.41-7.37-1.9 2.78.11 10.59 4.5 17.45 4.4 6.85 9.5 10.15 11.41 7.37 1.91-2.79-.11-10.59-4.5-17.45z" fill="url(#e)" opacity=".2"/></svg>