<svg viewBox="0 0 103.99 74.5" xmlns="http://www.w3.org/2000/svg" xmlns:xlink="http://www.w3.org/1999/xlink"><radialGradient id="a" cx="-680.66" cy="10.07" gradientTransform="matrix(-1 0 0 1 -597.5 0)" gradientUnits="userSpaceOnUse" r="51.26"><stop offset="0" stop-color="#f8f8f8"/><stop offset=".16" stop-color="#ede9f1"/><stop offset="1" stop-color="#9b9da2"/></radialGradient><linearGradient id="b"><stop offset="0" stop-color="#fff"/><stop offset=".1" stop-color="#fff" stop-opacity=".85"/><stop offset=".29" stop-color="#fff" stop-opacity=".59"/><stop offset=".47" stop-color="#fff" stop-opacity=".38"/><stop offset=".63" stop-color="#fff" stop-opacity=".22"/><stop offset=".78" stop-color="#fff" stop-opacity=".1"/><stop offset=".91" stop-color="#fff" stop-opacity=".03"/><stop offset="1" stop-color="#fff" stop-opacity="0"/></linearGradient><radialGradient id="c" cx="725.68" cy="-2052.34" fx="725.68" fy="-2052.34" gradientTransform="matrix(-.84113854 1.15645404 -1.61768823 -1.31205248 -2625.37 -3515.69)" gradientUnits="userSpaceOnUse" r="7.69" xlink:href="#b"/><radialGradient id="d" cx="-3445.04" cy="3117.6" fx="-3445.04" fy="3117.6" gradientTransform="matrix(-1.17344712 -1.10232566 .21979136 -.72650768 -4666.84 -1480.27)" gradientUnits="userSpaceOnUse" r="7.43" xlink:href="#b"/><radialGradient id="e" cx="57.67" cy="22.91" gradientTransform="matrix(-1 0 0 -.73 115.34 39.64)" gradientUnits="userSpaceOnUse" r="70.26"><stop offset="0" stop-color="#fff"/><stop offset=".2" stop-color="#d5f3ff"/><stop offset="1" stop-color="#85bcf1"/></radialGradient><radialGradient id="f" cx="747.24" cy="-2042.27" fx="747.24" fy="-2042.27" r="8.48" xlink:href="#c"/><radialGradient id="g" cx="746.98" cy="-2057.93" fx="746.98" fy="-2057.93" r="6.66" xlink:href="#c"/><radialGradient id="h" cx="10.93" cy="60.66" fx="10.93" fy="60.66" gradientTransform="matrix(.90100132 -.43381635 1.26240557 2.62191384 -75.51 -93.7)" r="4.87" xlink:href="#d"/><path d="m49.98 27c0 14.91 12.09 27 27 27s27-12.09 27-27-12.08-27-27-27-27 12.09-27 27z" fill="url(#a)"/><g fill="#acadb2"><path d="m58.12 31.78c2.54-.23 4.35-3.11 4.05-6.43s-2.6-5.83-5.13-5.6c-2.54.23-4.35 3.11-4.05 6.43s2.6 5.83 5.13 5.6z"/><path d="m55.92 34.19c-1.52.8-1.9 3.06-.86 5.05s3.12 2.96 4.64 2.16 1.9-3.06.86-5.05-3.12-2.96-4.64-2.16z"/><path d="m61.94 31.8c-.9.47-1.12 1.81-.51 2.98s1.85 1.75 2.74 1.28c.9-.47 1.12-1.81.51-2.98-.62-1.18-1.85-1.75-2.74-1.28z"/><path d="m101.92 27.98c-.47-3.3-2.89-5.69-5.41-5.34-2.52.36-4.19 3.32-3.72 6.62.46 3.3 2.89 5.69 5.41 5.33s4.19-3.32 3.72-6.62z"/><path d="m98.59 20.12c1.48-.88 1.75-3.15.6-5.09-1.14-1.93-3.27-2.79-4.75-1.92s-1.75 3.15-.6 5.08c1.14 1.94 3.27 2.79 4.75 1.92z"/><path d="m93.05 19.81c-.68-1.14-1.93-1.65-2.8-1.13s-1.03 1.86-.36 3c.68 1.14 1.93 1.65 2.8 1.13s1.03-1.86.36-3z"/></g><path d="m81.1 24.22c-6.87-5.58-9.56-14.07-6-18.97 3.57-4.9 12.03-4.35 18.91 1.22 6.87 5.58 9.56 14.08 5.99 18.97-3.57 4.91-12.04 4.36-18.91-1.22z" fill="url(#c)"/><path d="m53.12 32.97c.91-2.99 5.54-1.75 10.35 2.77 4.8 4.51 7.96 10.59 7.05 13.58-.91 2.98-5.54 1.75-10.35-2.76-4.8-4.51-7.96-10.6-7.05-13.58z" fill="url(#d)" opacity=".4"/><path d="m73 34.28c-.96-14.05-12.65-25.15-26.94-25.15s-25.98 11.1-26.94 25.15c-10.65.52-19.12 9.32-19.12 20.09s9.01 20.12 20.12 20.12h51.86c11.11 0 20.12-9.01 20.12-20.12s-8.47-19.57-19.11-20.1z" fill="url(#e)"/><path d="m46.06 36.78c-7.58-6.15-10.54-15.5-6.61-20.9s13.26-4.79 20.84 1.35c7.57 6.14 10.53 15.51 6.6 20.9-3.93 5.4-13.26 4.79-20.83-1.35z" fill="url(#f)"/><path d="m73.14 54.94c-5.95-4.83-8.28-12.18-5.19-16.43 3.09-4.24 10.42-3.77 16.37 1.06s8.28 12.19 5.19 16.43c-3.09 4.25-10.42 3.77-16.37-1.06z" fill="url(#g)" opacity=".4"/><path d="m14.39 55.62c-4.39-6.85-9.5-10.15-11.41-7.37-1.9 2.78.11 10.59 4.5 17.44 4.4 6.85 9.5 10.15 11.41 7.38 1.9-2.79-.11-10.59-4.5-17.45z" fill="url(#h)" opacity=".2"/></svg>