<svg fill="none" height="48" viewBox="0 0 48 48" width="48" xmlns="http://www.w3.org/2000/svg"><path clip-rule="evenodd" d="m10.0011 20.8322c.0898-7.1023 5.8752-12.8322 12.9989-12.8322 5.5712 0 10.32 3.5031 12.1712 8.424 5.0888 1.3913 8.8288 6.0452 8.8288 11.576 0 6.6274-5.3726 12-12 12h-18c-5.52284 0-10-4.4772-10-10 0-4.1028 2.46936-7.625 6.0011-9.1678zm12.9989-8.8322c-4.9706 0-9 4.0294-9 9 0 .3382.0186.6712.0546.9984.1113 1.011-.5444 1.9372-1.5176 2.1808-2.60764.6526-4.537 3.0138-4.537 5.8208 0 3.3138 2.6863 6 6 6h18c4.4182 0 8-3.5818 8-8 0-3.971-2.8952-7.2696-6.6896-7.8936-.7796-.1281-1.415-.6997-1.6222-1.4654-1.0362-3.8277-4.5362-6.641-8.6882-6.641z" fill="#fff" fill-rule="evenodd"/></svg>