<?xml version="1.0" encoding="UTF-8"?>
<svg xmlns="http://www.w3.org/2000/svg" xmlns:xlink="http://www.w3.org/1999/xlink" viewBox="0 0 109.83 59.12">
  <defs>
    <style>
      .cls-1 {
        fill: url(#radial-gradient-3);
      }

      .cls-1, .cls-2 {
        opacity: .4;
      }

      .cls-1, .cls-2, .cls-3, .cls-4, .cls-5, .cls-6 {
        mix-blend-mode: overlay;
      }

      .cls-7 {
        fill: url(#radial-gradient);
      }

      .cls-2 {
        fill: url(#radial-gradient-6);
      }

      .cls-8 {
        isolation: isolate;
      }

      .cls-9 {
        fill: url(#radial-gradient-4);
      }

      .cls-3 {
        fill: url(#radial-gradient-5);
      }

      .cls-4 {
        fill: url(#Degradado_sin_nombre_34-2);
      }

      .cls-4, .cls-6 {
        opacity: .2;
      }

      .cls-5 {
        fill: url(#radial-gradient-2);
        opacity: .6;
      }

      .cls-6 {
        fill: url(#Degradado_sin_nombre_34);
      }
    </style>
    <radialGradient id="radial-gradient" cx="87.9" cy="8.77" fx="87.9" fy="8.77" r="44.73" gradientTransform="translate(175.81 15.18) rotate(-180) scale(1 .73)" gradientUnits="userSpaceOnUse">
      <stop offset="0" stop-color="#b6ccd2"/>
      <stop offset=".2" stop-color="#97b6be"/>
      <stop offset="1" stop-color="#5d87b4"/>
    </radialGradient>
    <radialGradient id="radial-gradient-2" cx="990.73" cy="-2159.95" fx="990.73" fy="-2159.95" r="5.4" gradientTransform="translate(-2579.63 -3966.67) rotate(126.03) scale(1.43 2.08) skewX(-4.38)" gradientUnits="userSpaceOnUse">
      <stop offset="0" stop-color="#fff"/>
      <stop offset=".1" stop-color="#fff" stop-opacity=".85"/>
      <stop offset=".29" stop-color="#fff" stop-opacity=".59"/>
      <stop offset=".47" stop-color="#fff" stop-opacity=".38"/>
      <stop offset=".63" stop-color="#fff" stop-opacity=".22"/>
      <stop offset=".78" stop-color="#fff" stop-opacity=".1"/>
      <stop offset=".91" stop-color="#fff" stop-opacity=".03"/>
      <stop offset="1" stop-color="#fff" stop-opacity="0"/>
    </radialGradient>
    <radialGradient id="radial-gradient-3" cx="990.57" cy="-2169.92" fx="990.57" fy="-2169.92" r="4.24" xlink:href="#radial-gradient-2"/>
    <radialGradient id="Degradado_sin_nombre_34" data-name="Degradado sin nombre 34" cx="58.15" cy="32.8" fx="58.15" fy="32.8" r="3.1" gradientTransform="translate(-35.67 -28.01) rotate(-25.71) scale(1 2.91)" gradientUnits="userSpaceOnUse">
      <stop offset="0" stop-color="#fff"/>
      <stop offset=".1" stop-color="#fff" stop-opacity=".85"/>
      <stop offset=".29" stop-color="#fff" stop-opacity=".59"/>
      <stop offset=".47" stop-color="#fff" stop-opacity=".38"/>
      <stop offset=".63" stop-color="#fff" stop-opacity=".22"/>
      <stop offset=".78" stop-color="#fff" stop-opacity=".1"/>
      <stop offset=".91" stop-color="#fff" stop-opacity=".03"/>
      <stop offset="1" stop-color="#fff" stop-opacity="0"/>
    </radialGradient>
    <radialGradient id="radial-gradient-4" cx="44.34" cy="19.45" fx="44.34" fy="19.45" r="54.02" gradientTransform="translate(88.68 33.66) rotate(-180) scale(1 .73)" gradientUnits="userSpaceOnUse">
      <stop offset="0" stop-color="#fff"/>
      <stop offset=".2" stop-color="#d5f3ff"/>
      <stop offset="1" stop-color="#85bcf1"/>
    </radialGradient>
    <radialGradient id="radial-gradient-5" cx="1016.37" cy="-2145.96" fx="1016.37" fy="-2145.96" r="6.52" xlink:href="#radial-gradient-2"/>
    <radialGradient id="radial-gradient-6" cx="1016.17" cy="-2158" fx="1016.17" fy="-2158" r="5.12" xlink:href="#radial-gradient-2"/>
    <radialGradient id="Degradado_sin_nombre_34-2" data-name="Degradado sin nombre 34" cx="8.41" cy="48.48" fx="8.41" fy="48.48" r="3.75" gradientTransform="translate(-60.38 -75.02) rotate(-25.71) scale(1 2.91)" xlink:href="#Degradado_sin_nombre_34"/>
  </defs>
  <g class="cls-8">
    <g id="Layer_2">
      <g id="OBJECTS">
        <g>
          <g>
            <path class="cls-7" d="M97.66,16.01c-.61-8.94-8.05-16.01-17.15-16.01s-16.54,7.07-17.15,16.01c-6.78.33-12.17,5.94-12.17,12.79s5.73,12.81,12.81,12.81h33.02c7.08,0,12.81-5.74,12.81-12.81s-5.39-12.46-12.17-12.79Z"/>
            <path class="cls-5" d="M80.51,17.6c-4.82-3.91-6.71-9.87-4.21-13.31,2.5-3.44,8.44-3.05,13.26.86,4.82,3.91,6.7,9.87,4.21,13.31-2.5,3.44-8.44,3.05-13.26-.86Z"/>
            <path class="cls-1" d="M97.75,29.17c-3.79-3.08-5.27-7.76-3.31-10.46,1.96-2.7,6.63-2.4,10.42.67,3.79,3.07,5.27,7.76,3.3,10.46-1.97,2.7-6.63,2.4-10.42-.67Z"/>
            <path class="cls-6" d="M60.35,29.6c-2.8-4.36-6.05-6.46-7.26-4.69-1.21,1.77.07,6.74,2.86,11.11,2.8,4.36,6.05,6.46,7.26,4.7,1.21-1.77-.07-6.74-2.87-11.11Z"/>
          </g>
          <g>
            <path class="cls-9" d="M56.12,28.19c-.74-10.8-9.73-19.34-20.71-19.34S15.43,17.39,14.7,28.19c-8.19.4-14.7,7.17-14.7,15.45s6.93,15.47,15.47,15.47h39.87c8.55,0,15.47-6.93,15.47-15.47s-6.51-15.05-14.7-15.45Z"/>
            <path class="cls-3" d="M35.41,30.12c-5.83-4.73-8.1-11.92-5.08-16.07,3.02-4.15,10.19-3.69,16.02,1.04,5.82,4.72,8.1,11.92,5.08,16.07-3.02,4.15-10.19,3.69-16.02-1.04Z"/>
            <path class="cls-2" d="M56.23,44.08c-4.58-3.71-6.37-9.37-3.99-12.63,2.37-3.26,8.01-2.9,12.59.81,4.58,3.71,6.36,9.37,3.99,12.63-2.38,3.27-8.01,2.9-12.59-.81Z"/>
            <path class="cls-4" d="M11.06,44.6c-3.38-5.27-7.3-7.8-8.77-5.67-1.46,2.13.08,8.14,3.46,13.41,3.38,5.27,7.31,7.81,8.77,5.67,1.47-2.14-.08-8.14-3.46-13.41Z"/>
          </g>
        </g>
      </g>
    </g>
  </g>
</svg>