<svg viewBox="0 0 109.83 59.12" xmlns="http://www.w3.org/2000/svg" xmlns:xlink="http://www.w3.org/1999/xlink"><radialGradient id="a" cx="87.9" cy="8.77" gradientTransform="matrix(-1 0 0 -.73 175.81 15.18)" gradientUnits="userSpaceOnUse" r="44.73"><stop offset="0" stop-color="#b6ccd2"/><stop offset=".2" stop-color="#97b6be"/><stop offset="1" stop-color="#5d87b4"/></radialGradient><linearGradient id="b"><stop offset="0" stop-color="#fff"/><stop offset=".1" stop-color="#fff" stop-opacity=".85"/><stop offset=".29" stop-color="#fff" stop-opacity=".59"/><stop offset=".47" stop-color="#fff" stop-opacity=".38"/><stop offset=".63" stop-color="#fff" stop-opacity=".22"/><stop offset=".78" stop-color="#fff" stop-opacity=".1"/><stop offset=".91" stop-color="#fff" stop-opacity=".03"/><stop offset="1" stop-color="#fff" stop-opacity="0"/></linearGradient><radialGradient id="c" cx="990.73" cy="-2159.95" fx="990.73" fy="-2159.95" gradientTransform="matrix(-.84113854 1.15645404 -1.61768823 -1.31205248 -2579.63 -3966.67)" gradientUnits="userSpaceOnUse" r="5.4" xlink:href="#b"/><radialGradient id="d" cx="990.57" cy="-2169.92" fx="990.57" fy="-2169.92" r="4.24" xlink:href="#c"/><radialGradient id="e" cx="58.15" cy="32.8" fx="58.15" fy="32.8" gradientTransform="matrix(.90100132 -.43381635 1.26240557 2.62191384 -35.67 -28.01)" gradientUnits="userSpaceOnUse" r="3.1" xlink:href="#b"/><radialGradient id="f" cx="44.34" cy="19.45" gradientTransform="matrix(-1 0 0 -.73 88.68 33.66)" gradientUnits="userSpaceOnUse" r="54.02"><stop offset="0" stop-color="#fff"/><stop offset=".2" stop-color="#d5f3ff"/><stop offset="1" stop-color="#85bcf1"/></radialGradient><radialGradient id="g" cx="1016.37" cy="-2145.96" fx="1016.37" fy="-2145.96" r="6.52" xlink:href="#c"/><radialGradient id="h" cx="1016.17" cy="-2158" fx="1016.17" fy="-2158" r="5.12" xlink:href="#c"/><radialGradient id="i" cx="8.41" cy="48.48" fx="8.41" fy="48.48" gradientTransform="matrix(.90100132 -.43381635 1.26240557 2.62191384 -60.38 -75.02)" r="3.75" xlink:href="#e"/><path d="m97.66 16.01c-.61-8.94-8.05-16.01-17.15-16.01s-16.54 7.07-17.15 16.01c-6.78.33-12.17 5.94-12.17 12.79s5.73 12.81 12.81 12.81h33.02c7.08 0 12.81-5.74 12.81-12.81s-5.39-12.46-12.17-12.79z" fill="url(#a)"/><path d="m80.51 17.6c-4.82-3.91-6.71-9.87-4.21-13.31 2.5-3.44 8.44-3.05 13.26.86s6.7 9.87 4.21 13.31c-2.5 3.44-8.44 3.05-13.26-.86z" fill="url(#c)" opacity=".6"/><path d="m97.75 29.17c-3.79-3.08-5.27-7.76-3.31-10.46s6.63-2.4 10.42.67 5.27 7.76 3.3 10.46-6.63 2.4-10.42-.67z" fill="url(#d)" opacity=".4"/><path d="m60.35 29.6c-2.8-4.36-6.05-6.46-7.26-4.69s.07 6.74 2.86 11.11c2.8 4.36 6.05 6.46 7.26 4.7 1.21-1.77-.07-6.74-2.87-11.11z" fill="url(#e)" opacity=".2"/><path d="m56.12 28.19c-.74-10.8-9.73-19.34-20.71-19.34s-19.98 8.54-20.71 19.34c-8.19.4-14.7 7.17-14.7 15.45s6.93 15.47 15.47 15.47h39.87c8.55 0 15.47-6.93 15.47-15.47s-6.51-15.05-14.7-15.45z" fill="url(#f)"/><path d="m35.41 30.12c-5.83-4.73-8.1-11.92-5.08-16.07s10.19-3.69 16.02 1.04c5.82 4.72 8.1 11.92 5.08 16.07s-10.19 3.69-16.02-1.04z" fill="url(#g)"/><path d="m56.23 44.08c-4.58-3.71-6.37-9.37-3.99-12.63 2.37-3.26 8.01-2.9 12.59.81s6.36 9.37 3.99 12.63c-2.38 3.27-8.01 2.9-12.59-.81z" fill="url(#h)" opacity=".4"/><path d="m11.06 44.6c-3.38-5.27-7.3-7.8-8.77-5.67-1.46 2.13.08 8.14 3.46 13.41s7.31 7.81 8.77 5.67c1.47-2.14-.08-8.14-3.46-13.41z" fill="url(#i)" opacity=".2"/></svg>