<svg viewBox="0 0 92.11 94.23" xmlns="http://www.w3.org/2000/svg" xmlns:xlink="http://www.w3.org/1999/xlink"><radialGradient id="a" cx="57.67" cy="13.78" gradientTransform="matrix(-1 0 0 -.73 115.34 23.84)" gradientUnits="userSpaceOnUse" r="70.26"><stop offset="0" stop-color="#fff"/><stop offset=".2" stop-color="#d5f3ff"/><stop offset="1" stop-color="#85bcf1"/></radialGradient><linearGradient id="b"><stop offset="0" stop-color="#fff"/><stop offset=".1" stop-color="#fff" stop-opacity=".85"/><stop offset=".29" stop-color="#fff" stop-opacity=".59"/><stop offset=".47" stop-color="#fff" stop-opacity=".38"/><stop offset=".63" stop-color="#fff" stop-opacity=".22"/><stop offset=".78" stop-color="#fff" stop-opacity=".1"/><stop offset=".91" stop-color="#fff" stop-opacity=".03"/><stop offset="1" stop-color="#fff" stop-opacity="0"/></linearGradient><radialGradient id="c" cx="1248.76" cy="-1737.92" fx="1248.76" fy="-1737.92" gradientTransform="matrix(-.84113854 1.15645404 -1.61768823 -1.31205248 -1711.87 -3703.9)" gradientUnits="userSpaceOnUse" r="8.48" xlink:href="#b"/><radialGradient id="d" cx="1248.51" cy="-1753.58" fx="1248.51" fy="-1753.58" r="6.66" xlink:href="#c"/><radialGradient id="e" cx="10.93" cy="51.53" gradientTransform="matrix(.90100132 -.43381635 1.26240557 2.62191384 -63.98 -78.88)" gradientUnits="userSpaceOnUse" r="4.87" xlink:href="#b"/><radialGradient id="f" cx="-270.81" cy="73.06" fx="-270.81" fy="73.06" gradientTransform="matrix(.8660254 .5 -.5 .8660254 289.13 148.94)" gradientUnits="userSpaceOnUse" r="9.89"><stop offset="0" stop-color="#d0f2ff"/><stop offset=".2" stop-color="#d5f3ff"/><stop offset="1" stop-color="#85bcf1"/></radialGradient><radialGradient id="g" cx="1421.72" cy="-1627.39" fx="1421.72" fy="-1627.39" gradientTransform="matrix(-1.30677574 .58072124 -.74459337 -1.94524488 658.9 -3914.48)" r="1.55" xlink:href="#c"/><radialGradient id="h" cx="-255.92" cy="64.46" fx="-255.92" fy="64.46" r="9.89" xlink:href="#f"/><radialGradient id="i" cx="1410.45" cy="-1630.74" fx="1410.45" fy="-1630.74" gradientTransform="matrix(-1.30677574 .58072124 -.74459337 -1.94524488 658.9 -3914.48)" r="1.55" xlink:href="#c"/><radialGradient id="j" cx="-241.03" cy="55.86" fx="-241.03" fy="55.86" r="9.89" xlink:href="#f"/><radialGradient id="k" cx="1399.18" cy="-1634.1" fx="1399.18" fy="-1634.1" gradientTransform="matrix(-1.30677574 .58072124 -.74459337 -1.94524488 658.9 -3914.48)" r="1.55" xlink:href="#c"/><radialGradient id="l" cx="-226.14" cy="47.26" fx="-226.14" fy="47.26" r="9.89" xlink:href="#f"/><radialGradient id="m" cx="1387.91" cy="-1637.45" fx="1387.91" fy="-1637.45" gradientTransform="matrix(-1.30677574 .58072124 -.74459337 -1.94524488 658.9 -3914.48)" r="1.55" xlink:href="#c"/><radialGradient id="n" cx="-256.14" cy="81.27" fx="-256.14" fy="81.27" r="9.89" xlink:href="#f"/><radialGradient id="o" cx="1419.71" cy="-1635.41" fx="1419.71" fy="-1635.41" gradientTransform="matrix(-1.30677574 .58072124 -.74459337 -1.94524488 658.9 -3914.48)" r="1.55" xlink:href="#c"/><radialGradient id="p" cx="-241.25" cy="72.67" fx="-241.25" fy="72.67" r="9.89" xlink:href="#f"/><radialGradient id="q" cx="1408.44" cy="-1638.76" fx="1408.44" fy="-1638.76" gradientTransform="matrix(-1.30677574 .58072124 -.74459337 -1.94524488 658.9 -3914.48)" r="1.55" xlink:href="#c"/><radialGradient id="r" cx="-226.36" cy="64.07" fx="-226.36" fy="64.07" r="9.89" xlink:href="#f"/><radialGradient id="s" cx="1397.17" cy="-1642.12" fx="1397.17" fy="-1642.12" gradientTransform="matrix(-1.30677574 .58072124 -.74459337 -1.94524488 658.9 -3914.48)" r="1.55" xlink:href="#c"/><path d="m73 25.15c-.96-14.05-12.65-25.15-26.94-25.15s-25.98 11.1-26.94 25.15c-10.65.52-19.12 9.32-19.12 20.09s9.01 20.12 20.12 20.12h51.86c11.11 0 20.12-9.01 20.12-20.12s-8.47-19.57-19.11-20.1z" fill="url(#a)"/><path d="m46.06 27.65c-7.58-6.15-10.53-15.5-6.61-20.9 3.93-5.4 13.26-4.79 20.84 1.35 7.57 6.14 10.53 15.51 6.6 20.9-3.93 5.4-13.26 4.79-20.83-1.35z" fill="url(#c)"/><path d="m73.14 45.81c-5.95-4.83-8.28-12.19-5.19-16.43 3.09-4.25 10.42-3.77 16.37 1.06s8.27 12.19 5.19 16.43c-3.09 4.25-10.42 3.77-16.37-1.06z" fill="url(#d)" opacity=".4"/><path d="m14.39 46.49c-4.39-6.85-9.5-10.15-11.41-7.37-1.9 2.78.11 10.59 4.5 17.44 4.4 6.85 9.5 10.15 11.41 7.37 1.91-2.79-.11-10.59-4.5-17.45z" fill="url(#e)" opacity=".2"/><path d="m23.58 77.73c-1.14 1.97-3.65 2.64-5.62 1.5-1.97-1.13-2.64-3.65-1.5-5.62s8.16-5.91 8.16-5.91.1 8.05-1.04 10.02z" fill="url(#f)"/><path d="m16.58 77.05c-.64-1.66-.25-3.42.87-3.91 1.12-.5 2.54.45 3.17 2.12.64 1.67.25 3.42-.86 3.91-1.12.5-2.54-.45-3.17-2.12z" fill="url(#g)"/><path d="m40.78 77.73c-1.14 1.97-3.65 2.64-5.62 1.5-1.97-1.13-2.64-3.65-1.5-5.62s8.16-5.91 8.16-5.91.1 8.05-1.04 10.02z" fill="url(#h)"/><path d="m33.77 77.05c-.64-1.66-.25-3.42.87-3.91 1.12-.5 2.54.45 3.17 2.12.64 1.67.25 3.42-.87 3.91-1.12.5-2.54-.45-3.17-2.12z" fill="url(#i)"/><path d="m57.97 77.73c-1.14 1.97-3.65 2.64-5.62 1.5-1.97-1.13-2.64-3.65-1.5-5.62s8.16-5.91 8.16-5.91.1 8.05-1.04 10.02z" fill="url(#j)"/><path d="m50.97 77.05c-.64-1.66-.25-3.42.87-3.91 1.12-.5 2.54.45 3.17 2.12.64 1.67.25 3.42-.86 3.91-1.12.5-2.54-.45-3.17-2.12z" fill="url(#k)"/><path d="m75.16 77.73c-1.14 1.97-3.65 2.64-5.62 1.5-1.97-1.13-2.64-3.65-1.5-5.62s8.16-5.91 8.16-5.91.1 8.05-1.04 10.02z" fill="url(#l)"/><path d="m68.16 77.05c-.64-1.66-.25-3.42.87-3.91 1.12-.5 2.54.45 3.17 2.12.64 1.67.25 3.42-.87 3.91-1.12.5-2.54-.45-3.17-2.12z" fill="url(#m)"/><path d="m32.18 92.18c-1.14 1.96-3.65 2.64-5.62 1.5-1.97-1.13-2.64-3.65-1.5-5.62 1.13-1.97 8.16-5.91 8.16-5.91s.1 8.05-1.04 10.02z" fill="url(#n)"/><path d="m25.18 91.5c-.64-1.66-.25-3.42.87-3.91 1.11-.5 2.54.45 3.17 2.12.64 1.66.25 3.42-.86 3.91-1.12.5-2.54-.45-3.17-2.12z" fill="url(#o)"/><path d="m49.37 92.18c-1.14 1.96-3.65 2.64-5.62 1.5-1.97-1.13-2.64-3.65-1.5-5.62s8.16-5.91 8.16-5.91.1 8.05-1.04 10.02z" fill="url(#p)"/><path d="m42.37 91.5c-.64-1.66-.25-3.42.87-3.91 1.12-.5 2.54.45 3.17 2.12.64 1.66.25 3.42-.86 3.91-1.12.5-2.54-.45-3.17-2.12z" fill="url(#q)"/><path d="m66.56 92.18c-1.14 1.96-3.65 2.64-5.62 1.5-1.97-1.13-2.64-3.65-1.5-5.62s8.16-5.91 8.16-5.91.1 8.05-1.04 10.02z" fill="url(#r)"/><path d="m59.56 91.5c-.64-1.66-.25-3.42.87-3.91 1.12-.5 2.54.45 3.17 2.12.64 1.66.25 3.42-.87 3.91-1.12.5-2.54-.45-3.17-2.12z" fill="url(#s)"/></svg>