<?xml version="1.0" encoding="UTF-8"?>
<svg xmlns="http://www.w3.org/2000/svg" xmlns:xlink="http://www.w3.org/1999/xlink" viewBox="0 0 92.11 94.23">
  <defs>
    <style>
      .cls-1 {
        fill: url(#radial-gradient-10);
      }

      .cls-2 {
        fill: url(#radial-gradient-3);
        opacity: .4;
      }

      .cls-2, .cls-3, .cls-4, .cls-5, .cls-6, .cls-7, .cls-8, .cls-9, .cls-10, .cls-11 {
        mix-blend-mode: overlay;
      }

      .cls-3 {
        fill: url(#radial-gradient-2);
      }

      .cls-12 {
        fill: url(#radial-gradient-14);
      }

      .cls-13 {
        fill: url(#radial-gradient-16);
      }

      .cls-14 {
        fill: url(#radial-gradient);
      }

      .cls-15 {
        isolation: isolate;
      }

      .cls-16 {
        fill: url(#radial-gradient-8);
      }

      .cls-4 {
        fill: url(#radial-gradient-9);
      }

      .cls-17 {
        fill: url(#radial-gradient-4);
      }

      .cls-18 {
        fill: url(#radial-gradient-12);
      }

      .cls-5 {
        fill: url(#radial-gradient-5);
      }

      .cls-6 {
        fill: url(#radial-gradient-15);
      }

      .cls-7 {
        fill: url(#radial-gradient-17);
      }

      .cls-19 {
        fill: url(#radial-gradient-6);
      }

      .cls-8 {
        fill: url(#radial-gradient-11);
      }

      .cls-9 {
        fill: url(#radial-gradient-7);
      }

      .cls-10 {
        fill: url(#Degradado_sin_nombre_34);
        opacity: .2;
      }

      .cls-11 {
        fill: url(#radial-gradient-13);
      }
    </style>
    <radialGradient id="radial-gradient" cx="57.67" cy="13.78" fx="57.67" fy="13.78" r="70.26" gradientTransform="translate(115.34 23.84) rotate(-180) scale(1 .73)" gradientUnits="userSpaceOnUse">
      <stop offset="0" stop-color="#fff"/>
      <stop offset=".2" stop-color="#d5f3ff"/>
      <stop offset="1" stop-color="#85bcf1"/>
    </radialGradient>
    <radialGradient id="radial-gradient-2" cx="1248.76" cy="-1737.92" fx="1248.76" fy="-1737.92" r="8.48" gradientTransform="translate(-1711.87 -3703.9) rotate(126.03) scale(1.43 2.08) skewX(-4.38)" gradientUnits="userSpaceOnUse">
      <stop offset="0" stop-color="#fff"/>
      <stop offset=".1" stop-color="#fff" stop-opacity=".85"/>
      <stop offset=".29" stop-color="#fff" stop-opacity=".59"/>
      <stop offset=".47" stop-color="#fff" stop-opacity=".38"/>
      <stop offset=".63" stop-color="#fff" stop-opacity=".22"/>
      <stop offset=".78" stop-color="#fff" stop-opacity=".1"/>
      <stop offset=".91" stop-color="#fff" stop-opacity=".03"/>
      <stop offset="1" stop-color="#fff" stop-opacity="0"/>
    </radialGradient>
    <radialGradient id="radial-gradient-3" cx="1248.51" cy="-1753.58" fx="1248.51" fy="-1753.58" r="6.66" xlink:href="#radial-gradient-2"/>
    <radialGradient id="Degradado_sin_nombre_34" data-name="Degradado sin nombre 34" cx="10.93" cy="51.53" fx="10.93" fy="51.53" r="4.87" gradientTransform="translate(-63.98 -78.88) rotate(-25.71) scale(1 2.91)" gradientUnits="userSpaceOnUse">
      <stop offset="0" stop-color="#fff"/>
      <stop offset=".1" stop-color="#fff" stop-opacity=".85"/>
      <stop offset=".29" stop-color="#fff" stop-opacity=".59"/>
      <stop offset=".47" stop-color="#fff" stop-opacity=".38"/>
      <stop offset=".63" stop-color="#fff" stop-opacity=".22"/>
      <stop offset=".78" stop-color="#fff" stop-opacity=".1"/>
      <stop offset=".91" stop-color="#fff" stop-opacity=".03"/>
      <stop offset="1" stop-color="#fff" stop-opacity="0"/>
    </radialGradient>
    <radialGradient id="radial-gradient-4" cx="-270.81" cy="73.06" fx="-270.81" fy="73.06" r="9.89" gradientTransform="translate(289.13 148.94) rotate(30)" gradientUnits="userSpaceOnUse">
      <stop offset="0" stop-color="#d0f2ff"/>
      <stop offset=".2" stop-color="#d5f3ff"/>
      <stop offset="1" stop-color="#85bcf1"/>
    </radialGradient>
    <radialGradient id="radial-gradient-5" cx="1421.72" cy="-1627.39" fx="1421.72" fy="-1627.39" r="1.55" gradientTransform="translate(658.9 -3914.48) rotate(156.04) scale(1.43 2.08) skewX(-4.38)" xlink:href="#radial-gradient-2"/>
    <radialGradient id="radial-gradient-6" cx="-255.92" cy="64.46" fx="-255.92" fy="64.46" r="9.89" xlink:href="#radial-gradient-4"/>
    <radialGradient id="radial-gradient-7" cx="1410.45" cy="-1630.74" fx="1410.45" fy="-1630.74" r="1.55" gradientTransform="translate(658.9 -3914.48) rotate(156.04) scale(1.43 2.08) skewX(-4.38)" xlink:href="#radial-gradient-2"/>
    <radialGradient id="radial-gradient-8" cx="-241.03" cy="55.86" fx="-241.03" fy="55.86" r="9.89" xlink:href="#radial-gradient-4"/>
    <radialGradient id="radial-gradient-9" cx="1399.18" cy="-1634.1" fx="1399.18" fy="-1634.1" r="1.55" gradientTransform="translate(658.9 -3914.48) rotate(156.04) scale(1.43 2.08) skewX(-4.38)" xlink:href="#radial-gradient-2"/>
    <radialGradient id="radial-gradient-10" cx="-226.14" cy="47.26" fx="-226.14" fy="47.26" r="9.89" xlink:href="#radial-gradient-4"/>
    <radialGradient id="radial-gradient-11" cx="1387.91" cy="-1637.45" fx="1387.91" fy="-1637.45" r="1.55" gradientTransform="translate(658.9 -3914.48) rotate(156.04) scale(1.43 2.08) skewX(-4.38)" xlink:href="#radial-gradient-2"/>
    <radialGradient id="radial-gradient-12" cx="-256.14" cy="81.27" fx="-256.14" fy="81.27" r="9.89" xlink:href="#radial-gradient-4"/>
    <radialGradient id="radial-gradient-13" cx="1419.71" cy="-1635.41" fx="1419.71" fy="-1635.41" r="1.55" gradientTransform="translate(658.9 -3914.48) rotate(156.04) scale(1.43 2.08) skewX(-4.38)" xlink:href="#radial-gradient-2"/>
    <radialGradient id="radial-gradient-14" cx="-241.25" cy="72.67" fx="-241.25" fy="72.67" r="9.89" xlink:href="#radial-gradient-4"/>
    <radialGradient id="radial-gradient-15" cx="1408.44" cy="-1638.76" fx="1408.44" fy="-1638.76" r="1.55" gradientTransform="translate(658.9 -3914.48) rotate(156.04) scale(1.43 2.08) skewX(-4.38)" xlink:href="#radial-gradient-2"/>
    <radialGradient id="radial-gradient-16" cx="-226.36" cy="64.07" fx="-226.36" fy="64.07" r="9.89" xlink:href="#radial-gradient-4"/>
    <radialGradient id="radial-gradient-17" cx="1397.17" cy="-1642.12" fx="1397.17" fy="-1642.12" r="1.55" gradientTransform="translate(658.9 -3914.48) rotate(156.04) scale(1.43 2.08) skewX(-4.38)" xlink:href="#radial-gradient-2"/>
  </defs>
  <g class="cls-15">
    <g id="Layer_2">
      <g id="OBJECTS">
        <g>
          <g>
            <path class="cls-14" d="M73,25.15c-.96-14.05-12.65-25.15-26.94-25.15s-25.98,11.1-26.94,25.15C8.47,25.67,0,34.47,0,45.24s9.01,20.12,20.12,20.12h51.86c11.11,0,20.12-9.01,20.12-20.12s-8.47-19.57-19.11-20.1Z"/>
            <path class="cls-3" d="M46.06,27.65c-7.58-6.15-10.53-15.5-6.61-20.9,3.93-5.4,13.26-4.79,20.84,1.35,7.57,6.14,10.53,15.51,6.6,20.9-3.93,5.4-13.26,4.79-20.83-1.35Z"/>
            <path class="cls-2" d="M73.14,45.81c-5.95-4.83-8.28-12.19-5.19-16.43,3.09-4.25,10.42-3.77,16.37,1.06,5.95,4.83,8.27,12.19,5.19,16.43-3.09,4.25-10.42,3.77-16.37-1.06Z"/>
            <path class="cls-10" d="M14.39,46.49c-4.39-6.85-9.5-10.15-11.41-7.37-1.9,2.78.11,10.59,4.5,17.44,4.4,6.85,9.5,10.15,11.41,7.37,1.91-2.79-.11-10.59-4.5-17.45Z"/>
          </g>
          <g>
            <g>
              <path class="cls-17" d="M23.58,77.73c-1.14,1.97-3.65,2.64-5.62,1.5-1.97-1.13-2.64-3.65-1.5-5.62,1.14-1.97,8.16-5.91,8.16-5.91,0,0,.1,8.05-1.04,10.02Z"/>
              <path class="cls-5" d="M16.58,77.05c-.64-1.66-.25-3.42.87-3.91,1.12-.5,2.54.45,3.17,2.12.64,1.67.25,3.42-.86,3.91-1.12.5-2.54-.45-3.17-2.12Z"/>
            </g>
            <g>
              <path class="cls-19" d="M40.78,77.73c-1.14,1.97-3.65,2.64-5.62,1.5-1.97-1.13-2.64-3.65-1.5-5.62,1.14-1.97,8.16-5.91,8.16-5.91,0,0,.1,8.05-1.04,10.02Z"/>
              <path class="cls-9" d="M33.77,77.05c-.64-1.66-.25-3.42.87-3.91,1.12-.5,2.54.45,3.17,2.12.64,1.67.25,3.42-.87,3.91-1.12.5-2.54-.45-3.17-2.12Z"/>
            </g>
            <g>
              <path class="cls-16" d="M57.97,77.73c-1.14,1.97-3.65,2.64-5.62,1.5-1.97-1.13-2.64-3.65-1.5-5.62,1.14-1.97,8.16-5.91,8.16-5.91,0,0,.1,8.05-1.04,10.02Z"/>
              <path class="cls-4" d="M50.97,77.05c-.64-1.66-.25-3.42.87-3.91,1.12-.5,2.54.45,3.17,2.12.64,1.67.25,3.42-.86,3.91-1.12.5-2.54-.45-3.17-2.12Z"/>
            </g>
            <g>
              <path class="cls-1" d="M75.16,77.73c-1.14,1.97-3.65,2.64-5.62,1.5-1.97-1.13-2.64-3.65-1.5-5.62,1.14-1.97,8.16-5.91,8.16-5.91,0,0,.1,8.05-1.04,10.02Z"/>
              <path class="cls-8" d="M68.16,77.05c-.64-1.66-.25-3.42.87-3.91,1.12-.5,2.54.45,3.17,2.12.64,1.67.25,3.42-.87,3.91-1.12.5-2.54-.45-3.17-2.12Z"/>
            </g>
          </g>
          <g>
            <g>
              <path class="cls-18" d="M32.18,92.18c-1.14,1.96-3.65,2.64-5.62,1.5-1.97-1.13-2.64-3.65-1.5-5.62,1.13-1.97,8.16-5.91,8.16-5.91,0,0,.1,8.05-1.04,10.02Z"/>
              <path class="cls-11" d="M25.18,91.5c-.64-1.66-.25-3.42.87-3.91,1.11-.5,2.54.45,3.17,2.12.64,1.66.25,3.42-.86,3.91-1.12.5-2.54-.45-3.17-2.12Z"/>
            </g>
            <g>
              <path class="cls-12" d="M49.37,92.18c-1.14,1.96-3.65,2.64-5.62,1.5-1.97-1.13-2.64-3.65-1.5-5.62,1.14-1.97,8.16-5.91,8.16-5.91,0,0,.1,8.05-1.04,10.02Z"/>
              <path class="cls-6" d="M42.37,91.5c-.64-1.66-.25-3.42.87-3.91,1.12-.5,2.54.45,3.17,2.12.64,1.66.25,3.42-.86,3.91-1.12.5-2.54-.45-3.17-2.12Z"/>
            </g>
            <g>
              <path class="cls-13" d="M66.56,92.18c-1.14,1.96-3.65,2.64-5.62,1.5-1.97-1.13-2.64-3.65-1.5-5.62,1.14-1.97,8.16-5.91,8.16-5.91,0,0,.1,8.05-1.04,10.02Z"/>
              <path class="cls-7" d="M59.56,91.5c-.64-1.66-.25-3.42.87-3.91,1.12-.5,2.54.45,3.17,2.12.64,1.66.25,3.42-.87,3.91-1.12.5-2.54-.45-3.17-2.12Z"/>
            </g>
          </g>
        </g>
      </g>
    </g>
  </g>
</svg>