<svg viewBox="0 0 92.11 79.79" xmlns="http://www.w3.org/2000/svg" xmlns:xlink="http://www.w3.org/1999/xlink"><radialGradient id="a" cx="57.67" cy="13.78" gradientTransform="matrix(-1 0 0 -.73 115.34 23.84)" gradientUnits="userSpaceOnUse" r="70.26"><stop offset="0" stop-color="#fff"/><stop offset=".2" stop-color="#d5f3ff"/><stop offset="1" stop-color="#85bcf1"/></radialGradient><linearGradient id="b"><stop offset="0" stop-color="#fff"/><stop offset=".1" stop-color="#fff" stop-opacity=".85"/><stop offset=".29" stop-color="#fff" stop-opacity=".59"/><stop offset=".47" stop-color="#fff" stop-opacity=".38"/><stop offset=".63" stop-color="#fff" stop-opacity=".22"/><stop offset=".78" stop-color="#fff" stop-opacity=".1"/><stop offset=".91" stop-color="#fff" stop-opacity=".03"/><stop offset="1" stop-color="#fff" stop-opacity="0"/></linearGradient><radialGradient id="c" cx="1441.47" cy="-1686" fx="1441.47" fy="-1686" gradientTransform="matrix(-.84113854 1.15645404 -1.61768823 -1.31205248 -1466.12 -3858.05)" gradientUnits="userSpaceOnUse" r="8.48" xlink:href="#b"/><radialGradient id="d" cx="1441.21" cy="-1701.66" fx="1441.21" fy="-1701.66" r="6.66" xlink:href="#c"/><radialGradient id="e" cx="10.93" cy="51.53" gradientTransform="matrix(.90100132 -.43381635 1.26240557 2.62191384 -63.98 -78.88)" gradientUnits="userSpaceOnUse" r="4.87" xlink:href="#b"/><radialGradient id="f" cx="-252.91" cy="139.87" fx="-252.91" fy="139.87" gradientTransform="matrix(.8660254 .5 -.5 .8660254 307.03 82.13)" gradientUnits="userSpaceOnUse" r="9.89"><stop offset="0" stop-color="#d0f2ff"/><stop offset=".2" stop-color="#d5f3ff"/><stop offset="1" stop-color="#85bcf1"/></radialGradient><radialGradient id="g" cx="1642.93" cy="-1601.31" fx="1642.93" fy="-1601.31" gradientTransform="matrix(-1.30677574 .58072124 -.74459337 -1.94524488 966.71 -3991.9)" r="1.55" xlink:href="#c"/><radialGradient id="h" cx="-238.02" cy="131.27" fx="-238.02" fy="131.27" r="9.89" xlink:href="#f"/><radialGradient id="i" cx="1631.66" cy="-1604.66" fx="1631.66" fy="-1604.66" gradientTransform="matrix(-1.30677574 .58072124 -.74459337 -1.94524488 966.71 -3991.9)" r="1.55" xlink:href="#c"/><radialGradient id="j" cx="-223.13" cy="122.68" fx="-223.13" fy="122.68" r="9.89" xlink:href="#f"/><radialGradient id="k" cx="1620.39" cy="-1608.02" fx="1620.39" fy="-1608.02" gradientTransform="matrix(-1.30677574 .58072124 -.74459337 -1.94524488 966.71 -3991.9)" r="1.55" xlink:href="#c"/><radialGradient id="l" cx="-208.24" cy="114.08" fx="-208.24" fy="114.08" r="9.89" xlink:href="#f"/><radialGradient id="m" cx="1609.12" cy="-1611.37" fx="1609.12" fy="-1611.37" gradientTransform="matrix(-1.30677574 .58072124 -.74459337 -1.94524488 966.71 -3991.9)" r="1.55" xlink:href="#c"/><path d="m73 25.15c-.96-14.05-12.65-25.15-26.94-25.15s-25.98 11.1-26.94 25.15c-10.65.52-19.12 9.32-19.12 20.09s9.01 20.12 20.12 20.12h51.86c11.11 0 20.12-9.01 20.12-20.12s-8.47-19.57-19.11-20.1z" fill="url(#a)"/><path d="m46.06 27.65c-7.58-6.15-10.53-15.5-6.61-20.9 3.93-5.4 13.26-4.79 20.83 1.35s10.53 15.51 6.6 20.9c-3.93 5.4-13.26 4.79-20.83-1.35z" fill="url(#c)"/><path d="m73.14 45.81c-5.95-4.83-8.28-12.19-5.19-16.43 3.09-4.25 10.42-3.77 16.37 1.06s8.27 12.19 5.19 16.43c-3.09 4.25-10.42 3.77-16.37-1.06z" fill="url(#d)" opacity=".4"/><path d="m14.39 46.49c-4.39-6.85-9.5-10.15-11.41-7.37-1.9 2.78.11 10.59 4.5 17.44 4.4 6.85 9.5 10.15 11.41 7.37 1.91-2.79-.11-10.59-4.5-17.45z" fill="url(#e)" opacity=".2"/><path d="m23.58 77.73c-1.14 1.97-3.65 2.64-5.62 1.5-1.97-1.13-2.64-3.65-1.5-5.62s8.16-5.91 8.16-5.91.1 8.05-1.04 10.02z" fill="url(#f)"/><path d="m16.58 77.05c-.64-1.66-.25-3.42.87-3.91 1.12-.5 2.54.45 3.17 2.12.64 1.67.25 3.42-.87 3.91-1.12.5-2.54-.45-3.17-2.12z" fill="url(#g)"/><path d="m40.78 77.73c-1.14 1.97-3.65 2.64-5.62 1.5-1.97-1.13-2.64-3.65-1.5-5.62s8.16-5.91 8.16-5.91.1 8.05-1.04 10.02z" fill="url(#h)"/><path d="m33.77 77.05c-.64-1.66-.25-3.42.87-3.91 1.12-.5 2.54.45 3.17 2.12.64 1.67.25 3.42-.86 3.91-1.12.5-2.54-.45-3.17-2.12z" fill="url(#i)"/><path d="m57.97 77.73c-1.14 1.97-3.65 2.64-5.62 1.5-1.97-1.13-2.64-3.65-1.5-5.62s8.16-5.91 8.16-5.91.1 8.05-1.04 10.02z" fill="url(#j)"/><path d="m50.97 77.05c-.64-1.66-.25-3.42.87-3.91 1.12-.5 2.54.45 3.17 2.12s.25 3.42-.86 3.91c-1.12.5-2.54-.45-3.17-2.12z" fill="url(#k)"/><path d="m75.16 77.73c-1.14 1.97-3.65 2.64-5.62 1.5-1.97-1.13-2.64-3.65-1.5-5.62s8.16-5.91 8.16-5.91.1 8.05-1.04 10.02z" fill="url(#l)"/><path d="m68.16 77.05c-.64-1.66-.25-3.42.87-3.91 1.12-.5 2.54.45 3.17 2.12.64 1.67.25 3.42-.87 3.91-1.12.5-2.54-.45-3.17-2.12z" fill="url(#m)"/></svg>