<svg viewBox="0 0 120.59 111.05" xmlns="http://www.w3.org/2000/svg" xmlns:xlink="http://www.w3.org/1999/xlink"><radialGradient id="a" cx="376.56" cy="26.56" fx="376.56" fy="26.56" gradientTransform="matrix(-1 0 0 1 459.6 0)" gradientUnits="userSpaceOnUse" r="52.4"><stop offset="0" stop-color="#fff8c7"/><stop offset=".16" stop-color="#ffe436"/><stop offset="1" stop-color="#fe761c"/></radialGradient><linearGradient id="b"><stop offset="0" stop-color="#fff"/><stop offset=".1" stop-color="#fff" stop-opacity=".85"/><stop offset=".29" stop-color="#fff" stop-opacity=".59"/><stop offset=".47" stop-color="#fff" stop-opacity=".38"/><stop offset=".63" stop-color="#fff" stop-opacity=".22"/><stop offset=".78" stop-color="#fff" stop-opacity=".1"/><stop offset=".91" stop-color="#fff" stop-opacity=".03"/><stop offset="1" stop-color="#fff" stop-opacity="0"/></linearGradient><radialGradient id="c" cx="1484.92" cy="-1823.25" fx="1484.92" fy="-1823.25" gradientTransform="matrix(-.84113854 1.15645404 -1.61768823 -1.31205248 -1617.43 -4074.24)" gradientUnits="userSpaceOnUse" r="7.87" xlink:href="#b"/><radialGradient id="d" cx="-2564.41" cy="2614.43" fx="-2564.41" fy="2614.43" gradientTransform="matrix(-1.17344712 -1.10232566 .21979136 -.72650768 -3523.9 -860.24)" gradientUnits="userSpaceOnUse" r="7.59" xlink:href="#b"/><radialGradient id="e" cx="77.34" cy="1.69" fx="77.34" fy="1.69" r="9.12" xlink:href="#a"/><radialGradient id="f" cx="528.92" cy="-412.93" fx="528.92" fy="-412.93" gradientTransform="matrix(.70710678 -.70710678 .70710678 .70710678 -34.68 679.59)" r="9.12" xlink:href="#a"/><radialGradient id="g" cx="1141.33" cy="-386.97" fx="1141.33" fy="-386.97" gradientTransform="matrix(0 -1 1 0 421.52 1184.59)" r="9.12" xlink:href="#a"/><radialGradient id="h" cx="1556.11" cy="64.61" fx="1556.11" fy="64.61" gradientTransform="matrix(-.70710678 -.70710678 .70710678 -.70710678 1101.12 1219.27)" r="9.12" xlink:href="#a"/><radialGradient id="i" cx="1529.99" cy="677.02" fx="1529.99" fy="677.02" gradientTransform="matrix(-1 0 0 -1 1606.11 763.06)" r="9.12" xlink:href="#a"/><radialGradient id="j" cx="1078.57" cy="1091.8" fx="1078.57" fy="1091.8" gradientTransform="matrix(-.70710678 .70710678 -.70710678 -.70710678 1640.79 83.47)" r="9.12" xlink:href="#a"/><radialGradient id="k" cx="466" cy="1065.69" fx="466" fy="1065.69" gradientTransform="matrix(0 1 -1 0 1184.59 -421.52)" r="9.12" xlink:href="#a"/><radialGradient id="l" cx="51.38" cy="614.27" fx="51.38" fy="614.27" gradientTransform="matrix(.70710678 .70710678 -.70710678 .70710678 505 -456.21)" r="9.12" xlink:href="#a"/><radialGradient id="m" cx="57.67" cy="45.04" gradientTransform="matrix(-1 0 0 -.73 115.34 77.94)" gradientUnits="userSpaceOnUse" r="70.26"><stop offset="0" stop-color="#fff"/><stop offset=".2" stop-color="#d5f3ff"/><stop offset="1" stop-color="#85bcf1"/></radialGradient><radialGradient id="n" cx="66.72" cy="49.03" gradientUnits="userSpaceOnUse" r="61.7"><stop offset="0" stop-color="#ffe036"/><stop offset=".08" stop-color="#fecb30" stop-opacity=".81"/><stop offset=".18" stop-color="#fcb52b" stop-opacity=".6"/><stop offset=".28" stop-color="#fca126" stop-opacity=".41"/><stop offset=".38" stop-color="#fb9122" stop-opacity=".26"/><stop offset=".48" stop-color="#fa851f" stop-opacity=".15"/><stop offset=".58" stop-color="#fa7c1d" stop-opacity=".07"/><stop offset=".68" stop-color="#fa771c" stop-opacity=".02"/><stop offset=".77" stop-color="#fa761c" stop-opacity="0"/></radialGradient><radialGradient id="o" cx="1509.48" cy="-1814.75" fx="1509.48" fy="-1814.75" r="8.48" xlink:href="#c"/><radialGradient id="p" cx="1509.22" cy="-1830.41" fx="1509.22" fy="-1830.41" r="6.66" xlink:href="#c"/><radialGradient id="q" cx="10.93" cy="82.79" fx="10.93" fy="82.79" gradientTransform="matrix(.90100132 -.43381635 1.26240557 2.62191384 -103.46 -129.62)" r="4.87" xlink:href="#d"/><radialGradient id="r" cx="-190.53" cy="154.42" fx="-190.53" fy="154.42" gradientTransform="matrix(.8660254 .5 -.5 .8660254 260.29 69.6)" gradientUnits="userSpaceOnUse" r="9.89"><stop offset="0" stop-color="#d0f2ff"/><stop offset=".2" stop-color="#d5f3ff"/><stop offset="1" stop-color="#85bcf1"/></radialGradient><radialGradient id="s" cx="1674.25" cy="-1749.57" fx="1674.25" fy="-1749.57" gradientTransform="matrix(-1.30677574 .58072124 -.74459337 -1.94524488 897.03 -4267.31)" r="1.55" xlink:href="#c"/><radialGradient id="t" cx="-175.64" cy="145.82" fx="-175.64" fy="145.82" r="9.89" xlink:href="#r"/><radialGradient id="u" cx="1662.98" cy="-1752.93" fx="1662.98" fy="-1752.93" gradientTransform="matrix(-1.30677574 .58072124 -.74459337 -1.94524488 897.03 -4267.31)" r="1.55" xlink:href="#c"/><radialGradient id="v" cx="-160.75" cy="137.23" fx="-160.75" fy="137.23" r="9.89" xlink:href="#r"/><radialGradient id="w" cx="1651.71" cy="-1756.28" fx="1651.71" fy="-1756.28" gradientTransform="matrix(-1.30677574 .58072124 -.74459337 -1.94524488 897.03 -4267.31)" r="1.55" xlink:href="#c"/><radialGradient id="x" cx="-145.86" cy="128.63" fx="-145.86" fy="128.63" r="9.89" xlink:href="#r"/><radialGradient id="y" cx="1640.44" cy="-1759.64" fx="1640.44" fy="-1759.64" gradientTransform="matrix(-1.30677574 .58072124 -.74459337 -1.94524488 897.03 -4267.31)" r="1.55" xlink:href="#c"/><path d="m49.12 43.86c0 15.25 12.36 27.61 27.6 27.61s27.61-12.36 27.61-27.61-12.36-27.6-27.61-27.6-27.6 12.36-27.6 27.6z" fill="url(#a)"/><path d="m80.93 41.03c-7.03-5.71-9.78-14.39-6.13-19.4s12.3-4.45 19.34 1.25c7.03 5.7 9.77 14.39 6.13 19.4-3.65 5.01-12.3 4.45-19.33-1.25z" fill="url(#c)"/><path d="m52.33 49.96c.93-3.05 5.66-1.79 10.58 2.83 4.91 4.61 8.14 10.83 7.21 13.88s-5.66 1.79-10.58-2.83c-4.91-4.62-8.14-10.83-7.21-13.88z" fill="url(#d)" opacity=".4"/><path d="m80.07 8.1c0 1.85-1.5 3.35-3.35 3.35-1.85 0-3.35-1.5-3.35-3.35v-4.75c0-1.85 1.5-3.35 3.35-3.35 1.85 0 3.35 1.5 3.35 3.35z" fill="url(#e)"/><path d="m53.8 16.21c1.31 1.31 1.31 3.43 0 4.73-1.31 1.31-3.43 1.31-4.74 0l-3.36-3.36c-1.31-1.31-1.31-3.43 0-4.74 1.31-1.31 3.43-1.31 4.74 0l3.36 3.36z" fill="url(#f)"/><path d="m40.96 40.52c1.85 0 3.35 1.5 3.35 3.35 0 1.85-1.5 3.35-3.35 3.35h-4.75c-1.85 0-3.35-1.5-3.35-3.35 0-1.85 1.5-3.35 3.35-3.35z" fill="url(#g)"/><path d="m49.07 66.79c1.31-1.31 3.43-1.31 4.73 0 1.31 1.31 1.31 3.43 0 4.73l-3.36 3.36c-1.31 1.31-3.43 1.31-4.74 0-1.31-1.31-1.31-3.43 0-4.74l3.36-3.36z" fill="url(#h)"/><path d="m73.38 79.63c0-1.85 1.5-3.35 3.35-3.35 1.85 0 3.35 1.5 3.35 3.35v4.75c0 1.85-1.5 3.35-3.35 3.35-1.85 0-3.35-1.5-3.35-3.35z" fill="url(#i)"/><path d="m99.65 71.52c-1.31-1.31-1.31-3.43 0-4.73 1.31-1.31 3.43-1.31 4.73 0l3.36 3.36c1.31 1.31 1.31 3.43 0 4.74-1.31 1.31-3.43 1.31-4.74 0l-3.36-3.36z" fill="url(#j)"/><path d="m112.49 47.21c-1.85 0-3.35-1.5-3.35-3.35 0-1.85 1.5-3.35 3.35-3.35h4.75c1.85 0 3.35 1.5 3.35 3.35 0 1.85-1.5 3.35-3.35 3.35z" fill="url(#k)"/><path d="m104.39 20.94c-1.31 1.31-3.43 1.31-4.73 0-1.31-1.31-1.31-3.42 0-4.73l3.36-3.36c1.31-1.31 3.43-1.31 4.74 0 1.31 1.31 1.31 3.43 0 4.74l-3.36 3.36z" fill="url(#l)"/><path d="m73 56.41c-.96-14.05-12.65-25.15-26.94-25.15s-25.98 11.1-26.94 25.15c-10.65.53-19.11 9.32-19.11 20.1s9.01 20.12 20.12 20.12h51.86c11.11 0 20.12-9.01 20.12-20.12s-8.47-19.57-19.11-20.1z" fill="url(#m)"/><path d="m73 56.41c-.96-14.05-12.65-25.15-26.94-25.15s-25.98 11.1-26.94 25.15c-10.65.53-19.11 9.32-19.11 20.1s9.01 20.12 20.12 20.12h51.86c11.11 0 20.12-9.01 20.12-20.12s-8.47-19.57-19.11-20.1z" fill="url(#n)"/><path d="m46.06 58.91c-7.58-6.15-10.53-15.5-6.61-20.9 3.93-5.4 13.26-4.79 20.83 1.35s10.53 15.51 6.6 20.9c-3.93 5.4-13.26 4.79-20.83-1.35z" fill="url(#o)"/><path d="m73.14 77.08c-5.95-4.83-8.28-12.18-5.19-16.43 3.09-4.24 10.42-3.77 16.37 1.06s8.27 12.19 5.19 16.43c-3.09 4.25-10.42 3.77-16.37-1.06z" fill="url(#p)" opacity=".4"/><path d="m14.39 77.75c-4.39-6.85-9.5-10.15-11.41-7.37-1.9 2.78.11 10.59 4.5 17.44 4.4 6.85 9.5 10.15 11.41 7.38 1.91-2.79-.11-10.59-4.5-17.45z" fill="url(#q)" opacity=".2"/><path d="m23.58 109c-1.14 1.97-3.65 2.64-5.62 1.5-1.97-1.13-2.64-3.65-1.5-5.62s8.16-5.91 8.16-5.91.1 8.05-1.04 10.02z" fill="url(#r)"/><path d="m16.58 108.31c-.64-1.67-.25-3.42.87-3.91 1.12-.5 2.54.45 3.17 2.12.64 1.66.25 3.42-.87 3.91-1.12.5-2.54-.45-3.17-2.12z" fill="url(#s)"/><path d="m40.78 109c-1.14 1.97-3.65 2.64-5.62 1.5-1.97-1.13-2.64-3.65-1.5-5.62s8.16-5.91 8.16-5.91.1 8.05-1.04 10.02z" fill="url(#t)"/><path d="m33.77 108.31c-.64-1.67-.25-3.42.87-3.91 1.12-.5 2.54.45 3.17 2.12.64 1.66.25 3.42-.86 3.91-1.12.5-2.54-.45-3.17-2.12z" fill="url(#u)"/><path d="m57.97 109c-1.14 1.97-3.65 2.64-5.62 1.5-1.97-1.13-2.64-3.65-1.5-5.62s8.16-5.91 8.16-5.91.1 8.05-1.04 10.02z" fill="url(#v)"/><path d="m50.97 108.31c-.64-1.67-.25-3.42.87-3.91 1.12-.5 2.54.45 3.17 2.12.64 1.66.25 3.42-.86 3.91-1.12.5-2.54-.45-3.17-2.12z" fill="url(#w)"/><path d="m75.16 109c-1.14 1.97-3.65 2.64-5.62 1.5-1.97-1.13-2.64-3.65-1.5-5.62s8.16-5.91 8.16-5.91.1 8.05-1.04 10.02z" fill="url(#x)"/><path d="m68.16 108.31c-.64-1.67-.25-3.42.87-3.91 1.12-.5 2.54.45 3.17 2.12.64 1.66.25 3.42-.87 3.91-1.12.5-2.54-.45-3.17-2.12z" fill="url(#y)"/></svg>