<?xml version="1.0" encoding="UTF-8"?>
<svg xmlns="http://www.w3.org/2000/svg" xmlns:xlink="http://www.w3.org/1999/xlink" viewBox="0 0 120.59 111.05">
  <defs>
    <style>
      .cls-1 {
        fill: url(#radial-gradient-10);
      }

      .cls-2 {
        fill: url(#radial-gradient-20);
      }

      .cls-2, .cls-3, .cls-4, .cls-5, .cls-6, .cls-7, .cls-8, .cls-9, .cls-10 {
        mix-blend-mode: overlay;
      }

      .cls-3 {
        fill: url(#radial-gradient-2);
      }

      .cls-11 {
        fill: url(#radial-gradient-9);
      }

      .cls-4 {
        fill: url(#radial-gradient-14);
      }

      .cls-4, .cls-8 {
        opacity: .4;
      }

      .cls-5 {
        fill: url(#radial-gradient-22);
      }

      .cls-6 {
        fill: url(#radial-gradient-18);
      }

      .cls-12 {
        fill: url(#radial-gradient-5);
      }

      .cls-13 {
        fill: url(#radial-gradient);
      }

      .cls-14 {
        fill: url(#radial-gradient-3);
      }

      .cls-15 {
        isolation: isolate;
      }

      .cls-7 {
        fill: url(#radial-gradient-16);
      }

      .cls-16 {
        fill: url(#radial-gradient-11);
      }

      .cls-17 {
        fill: url(#radial-gradient-8);
      }

      .cls-18 {
        fill: url(#radial-gradient-21);
      }

      .cls-19 {
        fill: url(#radial-gradient-4);
      }

      .cls-20 {
        fill: url(#radial-gradient-12);
      }

      .cls-21 {
        fill: url(#radial-gradient-19);
      }

      .cls-22 {
        fill: url(#radial-gradient-15);
      }

      .cls-8 {
        fill: url(#Degradado_sin_nombre_34);
      }

      .cls-9 {
        fill: url(#Degradado_sin_nombre_34-2);
        opacity: .2;
      }

      .cls-23 {
        fill: url(#radial-gradient-6);
      }

      .cls-24 {
        fill: url(#radial-gradient-7);
      }

      .cls-25 {
        fill: url(#radial-gradient-17);
      }

      .cls-10 {
        fill: url(#radial-gradient-13);
      }
    </style>
    <radialGradient id="radial-gradient" cx="376.56" cy="26.56" fx="376.56" fy="26.56" r="52.4" gradientTransform="translate(459.6) rotate(-180) scale(1 -1)" gradientUnits="userSpaceOnUse">
      <stop offset="0" stop-color="#fff8c7"/>
      <stop offset=".16" stop-color="#ffe436"/>
      <stop offset="1" stop-color="#fe761c"/>
    </radialGradient>
    <radialGradient id="radial-gradient-2" cx="1484.92" cy="-1823.25" fx="1484.92" fy="-1823.25" r="7.87" gradientTransform="translate(-1617.43 -4074.24) rotate(126.03) scale(1.43 2.08) skewX(-4.38)" gradientUnits="userSpaceOnUse">
      <stop offset="0" stop-color="#fff"/>
      <stop offset=".1" stop-color="#fff" stop-opacity=".85"/>
      <stop offset=".29" stop-color="#fff" stop-opacity=".59"/>
      <stop offset=".47" stop-color="#fff" stop-opacity=".38"/>
      <stop offset=".63" stop-color="#fff" stop-opacity=".22"/>
      <stop offset=".78" stop-color="#fff" stop-opacity=".1"/>
      <stop offset=".91" stop-color="#fff" stop-opacity=".03"/>
      <stop offset="1" stop-color="#fff" stop-opacity="0"/>
    </radialGradient>
    <radialGradient id="Degradado_sin_nombre_34" data-name="Degradado sin nombre 34" cx="-2564.41" cy="2614.43" fx="-2564.41" fy="2614.43" r="7.59" gradientTransform="translate(-3523.9 -860.24) rotate(-136.79) scale(1.61 .68) skewX(11.83)" gradientUnits="userSpaceOnUse">
      <stop offset="0" stop-color="#fff"/>
      <stop offset=".1" stop-color="#fff" stop-opacity=".85"/>
      <stop offset=".29" stop-color="#fff" stop-opacity=".59"/>
      <stop offset=".47" stop-color="#fff" stop-opacity=".38"/>
      <stop offset=".63" stop-color="#fff" stop-opacity=".22"/>
      <stop offset=".78" stop-color="#fff" stop-opacity=".1"/>
      <stop offset=".91" stop-color="#fff" stop-opacity=".03"/>
      <stop offset="1" stop-color="#fff" stop-opacity="0"/>
    </radialGradient>
    <radialGradient id="radial-gradient-3" cx="77.34" cy="1.69" fx="77.34" fy="1.69" r="9.12" gradientTransform="matrix(1,0,0,1,0,0)" xlink:href="#radial-gradient"/>
    <radialGradient id="radial-gradient-4" cx="528.92" cy="-412.93" fx="528.92" fy="-412.93" r="9.12" gradientTransform="translate(-34.68 679.59) rotate(-45)" xlink:href="#radial-gradient"/>
    <radialGradient id="radial-gradient-5" cx="1141.33" cy="-386.97" fx="1141.33" fy="-386.97" r="9.12" gradientTransform="translate(421.52 1184.59) rotate(-90)" xlink:href="#radial-gradient"/>
    <radialGradient id="radial-gradient-6" cx="1556.11" cy="64.61" fx="1556.11" fy="64.61" r="9.12" gradientTransform="translate(1101.12 1219.27) rotate(-135)" xlink:href="#radial-gradient"/>
    <radialGradient id="radial-gradient-7" cx="1529.99" cy="677.02" fx="1529.99" fy="677.02" r="9.12" gradientTransform="translate(1606.11 763.06) rotate(-180)" xlink:href="#radial-gradient"/>
    <radialGradient id="radial-gradient-8" cx="1078.57" cy="1091.8" fx="1078.57" fy="1091.8" r="9.12" gradientTransform="translate(1640.79 83.47) rotate(135)" xlink:href="#radial-gradient"/>
    <radialGradient id="radial-gradient-9" cx="466" cy="1065.69" fx="466" fy="1065.69" r="9.12" gradientTransform="translate(1184.59 -421.52) rotate(90)" xlink:href="#radial-gradient"/>
    <radialGradient id="radial-gradient-10" cx="51.38" cy="614.27" fx="51.38" fy="614.27" r="9.12" gradientTransform="translate(505 -456.21) rotate(45)" xlink:href="#radial-gradient"/>
    <radialGradient id="radial-gradient-11" cx="57.67" cy="45.04" fx="57.67" fy="45.04" r="70.26" gradientTransform="translate(115.34 77.94) rotate(-180) scale(1 .73)" gradientUnits="userSpaceOnUse">
      <stop offset="0" stop-color="#fff"/>
      <stop offset=".2" stop-color="#d5f3ff"/>
      <stop offset="1" stop-color="#85bcf1"/>
    </radialGradient>
    <radialGradient id="radial-gradient-12" cx="66.72" cy="49.03" fx="66.72" fy="49.03" r="61.7" gradientUnits="userSpaceOnUse">
      <stop offset="0" stop-color="#ffe036"/>
      <stop offset=".08" stop-color="#fecb30" stop-opacity=".81"/>
      <stop offset=".18" stop-color="#fcb52b" stop-opacity=".6"/>
      <stop offset=".28" stop-color="#fca126" stop-opacity=".41"/>
      <stop offset=".38" stop-color="#fb9122" stop-opacity=".26"/>
      <stop offset=".48" stop-color="#fa851f" stop-opacity=".15"/>
      <stop offset=".58" stop-color="#fa7c1d" stop-opacity=".07"/>
      <stop offset=".68" stop-color="#fa771c" stop-opacity=".02"/>
      <stop offset=".77" stop-color="#fa761c" stop-opacity="0"/>
    </radialGradient>
    <radialGradient id="radial-gradient-13" cx="1509.48" cy="-1814.75" fx="1509.48" fy="-1814.75" r="8.48" xlink:href="#radial-gradient-2"/>
    <radialGradient id="radial-gradient-14" cx="1509.22" cy="-1830.41" fx="1509.22" fy="-1830.41" r="6.66" xlink:href="#radial-gradient-2"/>
    <radialGradient id="Degradado_sin_nombre_34-2" data-name="Degradado sin nombre 34" cx="10.93" cy="82.79" fx="10.93" fy="82.79" r="4.87" gradientTransform="translate(-103.46 -129.62) rotate(-25.71) scale(1 2.91)" xlink:href="#Degradado_sin_nombre_34"/>
    <radialGradient id="radial-gradient-15" cx="-190.53" cy="154.42" fx="-190.53" fy="154.42" r="9.89" gradientTransform="translate(260.29 69.6) rotate(30)" gradientUnits="userSpaceOnUse">
      <stop offset="0" stop-color="#d0f2ff"/>
      <stop offset=".2" stop-color="#d5f3ff"/>
      <stop offset="1" stop-color="#85bcf1"/>
    </radialGradient>
    <radialGradient id="radial-gradient-16" cx="1674.25" cy="-1749.57" fx="1674.25" fy="-1749.57" r="1.55" gradientTransform="translate(897.03 -4267.31) rotate(156.04) scale(1.43 2.08) skewX(-4.38)" xlink:href="#radial-gradient-2"/>
    <radialGradient id="radial-gradient-17" cx="-175.64" cy="145.82" fx="-175.64" fy="145.82" r="9.89" xlink:href="#radial-gradient-15"/>
    <radialGradient id="radial-gradient-18" cx="1662.98" cy="-1752.93" fx="1662.98" fy="-1752.93" r="1.55" gradientTransform="translate(897.03 -4267.31) rotate(156.04) scale(1.43 2.08) skewX(-4.38)" xlink:href="#radial-gradient-2"/>
    <radialGradient id="radial-gradient-19" cx="-160.75" cy="137.23" fx="-160.75" fy="137.23" r="9.89" xlink:href="#radial-gradient-15"/>
    <radialGradient id="radial-gradient-20" cx="1651.71" cy="-1756.28" fx="1651.71" fy="-1756.28" r="1.55" gradientTransform="translate(897.03 -4267.31) rotate(156.04) scale(1.43 2.08) skewX(-4.38)" xlink:href="#radial-gradient-2"/>
    <radialGradient id="radial-gradient-21" cx="-145.86" cy="128.63" fx="-145.86" fy="128.63" r="9.89" xlink:href="#radial-gradient-15"/>
    <radialGradient id="radial-gradient-22" cx="1640.44" cy="-1759.64" fx="1640.44" fy="-1759.64" r="1.55" gradientTransform="translate(897.03 -4267.31) rotate(156.04) scale(1.43 2.08) skewX(-4.38)" xlink:href="#radial-gradient-2"/>
  </defs>
  <g class="cls-15">
    <g id="Layer_2">
      <g id="OBJECTS">
        <g>
          <g>
            <g>
              <path class="cls-13" d="M49.12,43.86c0,15.25,12.36,27.61,27.6,27.61s27.61-12.36,27.61-27.61-12.36-27.6-27.61-27.6-27.6,12.36-27.6,27.6Z"/>
              <g>
                <path class="cls-3" d="M80.93,41.03c-7.03-5.71-9.78-14.39-6.13-19.4,3.65-5.01,12.3-4.45,19.34,1.25,7.03,5.7,9.77,14.39,6.13,19.4-3.65,5.01-12.3,4.45-19.33-1.25Z"/>
                <path class="cls-8" d="M52.33,49.96c.93-3.05,5.66-1.79,10.58,2.83,4.91,4.61,8.14,10.83,7.21,13.88-.93,3.05-5.66,1.79-10.58-2.83-4.91-4.62-8.14-10.83-7.21-13.88Z"/>
              </g>
              <path class="cls-14" d="M80.07,8.1c0,1.85-1.5,3.35-3.35,3.35h0c-1.85,0-3.35-1.5-3.35-3.35V3.35c0-1.85,1.5-3.35,3.35-3.35h0c1.85,0,3.35,1.5,3.35,3.35v4.75Z"/>
              <path class="cls-19" d="M53.8,16.21c1.31,1.31,1.31,3.43,0,4.73h0c-1.31,1.31-3.43,1.31-4.74,0l-3.36-3.36c-1.31-1.31-1.31-3.43,0-4.74h0c1.31-1.31,3.43-1.31,4.74,0l3.36,3.36Z"/>
              <path class="cls-12" d="M40.96,40.52c1.85,0,3.35,1.5,3.35,3.35h0c0,1.85-1.5,3.35-3.35,3.35h-4.75c-1.85,0-3.35-1.5-3.35-3.35h0c0-1.85,1.5-3.35,3.35-3.35h4.75Z"/>
              <path class="cls-23" d="M49.07,66.79c1.31-1.31,3.43-1.31,4.73,0h0c1.31,1.31,1.31,3.43,0,4.73l-3.36,3.36c-1.31,1.31-3.43,1.31-4.74,0h0c-1.31-1.31-1.31-3.43,0-4.74l3.36-3.36Z"/>
              <path class="cls-24" d="M73.38,79.63c0-1.85,1.5-3.35,3.35-3.35h0c1.85,0,3.35,1.5,3.35,3.35v4.75c0,1.85-1.5,3.35-3.35,3.35h0c-1.85,0-3.35-1.5-3.35-3.35v-4.75Z"/>
              <path class="cls-17" d="M99.65,71.52c-1.31-1.31-1.31-3.43,0-4.73h0c1.31-1.31,3.43-1.31,4.73,0l3.36,3.36c1.31,1.31,1.31,3.43,0,4.74h0c-1.31,1.31-3.43,1.31-4.74,0l-3.36-3.36Z"/>
              <path class="cls-11" d="M112.49,47.21c-1.85,0-3.35-1.5-3.35-3.35h0c0-1.85,1.5-3.35,3.35-3.35h4.75c1.85,0,3.35,1.5,3.35,3.35h0c0,1.85-1.5,3.35-3.35,3.35h-4.75Z"/>
              <path class="cls-1" d="M104.39,20.94c-1.31,1.31-3.43,1.31-4.73,0h0c-1.31-1.31-1.31-3.42,0-4.73l3.36-3.36c1.31-1.31,3.43-1.31,4.74,0h0c1.31,1.31,1.31,3.43,0,4.74l-3.36,3.36Z"/>
            </g>
            <g>
              <path class="cls-16" d="M73,56.41c-.96-14.05-12.65-25.15-26.94-25.15s-25.98,11.1-26.94,25.15c-10.65.53-19.11,9.32-19.11,20.1s9.01,20.12,20.12,20.12h51.86c11.11,0,20.12-9.01,20.12-20.12s-8.47-19.57-19.11-20.1Z"/>
              <path class="cls-20" d="M73,56.41c-.96-14.05-12.65-25.15-26.94-25.15s-25.98,11.1-26.94,25.15c-10.65.53-19.11,9.32-19.11,20.1s9.01,20.12,20.12,20.12h51.86c11.11,0,20.12-9.01,20.12-20.12s-8.47-19.57-19.11-20.1Z"/>
              <path class="cls-10" d="M46.06,58.91c-7.58-6.15-10.53-15.5-6.61-20.9,3.93-5.4,13.26-4.79,20.83,1.35,7.57,6.14,10.53,15.51,6.6,20.9-3.93,5.4-13.26,4.79-20.83-1.35Z"/>
              <path class="cls-4" d="M73.14,77.08c-5.95-4.83-8.28-12.18-5.19-16.43,3.09-4.24,10.42-3.77,16.37,1.06,5.95,4.83,8.27,12.19,5.19,16.43-3.09,4.25-10.42,3.77-16.37-1.06Z"/>
              <path class="cls-9" d="M14.39,77.75c-4.39-6.85-9.5-10.15-11.41-7.37-1.9,2.78.11,10.59,4.5,17.44,4.4,6.85,9.5,10.15,11.41,7.38,1.91-2.79-.11-10.59-4.5-17.45Z"/>
            </g>
          </g>
          <g>
            <g>
              <path class="cls-22" d="M23.58,109c-1.14,1.97-3.65,2.64-5.62,1.5-1.97-1.13-2.64-3.65-1.5-5.62,1.14-1.97,8.16-5.91,8.16-5.91,0,0,.1,8.05-1.04,10.02Z"/>
              <path class="cls-7" d="M16.58,108.31c-.64-1.67-.25-3.42.87-3.91,1.12-.5,2.54.45,3.17,2.12.64,1.66.25,3.42-.87,3.91-1.12.5-2.54-.45-3.17-2.12Z"/>
            </g>
            <g>
              <path class="cls-25" d="M40.78,109c-1.14,1.97-3.65,2.64-5.62,1.5-1.97-1.13-2.64-3.65-1.5-5.62,1.14-1.97,8.16-5.91,8.16-5.91,0,0,.1,8.05-1.04,10.02Z"/>
              <path class="cls-6" d="M33.77,108.31c-.64-1.67-.25-3.42.87-3.91,1.12-.5,2.54.45,3.17,2.12.64,1.66.25,3.42-.86,3.91-1.12.5-2.54-.45-3.17-2.12Z"/>
            </g>
            <g>
              <path class="cls-21" d="M57.97,109c-1.14,1.97-3.65,2.64-5.62,1.5-1.97-1.13-2.64-3.65-1.5-5.62,1.14-1.97,8.16-5.91,8.16-5.91,0,0,.1,8.05-1.04,10.02Z"/>
              <path class="cls-2" d="M50.97,108.31c-.64-1.67-.25-3.42.87-3.91,1.12-.5,2.54.45,3.17,2.12.64,1.66.25,3.42-.86,3.91-1.12.5-2.54-.45-3.17-2.12Z"/>
            </g>
            <g>
              <path class="cls-18" d="M75.16,109c-1.14,1.97-3.65,2.64-5.62,1.5-1.97-1.13-2.64-3.65-1.5-5.62,1.14-1.97,8.16-5.91,8.16-5.91,0,0,.1,8.05-1.04,10.02Z"/>
              <path class="cls-5" d="M68.16,108.31c-.64-1.67-.25-3.42.87-3.91,1.12-.5,2.54.45,3.17,2.12.64,1.66.25,3.42-.87,3.91-1.12.5-2.54-.45-3.17-2.12Z"/>
            </g>
          </g>
        </g>
      </g>
    </g>
  </g>
</svg>