<svg viewBox="0 0 106.77 97.61" xmlns="http://www.w3.org/2000/svg" xmlns:xlink="http://www.w3.org/1999/xlink"><radialGradient id="a" cx="146.66" cy="26.56" fx="146.66" fy="26.56" gradientTransform="matrix(-1 0 0 1 207.02 0)" gradientUnits="userSpaceOnUse" r="52.4"><stop offset="0" stop-color="#fff8c7"/><stop offset=".16" stop-color="#ffe436"/><stop offset="1" stop-color="#fe761c"/></radialGradient><linearGradient id="b"><stop offset="0" stop-color="#fff"/><stop offset=".1" stop-color="#fff" stop-opacity=".85"/><stop offset=".29" stop-color="#fff" stop-opacity=".59"/><stop offset=".47" stop-color="#fff" stop-opacity=".38"/><stop offset=".63" stop-color="#fff" stop-opacity=".22"/><stop offset=".78" stop-color="#fff" stop-opacity=".1"/><stop offset=".91" stop-color="#fff" stop-opacity=".03"/><stop offset="1" stop-color="#fff" stop-opacity="0"/></linearGradient><radialGradient id="c" cx="1383.16" cy="-2029" fx="1383.16" fy="-2029" gradientTransform="matrix(-.84113854 1.15645404 -1.61768823 -1.31205248 -2058.53 -4226.92)" gradientUnits="userSpaceOnUse" r="7.87" xlink:href="#b"/><radialGradient id="d" cx="-2785.54" cy="2451.59" fx="-2785.54" fy="2451.59" gradientTransform="matrix(-1.17344712 -1.10232566 .21979136 -.72650768 -3769.52 -1222.23)" gradientUnits="userSpaceOnUse" r="7.59" xlink:href="#b"/><radialGradient id="e" cx="54.66" cy="1.69" fx="54.66" fy="1.69" r="9.12" xlink:href="#a"/><radialGradient id="f" cx="384.66" cy="-377.45" fx="384.66" fy="-377.45" gradientTransform="matrix(.70710678 -.70710678 .70710678 .70710678 19.56 552.5)" r="9.12" xlink:href="#a"/><radialGradient id="g" cx="886.02" cy="-412.38" fx="886.02" fy="-412.38" gradientTransform="matrix(0 -1 1 0 424.25 929.28)" r="9.12" xlink:href="#a"/><radialGradient id="h" cx="1265.32" cy="-82.38" fx="1265.32" fy="-82.38" gradientTransform="matrix(-.70710678 -.70710678 .70710678 -.70710678 976.75 909.72)" r="9.12" xlink:href="#a"/><radialGradient id="i" cx="1300.09" cy="418.98" fx="1300.09" fy="418.98" gradientTransform="matrix(-1 0 0 -1 1353.53 505.03)" r="9.12" xlink:href="#a"/><radialGradient id="j" cx="970.25" cy="798.29" fx="970.25" fy="798.29" gradientTransform="matrix(-.70710678 .70710678 -.70710678 -.70710678 1333.97 -47.47)" r="9.12" xlink:href="#a"/><radialGradient id="k" cx="468.73" cy="833.06" fx="468.73" fy="833.06" gradientTransform="matrix(0 1 -1 0 929.28 -424.25)" r="9.12" xlink:href="#a"/><radialGradient id="l" cx="89.59" cy="503.22" fx="89.59" fy="503.22" gradientTransform="matrix(.70710678 .70710678 -.70710678 .70710678 376.78 -404.7)" r="9.12" xlink:href="#a"/><radialGradient id="m" cx="30.41" cy="53.69" fx="30.41" fy="53.69" gradientTransform="matrix(-1 0 0 -.73 60.81 92.9)" gradientUnits="userSpaceOnUse" r="37.04"><stop offset="0" stop-color="#fff"/><stop offset=".2" stop-color="#d5f3ff"/><stop offset="1" stop-color="#85bcf1"/></radialGradient><radialGradient id="n" cx="38.81" cy="58.52" fx="38.81" fy="58.52" gradientUnits="userSpaceOnUse" r="42.11"><stop offset="0" stop-color="#ffe036"/><stop offset=".08" stop-color="#fecb30" stop-opacity=".81"/><stop offset=".18" stop-color="#fcb52b" stop-opacity=".6"/><stop offset=".28" stop-color="#fca126" stop-opacity=".41"/><stop offset=".38" stop-color="#fb9122" stop-opacity=".26"/><stop offset=".48" stop-color="#fa851f" stop-opacity=".15"/><stop offset=".58" stop-color="#fa7c1d" stop-opacity=".07"/><stop offset=".68" stop-color="#fa771c" stop-opacity=".02"/><stop offset=".77" stop-color="#fa761c" stop-opacity="0"/></radialGradient><radialGradient id="o" cx="1412.47" cy="-2021.44" fx="1412.47" fy="-2021.44" r="4.47" xlink:href="#c"/><radialGradient id="p" cx="1412.33" cy="-2029.7" fx="1412.33" fy="-2029.7" r="3.51" xlink:href="#c"/><radialGradient id="q" cx="5.77" cy="73.59" fx="5.77" fy="73.59" gradientTransform="matrix(.90100132 -.43381635 1.26240557 2.62191384 -92.36 -116.93)" r="2.57" xlink:href="#d"/><radialGradient id="r" cx="92.71" cy="25.17" fx="92.71" fy="25.17" gradientTransform="matrix(-1 0 0 -.73 185.43 43.56)" r="28.68" xlink:href="#m"/><radialGradient id="s" cx="73.98" cy="35.02" fx="73.98" fy="35.02" r="38.33" xlink:href="#n"/><radialGradient id="t" cx="1368.87" cy="-2037.67" fx="1368.87" fy="-2037.67" r="3.46" xlink:href="#c"/><radialGradient id="u" cx="1368.77" cy="-2044.06" fx="1368.77" fy="-2044.06" r="2.72" xlink:href="#c"/><radialGradient id="v" cx="73.64" cy="40.58" fx="73.64" fy="40.58" gradientTransform="matrix(.90100132 -.43381635 1.26240557 2.62191384 -43.96 -33.92)" r="1.99" xlink:href="#d"/><radialGradient id="w" cx="-143.31" cy="58.68" fx="-143.31" fy="58.68" gradientTransform="matrix(.8660254 .5 -.5 .8660254 178.86 115.46)" gradientUnits="userSpaceOnUse" r="9.89"><stop offset="0" stop-color="#d0f2ff"/><stop offset=".2" stop-color="#d5f3ff"/><stop offset="1" stop-color="#85bcf1"/></radialGradient><radialGradient id="x" cx="1489.39" cy="-1955.42" fx="1489.39" fy="-1955.42" gradientTransform="matrix(-1.30677574 .58072124 -.74459337 -1.94524488 509.94 -4574.22)" r="1.55" xlink:href="#c"/><radialGradient id="y" cx="-128.42" cy="50.08" fx="-128.42" fy="50.08" r="9.89" xlink:href="#w"/><radialGradient id="z" cx="1478.12" cy="-1958.77" fx="1478.12" fy="-1958.77" gradientTransform="matrix(-1.30677574 .58072124 -.74459337 -1.94524488 509.94 -4574.22)" r="1.55" xlink:href="#c"/><radialGradient id="A" cx="-113.53" cy="41.48" fx="-113.53" fy="41.48" r="9.89" xlink:href="#w"/><radialGradient id="B" cx="1466.85" cy="-1962.13" fx="1466.85" fy="-1962.13" gradientTransform="matrix(-1.30677574 .58072124 -.74459337 -1.94524488 509.94 -4574.22)" r="1.55" xlink:href="#c"/><radialGradient id="C" cx="-98.64" cy="32.89" fx="-98.64" fy="32.89" r="9.89" xlink:href="#w"/><radialGradient id="D" cx="1455.58" cy="-1965.48" fx="1455.58" fy="-1965.48" gradientTransform="matrix(-1.30677574 .58072124 -.74459337 -1.94524488 509.94 -4574.22)" r="1.55" xlink:href="#c"/><path d="m26.44 43.86c0 15.25 12.36 27.61 27.6 27.61s27.61-12.36 27.61-27.61-12.36-27.6-27.61-27.6-27.6 12.36-27.6 27.6z" fill="url(#a)"/><path d="m58.26 41.03c-7.03-5.71-9.78-14.39-6.13-19.4s12.3-4.45 19.34 1.25c7.03 5.7 9.77 14.39 6.13 19.4-3.65 5.01-12.3 4.45-19.33-1.25z" fill="url(#c)"/><path d="m29.65 49.96c.93-3.05 5.66-1.79 10.58 2.83 4.91 4.61 8.14 10.83 7.21 13.88s-5.66 1.79-10.58-2.83c-4.91-4.62-8.14-10.83-7.21-13.88z" fill="url(#d)" opacity=".4"/><path d="m57.4 8.1c0 1.85-1.5 3.35-3.35 3.35-1.85 0-3.35-1.5-3.35-3.35v-4.75c0-1.85 1.5-3.35 3.35-3.35 1.85 0 3.35 1.5 3.35 3.35z" fill="url(#e)"/><path d="m31.13 16.21c1.31 1.31 1.31 3.43 0 4.73-1.31 1.31-3.43 1.31-4.74 0l-3.36-3.36c-1.31-1.31-1.31-3.43 0-4.74 1.31-1.31 3.43-1.31 4.74 0l3.36 3.36z" fill="url(#f)"/><path d="m18.28 40.52c1.85 0 3.35 1.5 3.35 3.35 0 1.85-1.5 3.35-3.35 3.35h-4.75c-1.85 0-3.35-1.5-3.35-3.35 0-1.85 1.5-3.35 3.35-3.35z" fill="url(#g)"/><path d="m26.39 66.79c1.31-1.31 3.43-1.31 4.73 0 1.31 1.31 1.31 3.43 0 4.73l-3.36 3.36c-1.31 1.31-3.43 1.31-4.74 0-1.31-1.31-1.31-3.43 0-4.74l3.36-3.36z" fill="url(#h)"/><path d="m50.7 79.63c0-1.85 1.5-3.35 3.35-3.35 1.85 0 3.35 1.5 3.35 3.35v4.75c0 1.85-1.5 3.35-3.35 3.35-1.85 0-3.35-1.5-3.35-3.35z" fill="url(#i)"/><path d="m76.98 71.52c-1.31-1.31-1.31-3.43 0-4.73 1.31-1.31 3.43-1.31 4.73 0l3.36 3.36c1.31 1.31 1.31 3.43 0 4.74-1.31 1.31-3.43 1.31-4.74 0l-3.36-3.36z" fill="url(#j)"/><path d="m89.82 47.21c-1.85 0-3.35-1.5-3.35-3.35 0-1.85 1.5-3.35 3.35-3.35h4.75c1.85 0 3.35 1.5 3.35 3.35 0 1.85-1.5 3.35-3.35 3.35z" fill="url(#k)"/><path d="m81.71 20.94c-1.31 1.31-3.43 1.31-4.73 0-1.31-1.31-1.31-3.42 0-4.73l3.36-3.36c1.31-1.31 3.43-1.31 4.74 0 1.31 1.31 1.31 3.43 0 4.74l-3.36 3.36z" fill="url(#l)"/><path d="m38.49 59.68c-.51-7.41-6.67-13.26-14.2-13.26s-13.7 5.85-14.2 13.26c-5.61.28-10.08 4.92-10.08 10.6s4.75 10.61 10.61 10.61h27.34c5.86 0 10.61-4.75 10.61-10.61s-4.47-10.32-10.08-10.6z" fill="url(#m)"/><path d="m38.49 59.68c-.51-7.41-6.67-13.26-14.2-13.26s-13.7 5.85-14.2 13.26c-5.61.28-10.08 4.92-10.08 10.6s4.75 10.61 10.61 10.61h27.34c5.86 0 10.61-4.75 10.61-10.61s-4.47-10.32-10.08-10.6z" fill="url(#n)"/><path d="m24.28 61c-3.99-3.24-5.55-8.17-3.48-11.02s6.99-2.53 10.98.71 5.55 8.18 3.48 11.02c-2.07 2.85-6.99 2.53-10.98-.71z" fill="url(#o)"/><path d="m38.56 70.58c-3.14-2.55-4.36-6.42-2.74-8.66 1.63-2.24 5.49-1.99 8.63.56s4.36 6.43 2.74 8.66c-1.63 2.24-5.49 1.99-8.63-.56z" fill="url(#p)" opacity=".4"/><path d="m7.59 70.93c-2.32-3.61-5.01-5.35-6.01-3.89s.06 5.58 2.37 9.2c2.32 3.61 5.01 5.36 6.01 3.89s-.06-5.58-2.37-9.2z" fill="url(#q)" opacity=".2"/><path d="m98.97 29.82c-.39-5.73-5.16-10.27-11-10.27s-10.61 4.53-11 10.27c-4.34.21-7.8 3.81-7.8 8.2s3.68 8.22 8.21 8.22h21.17c4.54 0 8.21-3.68 8.21-8.22s-3.46-7.99-7.8-8.2z" fill="url(#r)"/><path d="m98.97 29.82c-.39-5.73-5.16-10.27-11-10.27s-10.61 4.53-11 10.27c-4.34.21-7.8 3.81-7.8 8.2s3.68 8.22 8.21 8.22h21.17c4.54 0 8.21-3.68 8.21-8.22s-3.46-7.99-7.8-8.2z" fill="url(#s)"/><path d="m87.97 30.84c-3.09-2.51-4.3-6.33-2.7-8.53s5.41-1.96 8.51.55c3.09 2.51 4.3 6.33 2.7 8.54-1.61 2.21-5.41 1.96-8.5-.55z" fill="url(#t)"/><path d="m99.03 38.25c-2.43-1.97-3.38-4.97-2.12-6.71 1.26-1.73 4.25-1.54 6.68.43s3.38 4.98 2.12 6.71-4.25 1.54-6.68-.43z" fill="url(#u)" opacity=".4"/><path d="m75.05 38.53c-1.79-2.8-3.88-4.14-4.66-3.01s.05 4.32 1.84 7.12 3.88 4.14 4.66 3.01c.78-1.14-.04-4.32-1.84-7.12z" fill="url(#v)" opacity=".2"/><path d="m30.91 95.55c-1.14 1.97-3.65 2.64-5.62 1.5-1.97-1.13-2.64-3.65-1.5-5.62s8.16-5.91 8.16-5.91.1 8.05-1.04 10.02z" fill="url(#w)"/><path d="m23.91 94.87c-.64-1.66-.25-3.42.87-3.91 1.12-.5 2.54.45 3.17 2.12.64 1.67.25 3.42-.86 3.91-1.12.5-2.54-.45-3.17-2.12z" fill="url(#x)"/><path d="m48.11 95.55c-1.14 1.97-3.65 2.64-5.62 1.5-1.97-1.13-2.64-3.65-1.5-5.62s8.16-5.91 8.16-5.91.1 8.05-1.04 10.02z" fill="url(#y)"/><path d="m41.11 94.87c-.64-1.66-.25-3.42.87-3.91 1.12-.5 2.54.45 3.17 2.12.64 1.67.25 3.42-.87 3.91-1.12.5-2.54-.45-3.17-2.12z" fill="url(#z)"/><path d="m65.3 95.55c-1.14 1.97-3.65 2.64-5.62 1.5-1.97-1.13-2.64-3.65-1.5-5.62s8.16-5.91 8.16-5.91.1 8.05-1.04 10.02z" fill="url(#A)"/><path d="m58.3 94.87c-.64-1.66-.25-3.42.87-3.91 1.12-.5 2.54.45 3.17 2.12.64 1.67.25 3.42-.86 3.91-1.12.5-2.54-.45-3.17-2.12z" fill="url(#B)"/><path d="m82.49 95.55c-1.14 1.97-3.65 2.64-5.62 1.5-1.97-1.13-2.64-3.65-1.5-5.62s8.16-5.91 8.16-5.91.1 8.05-1.04 10.02z" fill="url(#C)"/><path d="m75.49 94.87c-.64-1.66-.25-3.42.87-3.91 1.12-.5 2.54.45 3.17 2.12.64 1.67.25 3.42-.87 3.91-1.12.5-2.54-.45-3.17-2.12z" fill="url(#D)"/></svg>