<?xml version="1.0" encoding="UTF-8"?>
<svg xmlns="http://www.w3.org/2000/svg" xmlns:xlink="http://www.w3.org/1999/xlink" viewBox="0 0 106.77 97.61">
  <defs>
    <style>
      .cls-1 {
        fill: url(#radial-gradient-10);
      }

      .cls-2 {
        fill: url(#radial-gradient-24);
      }

      .cls-2, .cls-3, .cls-4, .cls-5, .cls-6, .cls-7, .cls-8, .cls-9, .cls-10, .cls-11, .cls-12, .cls-13 {
        mix-blend-mode: overlay;
      }

      .cls-3 {
        fill: url(#radial-gradient-20);
      }

      .cls-4 {
        fill: url(#radial-gradient-2);
      }

      .cls-14 {
        fill: url(#radial-gradient-9);
      }

      .cls-5 {
        fill: url(#radial-gradient-14);
      }

      .cls-5, .cls-9, .cls-12 {
        opacity: .4;
      }

      .cls-6 {
        fill: url(#radial-gradient-22);
      }

      .cls-15 {
        fill: url(#radial-gradient-16);
      }

      .cls-16 {
        fill: url(#radial-gradient-5);
      }

      .cls-17 {
        fill: url(#radial-gradient);
      }

      .cls-18 {
        fill: url(#radial-gradient-3);
      }

      .cls-19 {
        isolation: isolate;
      }

      .cls-20 {
        fill: url(#radial-gradient-11);
      }

      .cls-21 {
        fill: url(#radial-gradient-8);
      }

      .cls-22 {
        fill: url(#radial-gradient-23);
      }

      .cls-23 {
        fill: url(#radial-gradient-21);
      }

      .cls-24 {
        fill: url(#radial-gradient-4);
      }

      .cls-7 {
        fill: url(#Degradado_sin_nombre_34-3);
      }

      .cls-7, .cls-11 {
        opacity: .2;
      }

      .cls-25 {
        fill: url(#radial-gradient-25);
      }

      .cls-26 {
        fill: url(#radial-gradient-12);
      }

      .cls-27 {
        fill: url(#radial-gradient-19);
      }

      .cls-8 {
        fill: url(#radial-gradient-26);
      }

      .cls-28 {
        fill: url(#radial-gradient-15);
      }

      .cls-9 {
        fill: url(#Degradado_sin_nombre_34);
      }

      .cls-10 {
        fill: url(#radial-gradient-17);
      }

      .cls-11 {
        fill: url(#Degradado_sin_nombre_34-2);
      }

      .cls-29 {
        fill: url(#radial-gradient-6);
      }

      .cls-30 {
        fill: url(#radial-gradient-7);
      }

      .cls-12 {
        fill: url(#radial-gradient-18);
      }

      .cls-13 {
        fill: url(#radial-gradient-13);
      }
    </style>
    <radialGradient id="radial-gradient" cx="146.66" cy="26.56" fx="146.66" fy="26.56" r="52.4" gradientTransform="translate(207.02) rotate(-180) scale(1 -1)" gradientUnits="userSpaceOnUse">
      <stop offset="0" stop-color="#fff8c7"/>
      <stop offset=".16" stop-color="#ffe436"/>
      <stop offset="1" stop-color="#fe761c"/>
    </radialGradient>
    <radialGradient id="radial-gradient-2" cx="1383.16" cy="-2029" fx="1383.16" fy="-2029" r="7.87" gradientTransform="translate(-2058.53 -4226.92) rotate(126.03) scale(1.43 2.08) skewX(-4.38)" gradientUnits="userSpaceOnUse">
      <stop offset="0" stop-color="#fff"/>
      <stop offset=".1" stop-color="#fff" stop-opacity=".85"/>
      <stop offset=".29" stop-color="#fff" stop-opacity=".59"/>
      <stop offset=".47" stop-color="#fff" stop-opacity=".38"/>
      <stop offset=".63" stop-color="#fff" stop-opacity=".22"/>
      <stop offset=".78" stop-color="#fff" stop-opacity=".1"/>
      <stop offset=".91" stop-color="#fff" stop-opacity=".03"/>
      <stop offset="1" stop-color="#fff" stop-opacity="0"/>
    </radialGradient>
    <radialGradient id="Degradado_sin_nombre_34" data-name="Degradado sin nombre 34" cx="-2785.54" cy="2451.59" fx="-2785.54" fy="2451.59" r="7.59" gradientTransform="translate(-3769.52 -1222.23) rotate(-136.79) scale(1.61 .68) skewX(11.83)" gradientUnits="userSpaceOnUse">
      <stop offset="0" stop-color="#fff"/>
      <stop offset=".1" stop-color="#fff" stop-opacity=".85"/>
      <stop offset=".29" stop-color="#fff" stop-opacity=".59"/>
      <stop offset=".47" stop-color="#fff" stop-opacity=".38"/>
      <stop offset=".63" stop-color="#fff" stop-opacity=".22"/>
      <stop offset=".78" stop-color="#fff" stop-opacity=".1"/>
      <stop offset=".91" stop-color="#fff" stop-opacity=".03"/>
      <stop offset="1" stop-color="#fff" stop-opacity="0"/>
    </radialGradient>
    <radialGradient id="radial-gradient-3" cx="54.66" cy="1.69" fx="54.66" fy="1.69" r="9.12" gradientTransform="matrix(1,0,0,1,0,0)" xlink:href="#radial-gradient"/>
    <radialGradient id="radial-gradient-4" cx="384.66" cy="-377.45" fx="384.66" fy="-377.45" r="9.12" gradientTransform="translate(19.56 552.5) rotate(-45)" xlink:href="#radial-gradient"/>
    <radialGradient id="radial-gradient-5" cx="886.02" cy="-412.38" fx="886.02" fy="-412.38" r="9.12" gradientTransform="translate(424.25 929.28) rotate(-90)" xlink:href="#radial-gradient"/>
    <radialGradient id="radial-gradient-6" cx="1265.32" cy="-82.38" fx="1265.32" fy="-82.38" r="9.12" gradientTransform="translate(976.75 909.72) rotate(-135)" xlink:href="#radial-gradient"/>
    <radialGradient id="radial-gradient-7" cx="1300.09" cy="418.98" fx="1300.09" fy="418.98" r="9.12" gradientTransform="translate(1353.53 505.03) rotate(-180)" xlink:href="#radial-gradient"/>
    <radialGradient id="radial-gradient-8" cx="970.25" cy="798.29" fx="970.25" fy="798.29" r="9.12" gradientTransform="translate(1333.97 -47.47) rotate(135)" xlink:href="#radial-gradient"/>
    <radialGradient id="radial-gradient-9" cx="468.73" cy="833.06" fx="468.73" fy="833.06" r="9.12" gradientTransform="translate(929.28 -424.25) rotate(90)" xlink:href="#radial-gradient"/>
    <radialGradient id="radial-gradient-10" cx="89.59" cy="503.22" fx="89.59" fy="503.22" r="9.12" gradientTransform="translate(376.78 -404.7) rotate(45)" xlink:href="#radial-gradient"/>
    <radialGradient id="radial-gradient-11" cx="30.41" cy="53.69" fx="30.41" fy="53.69" r="37.04" gradientTransform="translate(60.81 92.9) rotate(-180) scale(1 .73)" gradientUnits="userSpaceOnUse">
      <stop offset="0" stop-color="#fff"/>
      <stop offset=".2" stop-color="#d5f3ff"/>
      <stop offset="1" stop-color="#85bcf1"/>
    </radialGradient>
    <radialGradient id="radial-gradient-12" cx="38.81" cy="58.52" fx="38.81" fy="58.52" r="42.11" gradientUnits="userSpaceOnUse">
      <stop offset="0" stop-color="#ffe036"/>
      <stop offset=".08" stop-color="#fecb30" stop-opacity=".81"/>
      <stop offset=".18" stop-color="#fcb52b" stop-opacity=".6"/>
      <stop offset=".28" stop-color="#fca126" stop-opacity=".41"/>
      <stop offset=".38" stop-color="#fb9122" stop-opacity=".26"/>
      <stop offset=".48" stop-color="#fa851f" stop-opacity=".15"/>
      <stop offset=".58" stop-color="#fa7c1d" stop-opacity=".07"/>
      <stop offset=".68" stop-color="#fa771c" stop-opacity=".02"/>
      <stop offset=".77" stop-color="#fa761c" stop-opacity="0"/>
    </radialGradient>
    <radialGradient id="radial-gradient-13" cx="1412.47" cy="-2021.44" fx="1412.47" fy="-2021.44" r="4.47" xlink:href="#radial-gradient-2"/>
    <radialGradient id="radial-gradient-14" cx="1412.33" cy="-2029.7" fx="1412.33" fy="-2029.7" r="3.51" xlink:href="#radial-gradient-2"/>
    <radialGradient id="Degradado_sin_nombre_34-2" data-name="Degradado sin nombre 34" cx="5.77" cy="73.59" fx="5.77" fy="73.59" r="2.57" gradientTransform="translate(-92.36 -116.93) rotate(-25.71) scale(1 2.91)" xlink:href="#Degradado_sin_nombre_34"/>
    <radialGradient id="radial-gradient-15" cx="92.71" cy="25.17" fx="92.71" fy="25.17" r="28.68" gradientTransform="translate(185.43 43.56) rotate(-180) scale(1 .73)" xlink:href="#radial-gradient-11"/>
    <radialGradient id="radial-gradient-16" cx="73.98" cy="35.02" fx="73.98" fy="35.02" r="38.33" xlink:href="#radial-gradient-12"/>
    <radialGradient id="radial-gradient-17" cx="1368.87" cy="-2037.67" fx="1368.87" fy="-2037.67" r="3.46" xlink:href="#radial-gradient-2"/>
    <radialGradient id="radial-gradient-18" cx="1368.77" cy="-2044.06" fx="1368.77" fy="-2044.06" r="2.72" xlink:href="#radial-gradient-2"/>
    <radialGradient id="Degradado_sin_nombre_34-3" data-name="Degradado sin nombre 34" cx="73.64" cy="40.58" fx="73.64" fy="40.58" r="1.99" gradientTransform="translate(-43.96 -33.92) rotate(-25.71) scale(1 2.91)" xlink:href="#Degradado_sin_nombre_34"/>
    <radialGradient id="radial-gradient-19" cx="-143.31" cy="58.68" fx="-143.31" fy="58.68" r="9.89" gradientTransform="translate(178.86 115.46) rotate(30)" gradientUnits="userSpaceOnUse">
      <stop offset="0" stop-color="#d0f2ff"/>
      <stop offset=".2" stop-color="#d5f3ff"/>
      <stop offset="1" stop-color="#85bcf1"/>
    </radialGradient>
    <radialGradient id="radial-gradient-20" cx="1489.39" cy="-1955.42" fx="1489.39" fy="-1955.42" r="1.55" gradientTransform="translate(509.94 -4574.22) rotate(156.04) scale(1.43 2.08) skewX(-4.38)" xlink:href="#radial-gradient-2"/>
    <radialGradient id="radial-gradient-21" cx="-128.42" cy="50.08" fx="-128.42" fy="50.08" r="9.89" xlink:href="#radial-gradient-19"/>
    <radialGradient id="radial-gradient-22" cx="1478.12" cy="-1958.77" fx="1478.12" fy="-1958.77" r="1.55" gradientTransform="translate(509.94 -4574.22) rotate(156.04) scale(1.43 2.08) skewX(-4.38)" xlink:href="#radial-gradient-2"/>
    <radialGradient id="radial-gradient-23" cx="-113.53" cy="41.48" fx="-113.53" fy="41.48" r="9.89" xlink:href="#radial-gradient-19"/>
    <radialGradient id="radial-gradient-24" cx="1466.85" cy="-1962.13" fx="1466.85" fy="-1962.13" r="1.55" gradientTransform="translate(509.94 -4574.22) rotate(156.04) scale(1.43 2.08) skewX(-4.38)" xlink:href="#radial-gradient-2"/>
    <radialGradient id="radial-gradient-25" cx="-98.64" cy="32.89" fx="-98.64" fy="32.89" r="9.89" xlink:href="#radial-gradient-19"/>
    <radialGradient id="radial-gradient-26" cx="1455.58" cy="-1965.48" fx="1455.58" fy="-1965.48" r="1.55" gradientTransform="translate(509.94 -4574.22) rotate(156.04) scale(1.43 2.08) skewX(-4.38)" xlink:href="#radial-gradient-2"/>
  </defs>
  <g class="cls-19">
    <g id="Layer_2">
      <g id="OBJECTS">
        <g>
          <g>
            <path class="cls-17" d="M26.44,43.86c0,15.25,12.36,27.61,27.6,27.61s27.61-12.36,27.61-27.61-12.36-27.6-27.61-27.6-27.6,12.36-27.6,27.6Z"/>
            <g>
              <path class="cls-4" d="M58.26,41.03c-7.03-5.71-9.78-14.39-6.13-19.4,3.65-5.01,12.3-4.45,19.34,1.25,7.03,5.7,9.77,14.39,6.13,19.4-3.65,5.01-12.3,4.45-19.33-1.25Z"/>
              <path class="cls-9" d="M29.65,49.96c.93-3.05,5.66-1.79,10.58,2.83,4.91,4.61,8.14,10.83,7.21,13.88-.93,3.05-5.66,1.79-10.58-2.83-4.91-4.62-8.14-10.83-7.21-13.88Z"/>
            </g>
            <path class="cls-18" d="M57.4,8.1c0,1.85-1.5,3.35-3.35,3.35h0c-1.85,0-3.35-1.5-3.35-3.35V3.35c0-1.85,1.5-3.35,3.35-3.35h0c1.85,0,3.35,1.5,3.35,3.35v4.75Z"/>
            <path class="cls-24" d="M31.13,16.21c1.31,1.31,1.31,3.43,0,4.73h0c-1.31,1.31-3.43,1.31-4.74,0l-3.36-3.36c-1.31-1.31-1.31-3.43,0-4.74h0c1.31-1.31,3.43-1.31,4.74,0l3.36,3.36Z"/>
            <path class="cls-16" d="M18.28,40.52c1.85,0,3.35,1.5,3.35,3.35h0c0,1.85-1.5,3.35-3.35,3.35h-4.75c-1.85,0-3.35-1.5-3.35-3.35h0c0-1.85,1.5-3.35,3.35-3.35h4.75Z"/>
            <path class="cls-29" d="M26.39,66.79c1.31-1.31,3.43-1.31,4.73,0h0c1.31,1.31,1.31,3.43,0,4.73l-3.36,3.36c-1.31,1.31-3.43,1.31-4.74,0h0c-1.31-1.31-1.31-3.43,0-4.74l3.36-3.36Z"/>
            <path class="cls-30" d="M50.7,79.63c0-1.85,1.5-3.35,3.35-3.35h0c1.85,0,3.35,1.5,3.35,3.35v4.75c0,1.85-1.5,3.35-3.35,3.35h0c-1.85,0-3.35-1.5-3.35-3.35v-4.75Z"/>
            <path class="cls-21" d="M76.98,71.52c-1.31-1.31-1.31-3.43,0-4.73h0c1.31-1.31,3.43-1.31,4.73,0l3.36,3.36c1.31,1.31,1.31,3.43,0,4.74h0c-1.31,1.31-3.43,1.31-4.74,0l-3.36-3.36Z"/>
            <path class="cls-14" d="M89.82,47.21c-1.85,0-3.35-1.5-3.35-3.35h0c0-1.85,1.5-3.35,3.35-3.35h4.75c1.85,0,3.35,1.5,3.35,3.35h0c0,1.85-1.5,3.35-3.35,3.35h-4.75Z"/>
            <path class="cls-1" d="M81.71,20.94c-1.31,1.31-3.43,1.31-4.73,0h0c-1.31-1.31-1.31-3.42,0-4.73l3.36-3.36c1.31-1.31,3.43-1.31,4.74,0h0c1.31,1.31,1.31,3.43,0,4.74l-3.36,3.36Z"/>
          </g>
          <g>
            <path class="cls-20" d="M38.49,59.68c-.51-7.41-6.67-13.26-14.2-13.26s-13.7,5.85-14.2,13.26c-5.61.28-10.08,4.92-10.08,10.6s4.75,10.61,10.61,10.61h27.34c5.86,0,10.61-4.75,10.61-10.61s-4.47-10.32-10.08-10.6Z"/>
            <path class="cls-26" d="M38.49,59.68c-.51-7.41-6.67-13.26-14.2-13.26s-13.7,5.85-14.2,13.26c-5.61.28-10.08,4.92-10.08,10.6s4.75,10.61,10.61,10.61h27.34c5.86,0,10.61-4.75,10.61-10.61s-4.47-10.32-10.08-10.6Z"/>
            <path class="cls-13" d="M24.28,61c-3.99-3.24-5.55-8.17-3.48-11.02,2.07-2.85,6.99-2.53,10.98.71,3.99,3.24,5.55,8.18,3.48,11.02-2.07,2.85-6.99,2.53-10.98-.71Z"/>
            <path class="cls-5" d="M38.56,70.58c-3.14-2.55-4.36-6.42-2.74-8.66,1.63-2.24,5.49-1.99,8.63.56,3.14,2.55,4.36,6.43,2.74,8.66-1.63,2.24-5.49,1.99-8.63-.56Z"/>
            <path class="cls-11" d="M7.59,70.93c-2.32-3.61-5.01-5.35-6.01-3.89-1,1.46.06,5.58,2.37,9.2,2.32,3.61,5.01,5.36,6.01,3.89,1-1.47-.06-5.58-2.37-9.2Z"/>
          </g>
          <g>
            <path class="cls-28" d="M98.97,29.82c-.39-5.73-5.16-10.27-11-10.27s-10.61,4.53-11,10.27c-4.34.21-7.8,3.81-7.8,8.2s3.68,8.22,8.21,8.22h21.17c4.54,0,8.21-3.68,8.21-8.22s-3.46-7.99-7.8-8.2Z"/>
            <path class="cls-15" d="M98.97,29.82c-.39-5.73-5.16-10.27-11-10.27s-10.61,4.53-11,10.27c-4.34.21-7.8,3.81-7.8,8.2s3.68,8.22,8.21,8.22h21.17c4.54,0,8.21-3.68,8.21-8.22s-3.46-7.99-7.8-8.2Z"/>
            <path class="cls-10" d="M87.97,30.84c-3.09-2.51-4.3-6.33-2.7-8.53s5.41-1.96,8.51.55c3.09,2.51,4.3,6.33,2.7,8.54-1.61,2.21-5.41,1.96-8.5-.55Z"/>
            <path class="cls-12" d="M99.03,38.25c-2.43-1.97-3.38-4.97-2.12-6.71,1.26-1.73,4.25-1.54,6.68.43,2.43,1.97,3.38,4.98,2.12,6.71-1.26,1.73-4.25,1.54-6.68-.43Z"/>
            <path class="cls-7" d="M75.05,38.53c-1.79-2.8-3.88-4.14-4.66-3.01-.78,1.13.05,4.32,1.84,7.12,1.79,2.8,3.88,4.14,4.66,3.01.78-1.14-.04-4.32-1.84-7.12Z"/>
          </g>
          <g>
            <g>
              <path class="cls-27" d="M30.91,95.55c-1.14,1.97-3.65,2.64-5.62,1.5-1.97-1.13-2.64-3.65-1.5-5.62,1.14-1.97,8.16-5.91,8.16-5.91,0,0,.1,8.05-1.04,10.02Z"/>
              <path class="cls-3" d="M23.91,94.87c-.64-1.66-.25-3.42.87-3.91,1.12-.5,2.54.45,3.17,2.12.64,1.67.25,3.42-.86,3.91-1.12.5-2.54-.45-3.17-2.12Z"/>
            </g>
            <g>
              <path class="cls-23" d="M48.11,95.55c-1.14,1.97-3.65,2.64-5.62,1.5-1.97-1.13-2.64-3.65-1.5-5.62,1.14-1.97,8.16-5.91,8.16-5.91,0,0,.1,8.05-1.04,10.02Z"/>
              <path class="cls-6" d="M41.11,94.87c-.64-1.66-.25-3.42.87-3.91,1.12-.5,2.54.45,3.17,2.12.64,1.67.25,3.42-.87,3.91-1.12.5-2.54-.45-3.17-2.12Z"/>
            </g>
            <g>
              <path class="cls-22" d="M65.3,95.55c-1.14,1.97-3.65,2.64-5.62,1.5-1.97-1.13-2.64-3.65-1.5-5.62,1.14-1.97,8.16-5.91,8.16-5.91,0,0,.1,8.05-1.04,10.02Z"/>
              <path class="cls-2" d="M58.3,94.87c-.64-1.66-.25-3.42.87-3.91,1.12-.5,2.54.45,3.17,2.12.64,1.67.25,3.42-.86,3.91-1.12.5-2.54-.45-3.17-2.12Z"/>
            </g>
            <g>
              <path class="cls-25" d="M82.49,95.55c-1.14,1.97-3.65,2.64-5.62,1.5-1.97-1.13-2.64-3.65-1.5-5.62,1.14-1.97,8.16-5.91,8.16-5.91,0,0,.1,8.05-1.04,10.02Z"/>
              <path class="cls-8" d="M75.49,94.87c-.64-1.66-.25-3.42.87-3.91,1.12-.5,2.54.45,3.17,2.12.64,1.67.25,3.42-.87,3.91-1.12.5-2.54-.45-3.17-2.12Z"/>
            </g>
          </g>
        </g>
      </g>
    </g>
  </g>
</svg>