<svg viewBox="0 0 103.74 84.07" xmlns="http://www.w3.org/2000/svg" xmlns:xlink="http://www.w3.org/1999/xlink"><radialGradient id="a" cx="-405.06" cy="20.57" fx="-405.06" fy="20.57" gradientTransform="matrix(-1 0 0 1 -330.41 0)" gradientUnits="userSpaceOnUse" r="40.6"><stop offset="0" stop-color="#fff8c7"/><stop offset=".16" stop-color="#ffe436"/><stop offset="1" stop-color="#fe761c"/></radialGradient><linearGradient id="b"><stop offset="0" stop-color="#fff"/><stop offset=".1" stop-color="#fff" stop-opacity=".85"/><stop offset=".29" stop-color="#fff" stop-opacity=".59"/><stop offset=".47" stop-color="#fff" stop-opacity=".38"/><stop offset=".63" stop-color="#fff" stop-opacity=".22"/><stop offset=".78" stop-color="#fff" stop-opacity=".1"/><stop offset=".91" stop-color="#fff" stop-opacity=".03"/><stop offset="1" stop-color="#fff" stop-opacity="0"/></linearGradient><radialGradient id="c" cx="803.97" cy="-1708.67" fx="803.97" fy="-1708.67" gradientTransform="matrix(-.84113854 1.15645404 -1.61768823 -1.31205248 -2012.83 -3145.5)" gradientUnits="userSpaceOnUse" r="6.09" xlink:href="#b"/><radialGradient id="d" cx="-3175.16" cy="3443.95" fx="-3175.16" fy="3443.95" gradientTransform="matrix(-1.17344712 -1.10232566 .21979136 -.72650768 -4427.15 -941.49)" gradientUnits="userSpaceOnUse" r="5.88" xlink:href="#b"/><radialGradient id="e" cx="70.23" cy="1.31" fx="70.23" fy="1.31" r="7.06" xlink:href="#a"/><radialGradient id="f" cx="559.79" cy="-76.12" fx="559.79" fy="-76.12" gradientTransform="matrix(.70710678 -.70710678 .70710678 .70710678 -295.02 460.2)" r="7.06" xlink:href="#a"/><radialGradient id="g" cx="960.62" cy="215.12" fx="960.62" fy="215.12" gradientTransform="matrix(0 -1 1 0 -178.04 994.14)" r="7.06" xlink:href="#a"/><radialGradient id="h" cx="1038.21" cy="704.68" fx="1038.21" fy="704.68" gradientTransform="matrix(-.70710678 -.70710678 .70710678 -.70710678 282.15 1289.16)" r="7.06" xlink:href="#a"/><radialGradient id="i" cx="746.81" cy="1105.52" fx="746.81" fy="1105.52" gradientTransform="matrix(-1 0 0 -1 816.09 1172.18)" r="7.06" xlink:href="#a"/><radialGradient id="j" cx="257.41" cy="1183.11" fx="257.41" fy="1183.11" gradientTransform="matrix(-.70710678 .70710678 -.70710678 -.70710678 1111.12 711.98)" r="7.06" xlink:href="#a"/><radialGradient id="k" cx="-143.59" cy="891.71" fx="-143.59" fy="891.71" gradientTransform="matrix(0 1 -1 0 994.14 178.04)" r="7.06" xlink:href="#a"/><radialGradient id="l" cx="-221.01" cy="402.31" fx="-221.01" fy="402.31" gradientTransform="matrix(.70710678 .70710678 -.70710678 .70710678 533.94 -116.98)" r="7.06" xlink:href="#a"/><radialGradient id="m" cx="57.67" cy="32.48" gradientTransform="matrix(-1 0 0 -.73 115.34 56.21)" gradientUnits="userSpaceOnUse" r="70.26"><stop offset="0" stop-color="#fff"/><stop offset=".2" stop-color="#d5f3ff"/><stop offset="1" stop-color="#85bcf1"/></radialGradient><radialGradient id="n" cx="67.63" cy="38.37" gradientUnits="userSpaceOnUse" r="59.73"><stop offset="0" stop-color="#ffe036"/><stop offset=".08" stop-color="#fecb30" stop-opacity=".81"/><stop offset=".18" stop-color="#fcb52b" stop-opacity=".6"/><stop offset=".28" stop-color="#fca126" stop-opacity=".41"/><stop offset=".38" stop-color="#fb9122" stop-opacity=".26"/><stop offset=".48" stop-color="#fa851f" stop-opacity=".15"/><stop offset=".58" stop-color="#fa7c1d" stop-opacity=".07"/><stop offset=".68" stop-color="#fa771c" stop-opacity=".02"/><stop offset=".77" stop-color="#fa761c" stop-opacity="0"/></radialGradient><radialGradient id="o" cx="821.45" cy="-1702.31" fx="821.45" fy="-1702.31" r="8.48" xlink:href="#c"/><radialGradient id="p" cx="821.19" cy="-1717.97" fx="821.19" fy="-1717.97" r="6.66" xlink:href="#c"/><radialGradient id="q" cx="10.94" cy="70.23" fx="10.94" fy="70.23" gradientTransform="matrix(.90100132 -.43381635 1.26240557 2.62191384 -87.6 -109.24)" r="4.87" xlink:href="#d"/><path d="m48.37 33.98c0 11.81 9.58 21.39 21.39 21.39s21.39-9.58 21.39-21.39-9.58-21.38-21.39-21.38-21.39 9.57-21.39 21.38z" fill="url(#a)"/><path d="m73.01 31.78c-5.45-4.42-7.58-11.15-4.75-15.03 2.82-3.88 9.53-3.45 14.98.97s7.57 11.15 4.75 15.03c-2.83 3.88-9.53 3.45-14.98-.97z" fill="url(#c)"/><path d="m50.85 38.71c.72-2.36 4.39-1.38 8.19 2.19 3.81 3.58 6.3 8.39 5.59 10.76-.72 2.36-4.39 1.39-8.2-2.19-3.8-3.58-6.3-8.39-5.59-10.76z" fill="url(#d)" opacity=".4"/><path d="m72.35 6.27c0 1.43-1.16 2.59-2.59 2.59-1.43 0-2.59-1.16-2.59-2.59v-3.68c0-1.43 1.16-2.59 2.59-2.59 1.43 0 2.59 1.16 2.59 2.59z" fill="url(#e)"/><path d="m51.99 12.56c1.01 1.01 1.01 2.66 0 3.67-1.01 1.01-2.65 1.01-3.67 0l-2.6-2.6c-1.01-1.01-1.01-2.66 0-3.67 1.01-1.01 2.66-1.01 3.67 0z" fill="url(#f)"/><path d="m42.05 31.39c1.43 0 2.59 1.16 2.59 2.59 0 1.43-1.16 2.59-2.59 2.59h-3.68c-1.43 0-2.59-1.16-2.6-2.59 0-1.43 1.16-2.59 2.6-2.59z" fill="url(#g)"/><path d="m48.33 51.74c1.01-1.01 2.66-1.01 3.67 0 1.01 1.01 1.01 2.65 0 3.67l-2.6 2.6c-1.01 1.01-2.66 1.01-3.67 0-1.01-1.01-1.01-2.66 0-3.67z" fill="url(#h)"/><path d="m67.16 61.69c0-1.43 1.16-2.59 2.59-2.59 1.43 0 2.59 1.16 2.59 2.59v3.68c0 1.43-1.16 2.59-2.59 2.59-1.43 0-2.59-1.16-2.59-2.59z" fill="url(#i)"/><path d="m87.52 55.41c-1.01-1.01-1.01-2.66 0-3.67 1.01-1.01 2.65-1.01 3.67 0l2.6 2.6c1.01 1.01 1.01 2.66 0 3.67-1.01 1.01-2.66 1.01-3.67 0z" fill="url(#j)"/><path d="m97.47 36.58c-1.43 0-2.59-1.16-2.59-2.59 0-1.43 1.16-2.59 2.59-2.59h3.68c1.43 0 2.59 1.16 2.6 2.59 0 1.43-1.16 2.59-2.6 2.59z" fill="url(#k)"/><path d="m91.18 16.22c-1.01 1.01-2.66 1.01-3.67 0-1.01-1.01-1.01-2.65 0-3.67l2.6-2.6c1.01-1.01 2.66-1.01 3.67 0 1.01 1.01 1.01 2.66 0 3.67z" fill="url(#l)"/><path d="m73 43.85c-.96-14.05-12.65-25.15-26.94-25.15s-25.98 11.1-26.94 25.15c-10.65.53-19.12 9.33-19.12 20.1s9.01 20.12 20.12 20.12h51.86c11.11 0 20.12-9.01 20.12-20.12s-8.47-19.57-19.11-20.1z" fill="url(#m)"/><path d="m73 43.85c-.96-14.05-12.65-25.15-26.94-25.15s-25.98 11.1-26.94 25.15c-10.65.53-19.12 9.33-19.12 20.1s9.01 20.12 20.12 20.12h51.86c11.11 0 20.12-9.01 20.12-20.12s-8.47-19.57-19.11-20.1z" fill="url(#n)"/><path d="m46.06 46.36c-7.58-6.15-10.54-15.5-6.61-20.9s13.26-4.8 20.83 1.35 10.53 15.51 6.6 20.9c-3.93 5.4-13.26 4.79-20.83-1.35z" fill="url(#o)"/><path d="m73.14 64.52c-5.95-4.83-8.28-12.19-5.19-16.43s10.42-3.77 16.37 1.06 8.27 12.19 5.19 16.43c-3.09 4.25-10.42 3.77-16.37-1.06z" fill="url(#p)" opacity=".4"/><path d="m14.39 65.19c-4.39-6.85-9.5-10.15-11.41-7.37-1.9 2.78.11 10.59 4.5 17.45 4.4 6.85 9.5 10.15 11.41 7.37 1.9-2.79-.11-10.59-4.5-17.45z" fill="url(#q)" opacity=".2"/></svg>