<svg viewBox="0 0 84.19 74.94" xmlns="http://www.w3.org/2000/svg" xmlns:xlink="http://www.w3.org/1999/xlink"><radialGradient id="a" cx="-670.12" cy="22.68" fx="-670.12" fy="22.68" gradientTransform="matrix(-1 0 0 1 -627.26 0)" gradientUnits="userSpaceOnUse" r="44.76"><stop offset="0" stop-color="#fff8c7"/><stop offset=".16" stop-color="#ffe436"/><stop offset="1" stop-color="#fe761c"/></radialGradient><linearGradient id="b"><stop offset="0" stop-color="#fff"/><stop offset=".1" stop-color="#fff" stop-opacity=".85"/><stop offset=".29" stop-color="#fff" stop-opacity=".59"/><stop offset=".47" stop-color="#fff" stop-opacity=".38"/><stop offset=".63" stop-color="#fff" stop-opacity=".22"/><stop offset=".78" stop-color="#fff" stop-opacity=".1"/><stop offset=".91" stop-color="#fff" stop-opacity=".03"/><stop offset="1" stop-color="#fff" stop-opacity="0"/></linearGradient><radialGradient id="c" cx="610.13" cy="-1766.46" fx="610.13" fy="-1766.46" gradientTransform="matrix(-.84113854 1.15645404 -1.61768823 -1.31205248 -2300.46 -2995.21)" gradientUnits="userSpaceOnUse" r="6.72" xlink:href="#b"/><radialGradient id="d" cx="-3402.59" cy="3535.52" fx="-3402.59" fy="3535.52" gradientTransform="matrix(-1.17344712 -1.10232566 .21979136 -.72650768 -4747.47 -1120.5)" gradientUnits="userSpaceOnUse" r="6.48" xlink:href="#b"/><radialGradient id="e" cx="37.99" cy="1.44" fx="37.99" fy="1.44" r="7.79" xlink:href="#a"/><radialGradient id="f" cx="484.68" cy="2.47" fx="484.68" fy="2.47" gradientTransform="matrix(.70710678 -.70710678 .70710678 .70710678 -332.1 352.59)" r="7.79" xlink:href="#a"/><radialGradient id="g" cx="799.71" cy="318.86" fx="799.71" fy="318.86" gradientTransform="matrix(0 -1 1 0 -317.41 836.66)" r="7.79" xlink:href="#a"/><radialGradient id="h" cx="798.85" cy="765.54" fx="798.85" fy="765.54" gradientTransform="matrix(-.70710678 -.70710678 .70710678 -.70710678 35.18 1168.76)" r="7.79" xlink:href="#a"/><radialGradient id="i" cx="482.3" cy="1080.58" fx="482.3" fy="1080.58" gradientTransform="matrix(-1 0 0 -1 519.24 1154.07)" r="7.79" xlink:href="#a"/><radialGradient id="j" cx="35.78" cy="1079.72" fx="35.78" fy="1079.72" gradientTransform="matrix(-.70710678 .70710678 -.70710678 -.70710678 851.34 801.48)" r="7.79" xlink:href="#a"/><radialGradient id="k" cx="-279.43" cy="763.17" fx="-279.43" fy="763.17" gradientTransform="matrix(0 1 -1 0 836.66 317.42)" r="7.79" xlink:href="#a"/><radialGradient id="l" cx="-278.4" cy="316.65" fx="-278.4" fy="316.65" gradientTransform="matrix(.70710678 .70710678 -.70710678 .70710678 484.07 -14.68)" r="7.79" xlink:href="#a"/><radialGradient id="m" cx="821.53" cy="46.78" fx="821.53" fy="46.78" gradientTransform="matrix(-1 0 0 1 832.26 0)" gradientUnits="userSpaceOnUse" r="40.51"><stop offset="0" stop-color="#fff"/><stop offset=".2" stop-color="#d9f7ff"/><stop offset="1" stop-color="#89c0f5"/></radialGradient><radialGradient id="n" cx="23.85" cy="46.49" fx="23.85" fy="46.49" gradientUnits="userSpaceOnUse" r="34.6"><stop offset="0" stop-color="#ffe436"/><stop offset=".08" stop-color="#fece30" stop-opacity=".81"/><stop offset=".18" stop-color="#feb72b" stop-opacity=".6"/><stop offset=".28" stop-color="#fea326" stop-opacity=".41"/><stop offset=".38" stop-color="#fe9322" stop-opacity=".26"/><stop offset=".48" stop-color="#fe861f" stop-opacity=".15"/><stop offset=".58" stop-color="#fe7d1d" stop-opacity=".07"/><stop offset=".68" stop-color="#fe771c" stop-opacity=".02"/><stop offset=".77" stop-color="#fe761c" stop-opacity="0"/></radialGradient><radialGradient id="o" cx="281.26" cy="-2074.63" fx="281.26" fy="-2074.63" gradientTransform="matrix(.84113854 1.15645404 1.61768823 -1.31205248 3132.72 -2995.21)" r="4.75" xlink:href="#c"/><radialGradient id="p" cx="295.3" cy="-2067.59" fx="295.3" fy="-2067.59" gradientTransform="matrix(.84113854 1.15645404 1.61768823 -1.31205248 3132.72 -2995.21)" r="2.61" xlink:href="#c"/><radialGradient id="q" cx="954.2" cy="9.35" fx="954.2" fy="9.35" gradientTransform="matrix(-.70440342 -.45761974 -1.40029228 1.83303854 728.99 489.16)" r="2.73" xlink:href="#d"/><radialGradient id="r" cx="-815.26" cy="27.06" fx="-815.26" fy="27.06" gradientTransform="translate(891.36)" r="32.13" xlink:href="#m"/><radialGradient id="s" cx="44.85" cy="37.15" fx="44.85" fy="37.15" r="43.07" xlink:href="#n"/><radialGradient id="t" cx="993.56" cy="-1432.7" fx="993.56" fy="-1432.7" gradientTransform="matrix(-.84113854 1.15645404 -1.61768823 -1.31205248 -1409.1 -2995.21)" r="3.77" xlink:href="#c"/><radialGradient id="u" cx="1004.69" cy="-1427.12" fx="1004.69" fy="-1427.12" gradientTransform="matrix(-.84113854 1.15645404 -1.61768823 -1.31205248 -1409.1 -2995.21)" r="2.07" xlink:href="#c"/><radialGradient id="v" cx="-920.25" cy="-365.41" fx="-920.25" fy="-365.41" gradientTransform="matrix(.70440342 -.45761974 1.40029228 1.83303854 1211.51 291.98)" r="2.17" xlink:href="#d"/><path d="m13.89 37.47c0 13.02 10.56 23.58 23.58 23.58s23.58-10.56 23.58-23.58-10.56-23.58-23.58-23.58-23.58 10.56-23.58 23.58z" fill="url(#a)"/><path d="m41.06 35.04c-6.01-4.87-8.35-12.29-5.24-16.57s10.51-3.8 16.52 1.07c6 4.87 8.35 12.29 5.24 16.57-3.12 4.28-10.51 3.8-16.51-1.07z" fill="url(#c)"/><path d="m16.63 42.68c.8-2.61 4.84-1.53 9.04 2.41s6.95 9.25 6.16 11.86-4.84 1.53-9.04-2.41c-4.19-3.94-6.95-9.25-6.16-11.86z" fill="url(#d)" opacity=".4"/><path d="m40.33 6.92c0 1.58-1.28 2.86-2.86 2.86s-2.86-1.28-2.86-2.86v-4.06c0-1.58 1.28-2.86 2.86-2.86s2.86 1.28 2.86 2.86z" fill="url(#e)"/><path d="m17.89 13.84c1.12 1.12 1.12 2.93 0 4.05s-2.93 1.12-4.04 0l-2.87-2.87c-1.12-1.12-1.12-2.93 0-4.04 1.12-1.12 2.93-1.12 4.04 0l2.87 2.87z" fill="url(#f)"/><path d="m6.92 34.61c1.58 0 2.86 1.28 2.86 2.86s-1.28 2.86-2.86 2.86h-4.06c-1.58 0-2.86-1.28-2.86-2.86s1.28-2.86 2.86-2.86z" fill="url(#g)"/><path d="m13.84 57.05c1.12-1.12 2.93-1.12 4.04 0 1.12 1.12 1.12 2.93 0 4.04l-2.87 2.87c-1.12 1.12-2.93 1.12-4.04 0-1.12-1.12-1.12-2.93 0-4.05l2.87-2.87z" fill="url(#h)"/><path d="m34.61 68.02c0-1.58 1.28-2.86 2.86-2.86s2.86 1.28 2.86 2.86v4.06c0 1.58-1.28 2.86-2.86 2.86s-2.86-1.28-2.86-2.86z" fill="url(#i)"/><path d="m57.05 61.09c-1.12-1.12-1.12-2.93 0-4.04 1.12-1.12 2.93-1.12 4.04 0l2.87 2.87c1.12 1.12 1.12 2.93 0 4.05s-2.93 1.12-4.05 0l-2.87-2.87z" fill="url(#j)"/><path d="m68.02 40.33c-1.58 0-2.86-1.28-2.86-2.86s1.28-2.86 2.86-2.86h4.06c1.58 0 2.86 1.28 2.86 2.86s-1.28 2.86-2.86 2.86z" fill="url(#k)"/><path d="m61.09 17.89c-1.12 1.12-2.93 1.12-4.04 0-1.12-1.12-1.12-2.93 0-4.04l2.87-2.87c1.12-1.12 2.93-1.12 4.04 0 1.12 1.12 1.12 2.93 0 4.05l-2.87 2.87z" fill="url(#l)"/><path d="m16.84 42.3c7.68 0 14.13 5.32 15.86 12.47 1.4-.68 2.96-1.07 4.61-1.07 5.86 0 10.61 4.75 10.61 10.62s-4.75 10.61-10.61 10.61h-20.47c-9.01 0-16.32-7.31-16.32-16.32s7.31-16.32 16.32-16.32z" fill="url(#m)"/><path d="m16.84 42.3c7.68 0 14.13 5.32 15.86 12.47 1.4-.68 2.96-1.07 4.61-1.07 5.86 0 10.61 4.75 10.61 10.62s-4.75 10.61-10.61 10.61h-20.47c-9.01 0-16.32-7.31-16.32-16.32s7.31-16.32 16.32-16.32z" fill="url(#n)"/><path d="m14.75 57.9c4.25-3.45 5.91-8.7 3.71-11.72-2.2-3.03-7.44-2.69-11.69.75-4.25 3.45-5.9 8.7-3.7 11.72 2.2 3.03 7.44 2.69 11.68-.75z" fill="url(#o)"/><path d="m36.13 62.37c2.33-1.9 3.25-4.78 2.04-6.44-1.21-1.67-4.09-1.48-6.42.41s-3.24 4.78-2.04 6.44c1.21 1.67 4.09 1.48 6.42-.41z" fill="url(#p)" opacity=".4"/><path d="m41.31 66.5c2.57-2.6 5.22-3.61 5.93-2.27.7 1.34-.81 4.54-3.37 7.14-2.57 2.6-5.22 3.61-5.93 2.27-.7-1.34.81-4.54 3.37-7.14z" fill="url(#q)" opacity=".2"/><path d="m71.25 23.51c-6.09 0-11.2 4.22-12.57 9.89-1.11-.54-2.35-.84-3.66-.84-4.65 0-8.42 3.77-8.42 8.42s3.77 8.42 8.42 8.42h16.23c7.15 0 12.94-5.79 12.94-12.94s-5.79-12.94-12.94-12.94z" fill="url(#r)"/><path d="m71.25 23.51c-6.09 0-11.2 4.22-12.57 9.89-1.11-.54-2.35-.84-3.66-.84-4.65 0-8.42 3.77-8.42 8.42s3.77 8.42 8.42 8.42h16.23c7.15 0 12.94-5.79 12.94-12.94s-5.79-12.94-12.94-12.94z" fill="url(#s)"/><path d="m72.91 35.88c-3.37-2.73-4.68-6.9-2.94-9.3 1.75-2.4 5.89-2.13 9.27.6 3.37 2.73 4.68 6.9 2.94 9.3-1.75 2.4-5.9 2.13-9.27-.6z" fill="url(#t)"/><path d="m55.95 39.43c-1.85-1.5-2.57-3.79-1.62-5.11.96-1.32 3.24-1.17 5.09.33s2.57 3.79 1.62 5.11c-.96 1.32-3.24 1.17-5.09-.33z" fill="url(#u)" opacity=".4"/><path d="m51.85 42.7c-2.04-2.06-4.14-2.87-4.7-1.8-.56 1.06.64 3.6 2.67 5.66 2.04 2.06 4.14 2.86 4.7 1.8.56-1.07-.64-3.6-2.67-5.66z" fill="url(#v)" opacity=".2"/></svg>