<svg viewBox="0 0 722.45 364.2" xmlns="http://www.w3.org/2000/svg"><ellipse cx="55.89" cy="340.02" fill="#fff" rx="2.83" ry="4.06" transform="matrix(.14401078 -.98957612 .98957612 .14401078 -288.63 346.37)"/><ellipse cx="82.32" cy="337.44" fill="#3f3d56" rx="2.83" ry="4.06" transform="matrix(.14401078 -.98957612 .98957612 .14401078 -263.46 370.32)"/><ellipse cx="48.66" cy="318.63" fill="#ff6584" rx="2.83" ry="4.06" transform="matrix(.14401078 -.98957612 .98957612 .14401078 -273.66 320.9)"/><ellipse cx="39.41" cy="310.43" fill="#e6e6e6" rx="2.57" ry="1.79" transform="matrix(.00750485 -.99997184 .99997184 .00750485 -271.32 347.49)"/><ellipse cx="35.51" cy="294.11" fill="#3f3d56" rx="2.57" ry="1.79" transform="matrix(.00750485 -.99997184 .99997184 .00750485 -258.86 327.4)"/><ellipse cx="65.79" cy="322.84" fill="#e6e6e6" rx="2.57" ry="1.79" transform="matrix(.00750485 -.99997184 .99997184 .00750485 -257.53 386.19)"/><ellipse cx="53.02" cy="329.21" fill="#ff6584" rx="2.57" ry="1.79" transform="matrix(.00750485 -.99997184 .99997184 .00750485 -276.58 379.75)"/><ellipse cx="70.8" cy="341" fill="#3f3d56" rx="2.57" ry="1.79" transform="matrix(.00750485 -.99997184 .99997184 .00750485 -270.72 409.22)"/><ellipse cx="693.31" cy="6.47" fill="#fff" rx="3.6" ry="5.18" transform="matrix(.24564577 -.96935966 .96935966 .24564577 516.72 676.94)"/><ellipse cx="659.47" cy="6.25" fill="#3f3d56" rx="3.6" ry="5.18" transform="matrix(.24564577 -.96935966 .96935966 .24564577 491.4 643.97)"/><ellipse cx="699.66" cy="34.55" fill="#ff6584" rx="3.6" ry="5.18" transform="matrix(.24564577 -.96935966 .96935966 .24564577 494.29 704.28)"/><ellipse cx="710.31" cy="46.15" fill="#e6e6e6" rx="3.27" ry="2.28" transform="matrix(.11112203 -.99380677 .99380677 .11112203 585.56 746.94)"/><ellipse cx="713.09" cy="67.36" fill="#3f3d56" rx="3.27" ry="2.28" transform="matrix(.11112203 -.99380677 .99380677 .11112203 566.96 768.56)"/><ellipse cx="678.49" cy="26.95" fill="#e6e6e6" rx="3.27" ry="2.28" transform="matrix(.11112203 -.99380677 .99380677 .11112203 576.36 698.25)"/><ellipse cx="695.52" cy="20.55" fill="#ff6584" rx="3.27" ry="2.28" transform="matrix(.11112203 -.99380677 .99380677 .11112203 597.86 709.48)"/><ellipse cx="674.54" cy="3.26" fill="#3f3d56" rx="3.27" ry="2.28" transform="matrix(.11112203 -.99380677 .99380677 .11112203 596.39 673.26)"/><path d="m296.6 161.28c.03 20.86-7.68 40.99-21.63 56.5-1.97 2.2-4.06 4.3-6.24 6.28-2.24 2.03-4.58 3.93-7.02 5.7-1.7 1.24-3.45 2.42-5.25 3.52-2.13 1.32-4.32 2.55-6.58 3.67-1.67.84-3.37 1.62-5.11 2.35-10.38 4.36-21.53 6.61-32.79 6.6-6.36 0-12.7-.7-18.9-2.12-2.87-.65-5.7-1.46-8.48-2.42-1.07-.36-2.14-.75-3.2-1.16-6.42-2.48-12.52-5.75-18.14-9.73-38.21-26.9-47.38-79.69-20.48-117.9s79.69-47.38 117.9-20.48c22.51 15.85 35.9 41.66 35.9 69.19z" fill="#f2f2f2"/><path d="m549.86 98.38h-146.25c-2.54 0-4.6-2.07-4.6-4.61s2.06-4.6 4.6-4.6h146.25c2.54 0 4.61 2.06 4.61 4.61s-2.06 4.61-4.61 4.61z" fill="#6c63ff"/><path d="m549.86 160.57h-146.25c-2.54 0-4.6-2.07-4.6-4.61s2.06-4.6 4.6-4.6h146.25c2.54 0 4.6 2.07 4.6 4.61s-2.06 4.6-4.6 4.6z" fill="#e6e6e6"/><path d="m549.86 222.75h-146.25c-2.54 0-4.6-2.07-4.6-4.61s2.06-4.6 4.6-4.6h146.25c2.54 0 4.61 2.06 4.61 4.61s-2.06 4.61-4.61 4.61z" fill="#e6e6e6"/><path d="m184.22 360.17c-16.51-21.96-26.05-46.52-26.37-74.52-1.11-3.14.54-6.59 3.68-7.7l56.28-19.91c3.14-1.11 6.59.54 7.7 3.68l26.37 74.52c1.11 3.14-.54 6.59-3.68 7.7l-56.28 19.91c-3.14 1.11-6.59-.54-7.7-3.68z" fill="#e6e6e6"/><path d="m180.57 336.14c-9.93-10.04-14.18-27.95-16.95-47.91-1.04-2.94.5-6.17 3.44-7.21l48.37-17.11c2.94-1.04 6.17.5 7.21 3.44l23.46 66.31c1.04 2.94-.5 6.17-3.44 7.21l-29.96 10.6c-13.11 4.62-27.48-2.24-32.13-15.33z" fill="#fff"/><path d="m223.29 303.07-37.68 13.45c-1.25.45-2.62-.2-3.07-1.45s.2-2.62 1.45-3.07 37.68-13.45 37.68-13.45c1.25-.45 2.62.2 3.07 1.45s-.2 2.62-1.45 3.07 0 0 0 0z" fill="#6c63ff"/><path d="m189.48 301.16-8.29 2.96c-1.25.45-2.62-.2-3.07-1.45s.2-2.62 1.45-3.07 8.29-2.96 8.29-2.96c1.25-.45 2.62.2 3.07 1.45s-.2 2.62-1.45 3.07z" fill="#6c63ff"/><path d="m230.39 322.95-37.68 13.45c-1.25.44-2.62-.21-3.06-1.46s.21-2.61 1.45-3.06l37.68-13.45c1.25-.44 2.62.21 3.06 1.46s-.21 2.61-1.45 3.06z" fill="#6c63ff"/><path d="m226.84 313.01-37.68 13.45c-1.25.44-2.62-.21-3.06-1.46s.21-2.61 1.45-3.06l37.68-13.45c1.25-.45 2.62.2 3.07 1.45s-.2 2.62-1.45 3.07 0 0 0 0z" fill="#6c63ff"/><path d="m192.63 123c1.23 9.9 8.09 18.06 18.06 18.06s18.06-8.09 18.06-18.06-8.13-17.14-18.06-18.06c-10.54-.98-19.64 5.35-18.06 18.06z" fill="#2f2e41"/><path d="m226.41 244.67c-11.06 1.9-22.38 1.6-33.33-.89 5.19-2.87 20.95-1.11 33.33.89z" fill="#2f2e41"/><path d="m156.12 276.44 8.68-20.97 6.84 3.8-4.13 21.33c1.23 4.01-1.03 8.26-5.04 9.49s-8.26-1.03-9.49-5.04c-.99-3.25.29-6.76 3.14-8.6z" fill="#ffb6b6"/><path d="m245.86 219.7c-.31 7.31-.74 14.26-1.09 19.6-10.38 4.36-21.53 6.61-32.79 6.6-6.36 0-12.7-.7-18.9-2.12-2.87-.65-5.7-1.46-8.48-2.42.39-.25.81-.45 1.24-.59 4.15-1.4.05-2.68.08-4.02.13-4.88 1.47-10.74 3.21-16.36l-7.74 19.81-4.03 10.3s.14 8.89-2.42 6.17c-2.57-2.72-2.38 6.08-2.38 6.08-.8.57-1.49 1.28-2.03 2.1-.23.37-.31.81-.24 1.23.12.35.34.63.64.82 1.74 1.17-.76 4.28-1.87 5.52-.3.33-.5.53-.5.53l-10.63-.76v-.21c.05-1.26.33-7.87 1.98-9.44 1.81-1.74.92-4.49.92-4.49s4.72-4.18 1.55-7.58c-1.27-1.37-.7-9.49.85-19.99 3.4-23.17 11.54-57.95 15.06-57.45 1.48-7.19 6.87-12.95 13.95-14.9l11.48-3.16 2.05-8.1h16.17l2.81 5.32 11.78 5.32.15.07.37.16.14.44s-.01.01 0 .01l6.55 20.58c2.95 3.39 2.83 23.17 2.08 40.94z" fill="#6c63ff"/><path d="m273.39 261.17-10.95-19.87 7.24-2.96 14.07 16.55c3.9 1.55 5.8 5.96 4.26 9.86-1.55 3.9-5.96 5.8-9.86 4.26-3.16-1.25-5.1-4.45-4.75-7.83z" fill="#ffb6b6"/><path d="m236.57 157.35c1.95 3.5 19.76 12.5 16.67 21.53 0 0 16.73 52.35 18.91 52.01s4.3 5.07 4.3 5.07-.46 3.53.9 2.06 1.03 2.38 1.03 2.38-.65 3.39 1.07 2.47-.54 5.57-.54 5.57l-10.36 4.88-1.97-2.93s-4.2-.8-2.23-1.44-1.86-2.77-1.86-2.77-4.02-2.73-3.46-7.25-10.42-13.41-10.42-13.41c-7.55-14.91-11.68-30.21-11.67-46l-.38-22.18z" fill="#6c63ff"/><circle cx="212.68" cy="126.12" fill="#ffb6b6" r="16.02"/><path d="m196.1 127.86c.51 3.48 3.47 8.34 2.78 8.34s-5.63-14.35-.69-15.28c3.58-.68 4.38-.08 7.73-1.54l-.47.44c2.22 1.61 5.3.62 7.83-.43 2.54-1.04 5.61-2.04 7.84-.43 1.4 1.01 1.99 2.76 2.85 4.24.87 1.49 2.47 2.9 4.13 2.45 1.32-.51 2.16-1.82 2.08-3.23 0-1.38-1.8-2.68-1.19-3.92 1.79-3.66.18-6.15-3.72-7.87-1.42-.22-2.83-.44-4.25-.66.74-1.03 1.64-1.93 2.67-2.68-.43-1.11-1.18-2.07-2.15-2.76-1.2-.56-2.54-.75-3.85-.56-2.93.15-5.86.31-8.79.46-2.18-.04-4.34.38-6.35 1.24-2.42 1.24-4 3.67-5.15 6.13-2.58 5.54-2.17 10-1.29 16.05z" fill="#2f2e41"/><g fill="#e6e6e6"><path d="m596.73 117.36h-240.85c-.55 0-1-.45-1-1s.45-1 1-1h240.85c.55 0 1 .45 1 1s-.45 1-1 1z"/><path d="m596.73 179.36h-240.85c-.55 0-1-.45-1-1s.45-1 1-1h240.85c.55 0 1 .45 1 1s-.45 1-1 1z"/><path d="m596.73 241.36h-240.85c-.55 0-1-.45-1-1s.45-1 1-1h240.85c.55 0 1 .45 1 1s-.45 1-1 1z"/><path d="m632.58 237.39c-8.82 0-17.34-3.15-24.05-8.88-2.24-1.91-4.62-5.24-7.08-9.89-3.18-6.06-3.45-13.24-.72-19.52-1.3 1.32-2.73 2.5-4.28 3.51l-.78.52-.05-.94c-.03-.61-.04-1.22-.04-1.81 0-3.48 2.63-7 1.42-10.22-5.11-13.54-21.32-27 2.17-47.96 2.17-1.94-.73-5.82-.73-8.75 0-28.75 40.63-78.48 52.15-52.14 14.2 32.49 38.67 29.02 49.51 35.73l.16.47-.46.19c-2.37 1-4.87 1.66-7.42 1.97 2.72.56 5.5.79 8.28.69l.43-.02.1.42c1.03 4.15 1.56 8.4 1.55 12.67v.46c-.02 6.56 2.75 12.82 7.63 17.22 7.7 7.02 12.09 16.95 12.1 27.36 0 6.09-4.14 14.09-7.62 19.73-1.78 2.91-4.8 4.84-8.19 5.25-3.21.4-6.43-.64-8.79-2.84 1.64 3.31 3.79 6.34 6.35 9l.47.49-.59.34c-5.66 3.3-12.09 5.04-18.64 5.03h-.38c-9.7-.1-19.03 3.71-25.89 10.57-6.98 7.2-16.57 11.27-26.6 11.31z"/></g><path d="m619.85 295.99c-.33 0-.61-.24-.66-.57-1.74-15.52-1.84-31.17-.31-46.71 2.3-24.51 9.67-59.82 31.77-88.81.22-.29.64-.35.93-.13s.35.64.13.93c-21.9 28.75-29.22 63.79-31.5 88.13-1.53 15.43-1.42 30.99.3 46.4.05.36-.2.7-.57.75-.03 0-.06 0-.09 0z" fill="#3f3d56"/><path d="m637.88 200.79c-.37 0-.67-.3-.67-.66 0-.21.1-.41.27-.54 6.3-4.26 13.1-7.72 20.25-10.31 11.17-4.09 28.16-7.8 45.64-2.23.35.11.54.48.43.84-.11.35-.48.54-.84.43-17.13-5.45-33.81-1.8-44.78 2.21-7.03 2.54-13.73 5.94-19.92 10.13-.11.08-.25.13-.39.13z" fill="#3f3d56"/><path d="m607.42 124.94c-.03-.37.25-.69.62-.71.21-.02.42.07.56.23 4.7 5.97 8.65 12.51 11.74 19.45 4.88 10.85 9.8 27.52 5.51 45.36-.08.36-.44.58-.8.49-.36-.08-.58-.44-.49-.8 4.2-17.48-.63-33.85-5.43-44.51-3.04-6.83-6.92-13.26-11.54-19.14-.09-.11-.14-.24-.15-.38z" fill="#3f3d56"/><path d="m63.27 224.08c-6.86-6.86-16.19-10.67-25.89-10.57h-.38c-6.55 0-12.98-1.73-18.64-5.03l-.59-.34.47-.49c2.57-2.66 4.71-5.69 6.35-9-2.36 2.2-5.59 3.25-8.79 2.84-3.39-.4-6.41-2.34-8.19-5.25-3.47-5.64-7.62-13.64-7.62-19.73.01-10.42 4.4-20.35 12.1-27.36 4.87-4.39 7.65-10.66 7.63-17.22v-.46c0-4.27.52-8.53 1.55-12.67l.1-.42.43.02c2.78.09 5.56-.14 8.28-.69-2.55-.31-5.05-.98-7.42-1.97l-.46-.19.16-.47c10.84-6.71 35.31-3.24 49.51-35.73 11.52-26.35 52.15 23.39 52.15 52.14 0 2.93-2.9 6.81-.73 8.75 23.49 20.96 7.28 34.42 2.17 47.96-1.21 3.21 1.42 6.74 1.42 10.22 0 .59-.02 1.2-.04 1.81l-.05.94-.78-.52c-1.55-1.02-2.99-2.19-4.28-3.51 2.73 6.28 2.47 13.46-.72 19.52-2.46 4.65-4.84 7.97-7.08 9.89-14.87 12.72-37.07 11.65-50.65-2.43z" fill="#e6e6e6"/><path d="m102.61 293.99c.33 0 .61-.24.66-.57 1.74-15.52 1.84-31.17.31-46.71-2.3-24.51-9.67-59.82-31.77-88.81-.22-.29-.64-.35-.93-.13s-.35.64-.13.93c21.9 28.75 29.22 63.79 31.5 88.13 1.53 15.43 1.42 30.99-.3 46.4-.05.36.2.7.57.75h.09z" fill="#3f3d56"/><path d="m84.58 198.79c.37 0 .67-.3.67-.66 0-.21-.1-.41-.27-.54-6.3-4.26-13.1-7.72-20.25-10.31-11.17-4.09-28.16-7.8-45.64-2.23-.35.11-.54.49-.43.84s.49.54.84.43c17.13-5.45 33.81-1.8 44.78 2.21 7.03 2.54 13.73 5.94 19.92 10.13.11.08.25.13.39.13z" fill="#3f3d56"/><path d="m115.03 122.94c.03-.37-.25-.69-.62-.71-.21-.02-.42.07-.56.23-4.7 5.97-8.65 12.51-11.74 19.45-4.88 10.85-9.8 27.52-5.51 45.36.08.36.44.58.8.49.36-.08.58-.44.49-.8-4.2-17.48.63-33.85 5.43-44.51 3.04-6.83 6.92-13.26 11.54-19.14.09-.11.14-.24.15-.38z" fill="#3f3d56"/></svg>