<svg viewBox="0 0 90.08 90.08" xmlns="http://www.w3.org/2000/svg" xmlns:xlink="http://www.w3.org/1999/xlink"><radialGradient id="a" cx="396.09" cy="27.27" fx="396.09" fy="27.27" gradientTransform="matrix(-1 0 0 1 447.61 0)" gradientUnits="userSpaceOnUse" r="53.81"><stop offset="0" stop-color="#fff8c7"/><stop offset=".16" stop-color="#ffe436"/><stop offset="1" stop-color="#fe761c"/></radialGradient><linearGradient id="b"><stop offset="0" stop-color="#fff"/><stop offset=".1" stop-color="#fff" stop-opacity=".85"/><stop offset=".29" stop-color="#fff" stop-opacity=".59"/><stop offset=".47" stop-color="#fff" stop-opacity=".38"/><stop offset=".63" stop-color="#fff" stop-opacity=".22"/><stop offset=".78" stop-color="#fff" stop-opacity=".1"/><stop offset=".91" stop-color="#fff" stop-opacity=".03"/><stop offset="1" stop-color="#fff" stop-opacity="0"/></linearGradient><radialGradient id="c" cx="1382.46" cy="-1559.17" gradientTransform="matrix(-.84113854 1.15645404 -1.61768823 -1.31205248 -1307.37 -3608.56)" gradientUnits="userSpaceOnUse" r="8.08" xlink:href="#b"/><radialGradient id="d" cx="-2513.28" cy="2996.71" gradientTransform="matrix(-1.17344712 -1.10232566 .21979136 -.72650768 -3580.96 -523.99)" gradientUnits="userSpaceOnUse" r="7.79" xlink:href="#b"/><radialGradient id="e" cx="45.67" cy="1.74" fx="45.67" fy="1.74" r="9.36" xlink:href="#a"/><radialGradient id="f" cx="644.22" cy="-373.29" fx="644.22" fy="-373.29" gradientTransform="matrix(.70710678 -.70710678 .70710678 .70710678 -176.71 733.46)" r="9.36" xlink:href="#a"/><radialGradient id="g" cx="1332.55" cy="-215.42" fx="1332.55" fy="-215.42" gradientTransform="matrix(0 -1 1 0 217.15 1376.96)" r="9.36" xlink:href="#a"/><radialGradient id="h" cx="1707.74" cy="383.13" fx="1707.74" fy="383.13" gradientTransform="matrix(-.70710678 -.70710678 .70710678 -.70710678 950.61 1553.67)" r="9.36" xlink:href="#a"/><radialGradient id="i" cx="1549.7" cy="1071.47" fx="1549.7" fy="1071.47" gradientTransform="matrix(-1 0 0 -1 1594.12 1159.81)" r="9.36" xlink:href="#a"/><radialGradient id="j" cx="951.32" cy="1446.66" fx="951.32" fy="1446.66" gradientTransform="matrix(-.70710678 .70710678 -.70710678 -.70710678 1770.83 426.36)" r="9.36" xlink:href="#a"/><radialGradient id="k" cx="262.82" cy="1288.62" fx="262.82" fy="1288.62" gradientTransform="matrix(0 1 -1 0 1376.97 -217.15)" r="9.36" xlink:href="#a"/><radialGradient id="l" cx="-112.21" cy="690.24" fx="-112.21" fy="690.24" gradientTransform="matrix(.70710678 .70710678 -.70710678 .70710678 643.51 -393.86)" r="9.36" xlink:href="#a"/><path d="m16.7 45.04c0 15.65 12.69 28.35 28.34 28.35s28.35-12.69 28.35-28.35-12.69-28.34-28.35-28.34-28.34 12.69-28.34 28.34z" fill="url(#a)"/><path d="m49.36 42.12c-7.22-5.86-10.04-14.77-6.3-19.92s12.63-4.57 19.85 1.29 10.03 14.78 6.29 19.92c-3.75 5.15-12.63 4.57-19.85-1.28z" fill="url(#c)"/><path d="m19.99 51.3c.96-3.13 5.82-1.84 10.86 2.9s8.36 11.12 7.4 14.26c-.95 3.13-5.82 1.84-10.86-2.9s-8.36-11.12-7.4-14.26z" fill="url(#d)" opacity=".4"/><path d="m48.48 8.32c0 1.9-1.54 3.44-3.44 3.44-1.9 0-3.44-1.54-3.44-3.44v-4.88c0-1.9 1.54-3.44 3.44-3.44 1.9 0 3.44 1.54 3.44 3.44z" fill="url(#e)"/><path d="m21.5 16.64c1.34 1.34 1.34 3.52 0 4.86-1.34 1.34-3.52 1.34-4.86 0l-3.45-3.45c-1.34-1.34-1.34-3.52 0-4.86 1.34-1.34 3.52-1.34 4.86 0z" fill="url(#f)"/><path d="m8.32 41.6c1.9 0 3.44 1.54 3.44 3.44 0 1.9-1.54 3.44-3.44 3.44h-4.88c-1.9 0-3.44-1.54-3.44-3.44 0-1.9 1.54-3.44 3.44-3.44z" fill="url(#g)"/><path d="m16.64 68.58c1.34-1.34 3.52-1.34 4.86 0 1.34 1.34 1.34 3.52 0 4.86l-3.45 3.45c-1.34 1.34-3.52 1.34-4.86 0-1.34-1.34-1.34-3.52 0-4.86z" fill="url(#h)"/><path d="m41.6 81.77c0-1.9 1.54-3.44 3.44-3.44 1.9 0 3.44 1.54 3.44 3.44v4.88c0 1.9-1.54 3.44-3.44 3.44-1.9 0-3.44-1.54-3.44-3.44z" fill="url(#i)"/><path d="m68.58 73.44c-1.34-1.34-1.34-3.52 0-4.86 1.34-1.34 3.52-1.34 4.86 0l3.45 3.45c1.34 1.34 1.34 3.52 0 4.86-1.34 1.34-3.52 1.34-4.86 0z" fill="url(#j)"/><path d="m81.77 48.48c-1.9 0-3.44-1.54-3.44-3.44 0-1.9 1.54-3.44 3.44-3.44h4.88c1.9 0 3.44 1.54 3.44 3.44 0 1.9-1.54 3.44-3.44 3.44z" fill="url(#k)"/><path d="m73.44 21.5c-1.34 1.34-3.52 1.34-4.86 0-1.34-1.34-1.34-3.52 0-4.86l3.45-3.45c1.34-1.34 3.52-1.34 4.86 0 1.34 1.34 1.34 3.52 0 4.86z" fill="url(#l)"/></svg>