<?xml version="1.0" encoding="UTF-8"?>
<svg xmlns="http://www.w3.org/2000/svg" xmlns:xlink="http://www.w3.org/1999/xlink" viewBox="0 0 92.11 93.73">
  <defs>
    <style>
      .cls-1 {
        fill: url(#radial-gradient-3);
        opacity: .4;
      }

      .cls-1, .cls-2, .cls-3 {
        mix-blend-mode: overlay;
      }

      .cls-4 {
        fill: url(#linear-gradient-2);
      }

      .cls-5 {
        fill: url(#radial-gradient);
      }

      .cls-6 {
        isolation: isolate;
      }

      .cls-7 {
        fill: url(#linear-gradient);
      }

      .cls-2 {
        fill: url(#radial-gradient-2);
        opacity: .6;
      }

      .cls-3 {
        fill: url(#Degradado_sin_nombre_34);
        opacity: .2;
      }
    </style>
    <linearGradient id="linear-gradient" x1="27.06" y1="92.96" x2="38.59" y2="56.67" gradientUnits="userSpaceOnUse">
      <stop offset=".16" stop-color="#ffe036"/>
      <stop offset="1" stop-color="#fa761c"/>
    </linearGradient>
    <linearGradient id="linear-gradient-2" x1="51.68" y1="92.96" x2="63.21" y2="56.67" xlink:href="#linear-gradient"/>
    <radialGradient id="radial-gradient" cx="57.67" cy="13.78" fx="57.67" fy="13.78" r="70.26" gradientTransform="translate(115.34 23.84) rotate(-180) scale(1 .73)" gradientUnits="userSpaceOnUse">
      <stop offset="0" stop-color="#b6ccd2"/>
      <stop offset=".2" stop-color="#97b6be"/>
      <stop offset="1" stop-color="#5d87b4"/>
    </radialGradient>
    <radialGradient id="radial-gradient-2" cx="862.52" cy="-1842.51" fx="862.52" fy="-1842.51" r="8.48" gradientTransform="translate(-2203.39 -3395.61) rotate(126.03) scale(1.43 2.08) skewX(-4.38)" gradientUnits="userSpaceOnUse">
      <stop offset="0" stop-color="#fff"/>
      <stop offset=".1" stop-color="#fff" stop-opacity=".85"/>
      <stop offset=".29" stop-color="#fff" stop-opacity=".59"/>
      <stop offset=".47" stop-color="#fff" stop-opacity=".38"/>
      <stop offset=".63" stop-color="#fff" stop-opacity=".22"/>
      <stop offset=".78" stop-color="#fff" stop-opacity=".1"/>
      <stop offset=".91" stop-color="#fff" stop-opacity=".03"/>
      <stop offset="1" stop-color="#fff" stop-opacity="0"/>
    </radialGradient>
    <radialGradient id="radial-gradient-3" cx="863.1" cy="-1857.43" fx="863.1" fy="-1857.43" r="6.66" xlink:href="#radial-gradient-2"/>
    <radialGradient id="Degradado_sin_nombre_34" data-name="Degradado sin nombre 34" cx="10.93" cy="51.53" fx="10.93" fy="51.53" r="4.87" gradientTransform="translate(-63.98 -78.88) rotate(-25.71) scale(1 2.91)" gradientUnits="userSpaceOnUse">
      <stop offset="0" stop-color="#fff"/>
      <stop offset=".1" stop-color="#fff" stop-opacity=".85"/>
      <stop offset=".29" stop-color="#fff" stop-opacity=".59"/>
      <stop offset=".47" stop-color="#fff" stop-opacity=".38"/>
      <stop offset=".63" stop-color="#fff" stop-opacity=".22"/>
      <stop offset=".78" stop-color="#fff" stop-opacity=".1"/>
      <stop offset=".91" stop-color="#fff" stop-opacity=".03"/>
      <stop offset="1" stop-color="#fff" stop-opacity="0"/>
    </radialGradient>
  </defs>
  <g class="cls-6">
    <g id="Layer_2">
      <g id="OBJECTS">
        <g>
          <path class="cls-7" d="M40.35,70.55h-4.36l7.19-13.97c.31-.61.56-1.3.71-2,.92-4.34-1.84-8.6-6.18-9.53-4.34-.92-8.6,1.84-9.52,6.18l-4.81,22.58-.15.69c-.06.32-.1.65-.1.99,0,2.69,2.18,4.87,4.87,4.87h5.32l-2.87,11.97c-.1.43.05.9.44,1.18.51.37,1.21.25,1.58-.25l11.43-15.76c.52-.72.83-1.61.83-2.57,0-2.42-1.96-4.38-4.38-4.38Z"/>
          <path class="cls-4" d="M64.97,70.55h-4.36l7.19-13.97c.31-.61.56-1.3.71-2,.92-4.34-1.84-8.6-6.18-9.53-4.34-.92-8.6,1.84-9.53,6.18l-4.8,22.58-.15.69c-.07.32-.1.65-.1.99,0,2.69,2.18,4.87,4.87,4.87h5.32l-2.87,11.97c-.1.43.05.9.43,1.18.51.37,1.21.25,1.58-.25l11.43-15.76c.52-.72.84-1.61.84-2.57,0-2.42-1.96-4.38-4.38-4.38Z"/>
          <g>
            <path class="cls-5" d="M73,25.15c-.96-14.05-12.65-25.15-26.94-25.15s-25.98,11.1-26.94,25.15C8.47,25.67,0,34.47,0,45.24s9.01,20.12,20.12,20.12h51.86c11.11,0,20.12-9.01,20.12-20.12s-8.47-19.57-19.11-20.1Z"/>
            <path class="cls-2" d="M47.95,27.65c-7.58-6.15-10.54-15.5-6.61-20.9,3.93-5.4,13.26-4.79,20.84,1.35,7.57,6.14,10.53,15.51,6.6,20.9-3.93,5.4-13.26,4.8-20.83-1.35Z"/>
            <path class="cls-1" d="M73.14,45.81c-5.95-4.83-8.28-12.18-5.19-16.43,3.09-4.24,10.42-3.77,16.37,1.06,5.95,4.83,8.28,12.19,5.19,16.43-3.09,4.25-10.42,3.77-16.37-1.06Z"/>
            <path class="cls-3" d="M14.39,46.49c-4.39-6.86-9.5-10.15-11.41-7.37-1.9,2.78.11,10.59,4.5,17.44,4.4,6.85,9.5,10.15,11.41,7.37,1.9-2.78-.11-10.59-4.5-17.44Z"/>
          </g>
        </g>
      </g>
    </g>
  </g>
</svg>