<?xml version="1.0" encoding="UTF-8"?>
<svg xmlns="http://www.w3.org/2000/svg" xmlns:xlink="http://www.w3.org/1999/xlink" viewBox="0 0 92.11 93.73">
  <defs>
    <style>
      .cls-1 {
        fill: url(#radial-gradient-10);
      }

      .cls-2 {
        fill: url(#radial-gradient-3);
        opacity: .4;
      }

      .cls-2, .cls-3, .cls-4, .cls-5, .cls-6, .cls-7, .cls-8 {
        mix-blend-mode: overlay;
      }

      .cls-9 {
        fill: url(#radial-gradient);
      }

      .cls-10 {
        isolation: isolate;
      }

      .cls-11 {
        fill: url(#radial-gradient-8);
      }

      .cls-3 {
        fill: url(#radial-gradient-9);
      }

      .cls-12 {
        fill: url(#radial-gradient-4);
      }

      .cls-4 {
        fill: url(#radial-gradient-5);
      }

      .cls-13 {
        fill: url(#radial-gradient-6);
      }

      .cls-5 {
        fill: url(#radial-gradient-11);
      }

      .cls-6 {
        fill: url(#radial-gradient-7);
      }

      .cls-14 {
        fill: url(#linear-gradient);
      }

      .cls-7 {
        fill: url(#radial-gradient-2);
        opacity: .6;
      }

      .cls-8 {
        fill: url(#Degradado_sin_nombre_34);
        opacity: .2;
      }
    </style>
    <linearGradient id="linear-gradient" x1="39.18" y1="92.96" x2="50.71" y2="56.67" gradientUnits="userSpaceOnUse">
      <stop offset=".16" stop-color="#ffe036"/>
      <stop offset="1" stop-color="#fa761c"/>
    </linearGradient>
    <radialGradient id="radial-gradient" cx="57.67" cy="13.78" fx="57.67" fy="13.78" r="70.26" gradientTransform="translate(115.34 23.84) rotate(-180) scale(1 .73)" gradientUnits="userSpaceOnUse">
      <stop offset="0" stop-color="#b6ccd2"/>
      <stop offset=".2" stop-color="#97b6be"/>
      <stop offset="1" stop-color="#5d87b4"/>
    </radialGradient>
    <radialGradient id="radial-gradient-2" cx="669.82" cy="-1894.43" fx="669.82" fy="-1894.43" r="8.48" gradientTransform="translate(-2449.15 -3241.46) rotate(126.03) scale(1.43 2.08) skewX(-4.38)" gradientUnits="userSpaceOnUse">
      <stop offset="0" stop-color="#fff"/>
      <stop offset=".1" stop-color="#fff" stop-opacity=".85"/>
      <stop offset=".29" stop-color="#fff" stop-opacity=".59"/>
      <stop offset=".47" stop-color="#fff" stop-opacity=".38"/>
      <stop offset=".63" stop-color="#fff" stop-opacity=".22"/>
      <stop offset=".78" stop-color="#fff" stop-opacity=".1"/>
      <stop offset=".91" stop-color="#fff" stop-opacity=".03"/>
      <stop offset="1" stop-color="#fff" stop-opacity="0"/>
    </radialGradient>
    <radialGradient id="radial-gradient-3" cx="670.4" cy="-1909.35" fx="670.4" fy="-1909.35" r="6.66" xlink:href="#radial-gradient-2"/>
    <radialGradient id="Degradado_sin_nombre_34" data-name="Degradado sin nombre 34" cx="10.94" cy="51.53" fx="10.94" fy="51.53" r="4.87" gradientTransform="translate(-63.98 -78.88) rotate(-25.71) scale(1 2.91)" gradientUnits="userSpaceOnUse">
      <stop offset="0" stop-color="#fff"/>
      <stop offset=".1" stop-color="#fff" stop-opacity=".85"/>
      <stop offset=".29" stop-color="#fff" stop-opacity=".59"/>
      <stop offset=".47" stop-color="#fff" stop-opacity=".38"/>
      <stop offset=".63" stop-color="#fff" stop-opacity=".22"/>
      <stop offset=".78" stop-color="#fff" stop-opacity=".1"/>
      <stop offset=".91" stop-color="#fff" stop-opacity=".03"/>
      <stop offset="1" stop-color="#fff" stop-opacity="0"/>
    </radialGradient>
    <radialGradient id="radial-gradient-4" cx="-324.72" cy="-126.43" fx="-324.72" fy="-126.43" r="9.89" gradientTransform="translate(235.41 349.37) rotate(30)" gradientUnits="userSpaceOnUse">
      <stop offset="0" stop-color="#d0f2ff"/>
      <stop offset=".2" stop-color="#d5f3ff"/>
      <stop offset="1" stop-color="#85bcf1"/>
    </radialGradient>
    <radialGradient id="radial-gradient-5" cx="758.69" cy="-1705.81" fx="758.69" fy="-1705.81" r="1.55" gradientTransform="translate(-264.54 -3682.22) rotate(156.04) scale(1.43 2.08) skewX(-4.38)" xlink:href="#radial-gradient-2"/>
    <radialGradient id="radial-gradient-6" cx="-312.96" cy="-119.31" fx="-312.96" fy="-119.31" r="9.89" xlink:href="#radial-gradient-4"/>
    <radialGradient id="radial-gradient-7" cx="757.37" cy="-1712.4" fx="757.37" fy="-1712.4" r="1.55" gradientTransform="translate(-264.54 -3682.22) rotate(156.04) scale(1.43 2.08) skewX(-4.38)" xlink:href="#radial-gradient-2"/>
    <radialGradient id="radial-gradient-8" cx="-278.8" cy="-152.94" fx="-278.8" fy="-152.94" r="9.89" xlink:href="#radial-gradient-4"/>
    <radialGradient id="radial-gradient-9" cx="723.94" cy="-1716.16" fx="723.94" fy="-1716.16" r="1.55" gradientTransform="translate(-264.54 -3682.22) rotate(156.04) scale(1.43 2.08) skewX(-4.38)" xlink:href="#radial-gradient-2"/>
    <radialGradient id="radial-gradient-10" cx="-282.66" cy="-136.8" fx="-282.66" fy="-136.8" r="9.89" gradientTransform="translate(235.41 349.37) rotate(30)" xlink:href="#radial-gradient-4"/>
    <radialGradient id="radial-gradient-11" cx="734.45" cy="-1719.22" fx="734.45" fy="-1719.22" r="1.55" gradientTransform="translate(-264.54 -3682.22) rotate(156.04) scale(1.43 2.08) skewX(-4.38)" xlink:href="#radial-gradient-2"/>
  </defs>
  <g class="cls-10">
    <g id="Layer_2">
      <g id="OBJECTS">
        <g>
          <path class="cls-14" d="M52.47,70.55h-4.36l7.19-13.97c.31-.61.56-1.3.71-2,.92-4.34-1.84-8.6-6.18-9.53-4.34-.92-8.6,1.84-9.52,6.18l-4.81,22.58-.15.69c-.07.32-.1.65-.1.99,0,2.69,2.18,4.87,4.87,4.87h5.32l-2.87,11.97c-.1.43.05.9.43,1.18.51.37,1.21.25,1.58-.25l11.43-15.76c.52-.72.84-1.61.84-2.57,0-2.42-1.96-4.38-4.38-4.38Z"/>
          <g>
            <path class="cls-9" d="M73,25.15c-.96-14.05-12.65-25.15-26.94-25.15s-25.98,11.1-26.94,25.15C8.47,25.67,0,34.47,0,45.24s9.01,20.12,20.12,20.12h51.86c11.11,0,20.12-9.01,20.12-20.12s-8.47-19.57-19.12-20.1Z"/>
            <path class="cls-7" d="M47.95,27.65c-7.58-6.15-10.53-15.5-6.61-20.9,3.93-5.4,13.26-4.79,20.84,1.35,7.57,6.14,10.53,15.51,6.6,20.9-3.93,5.4-13.26,4.8-20.83-1.35Z"/>
            <path class="cls-2" d="M73.14,45.81c-5.95-4.83-8.28-12.18-5.19-16.43,3.09-4.24,10.42-3.77,16.37,1.06,5.95,4.83,8.28,12.19,5.19,16.43-3.09,4.25-10.42,3.77-16.37-1.06Z"/>
            <path class="cls-8" d="M14.39,46.49c-4.39-6.86-9.5-10.15-11.41-7.37-1.9,2.78.11,10.59,4.5,17.44,4.4,6.85,9.5,10.15,11.41,7.37,1.91-2.78-.11-10.59-4.5-17.44Z"/>
          </g>
          <g>
            <path class="cls-12" d="M22.92,78.46c-1.13,1.96-3.65,2.64-5.62,1.5-1.97-1.13-2.64-3.65-1.51-5.62,1.14-1.97,8.16-5.91,8.16-5.91,0,0,.1,8.05-1.04,10.02Z"/>
            <path class="cls-4" d="M15.92,77.78c-.64-1.66-.25-3.42.87-3.91,1.12-.5,2.54.45,3.17,2.12.64,1.67.25,3.42-.87,3.91-1.12.5-2.54-.45-3.17-2.12Z"/>
          </g>
          <g>
            <path class="cls-13" d="M29.55,90.5c-1.14,1.96-3.65,2.64-5.62,1.5-1.97-1.13-2.64-3.65-1.5-5.62,1.14-1.97,8.16-5.91,8.16-5.91,0,0,.1,8.05-1.04,10.02Z"/>
            <path class="cls-6" d="M22.55,89.82c-.64-1.66-.25-3.42.87-3.91,1.12-.5,2.54.45,3.17,2.12.64,1.67.25,3.42-.86,3.91-1.12.5-2.54-.45-3.17-2.12Z"/>
          </g>
          <g>
            <path class="cls-11" d="M75.95,78.46c-1.13,1.96-3.65,2.64-5.62,1.5-1.97-1.13-2.64-3.65-1.5-5.62,1.13-1.97,8.16-5.91,8.16-5.91,0,0,.1,8.05-1.04,10.02Z"/>
            <path class="cls-3" d="M68.95,77.78c-.64-1.66-.25-3.42.87-3.91,1.12-.5,2.54.45,3.17,2.12.64,1.67.25,3.42-.87,3.91-1.12.5-2.54-.45-3.17-2.12Z"/>
          </g>
          <g>
            <path class="cls-1" d="M64.53,90.5c-1.13,1.96-3.65,2.64-5.62,1.5-1.97-1.13-2.64-3.65-1.5-5.62,1.14-1.97,8.16-5.91,8.16-5.91,0,0,.1,8.05-1.04,10.02Z"/>
            <path class="cls-5" d="M57.53,89.82c-.64-1.66-.25-3.42.87-3.91,1.12-.5,2.54.45,3.17,2.12.64,1.67.25,3.42-.87,3.91-1.12.5-2.54-.45-3.17-2.12Z"/>
          </g>
        </g>
      </g>
    </g>
  </g>
</svg>