<svg viewBox="0 0 92.11 93.73" xmlns="http://www.w3.org/2000/svg" xmlns:xlink="http://www.w3.org/1999/xlink"><linearGradient id="a" gradientUnits="userSpaceOnUse" x1="27.06" x2="38.59" y1="92.96" y2="56.67"><stop offset=".16" stop-color="#ffe036"/><stop offset="1" stop-color="#fa761c"/></linearGradient><linearGradient id="b" x1="51.68" x2="63.21" xlink:href="#a" y1="92.96" y2="56.67"/><radialGradient id="c" cx="57.67" cy="13.78" gradientTransform="matrix(-1 0 0 -.73 115.34 23.84)" gradientUnits="userSpaceOnUse" r="70.26"><stop offset="0" stop-color="#b6ccd2"/><stop offset=".2" stop-color="#97b6be"/><stop offset="1" stop-color="#5d87b4"/></radialGradient><linearGradient id="d"><stop offset="0" stop-color="#fff"/><stop offset=".1" stop-color="#fff" stop-opacity=".85"/><stop offset=".29" stop-color="#fff" stop-opacity=".59"/><stop offset=".47" stop-color="#fff" stop-opacity=".38"/><stop offset=".63" stop-color="#fff" stop-opacity=".22"/><stop offset=".78" stop-color="#fff" stop-opacity=".1"/><stop offset=".91" stop-color="#fff" stop-opacity=".03"/><stop offset="1" stop-color="#fff" stop-opacity="0"/></linearGradient><radialGradient id="e" cx="862.52" cy="-1842.51" fx="862.52" fy="-1842.51" gradientTransform="matrix(-.84113854 1.15645404 -1.61768823 -1.31205248 -2203.39 -3395.61)" gradientUnits="userSpaceOnUse" r="8.48" xlink:href="#d"/><radialGradient id="f" cx="863.1" cy="-1857.43" fx="863.1" fy="-1857.43" r="6.66" xlink:href="#e"/><radialGradient id="g" cx="10.93" cy="51.53" gradientTransform="matrix(.90100132 -.43381635 1.26240557 2.62191384 -63.98 -78.88)" gradientUnits="userSpaceOnUse" r="4.87" xlink:href="#d"/><path d="m40.35 70.55h-4.36l7.19-13.97c.31-.61.56-1.3.71-2 .92-4.34-1.84-8.6-6.18-9.53-4.34-.92-8.6 1.84-9.52 6.18l-4.81 22.58-.15.69c-.06.32-.1.65-.1.99 0 2.69 2.18 4.87 4.87 4.87h5.32l-2.87 11.97c-.1.43.05.9.44 1.18.51.37 1.21.25 1.58-.25l11.43-15.76c.52-.72.83-1.61.83-2.57 0-2.42-1.96-4.38-4.38-4.38z" fill="url(#a)"/><path d="m64.97 70.55h-4.36l7.19-13.97c.31-.61.56-1.3.71-2 .92-4.34-1.84-8.6-6.18-9.53-4.34-.92-8.6 1.84-9.53 6.18l-4.8 22.58-.15.69c-.07.32-.1.65-.1.99 0 2.69 2.18 4.87 4.87 4.87h5.32l-2.87 11.97c-.1.43.05.9.43 1.18.51.37 1.21.25 1.58-.25l11.43-15.76c.52-.72.84-1.61.84-2.57 0-2.42-1.96-4.38-4.38-4.38z" fill="url(#b)"/><path d="m73 25.15c-.96-14.05-12.65-25.15-26.94-25.15s-25.98 11.1-26.94 25.15c-10.65.52-19.12 9.32-19.12 20.09s9.01 20.12 20.12 20.12h51.86c11.11 0 20.12-9.01 20.12-20.12s-8.47-19.57-19.11-20.1z" fill="url(#c)"/><path d="m47.95 27.65c-7.58-6.15-10.54-15.5-6.61-20.9 3.93-5.4 13.26-4.79 20.84 1.35 7.57 6.14 10.53 15.51 6.6 20.9-3.93 5.4-13.26 4.8-20.83-1.35z" fill="url(#e)" opacity=".6"/><path d="m73.14 45.81c-5.95-4.83-8.28-12.18-5.19-16.43 3.09-4.24 10.42-3.77 16.37 1.06s8.28 12.19 5.19 16.43c-3.09 4.25-10.42 3.77-16.37-1.06z" fill="url(#f)" opacity=".4"/><path d="m14.39 46.49c-4.39-6.86-9.5-10.15-11.41-7.37-1.9 2.78.11 10.59 4.5 17.44 4.4 6.85 9.5 10.15 11.41 7.37 1.9-2.78-.11-10.59-4.5-17.44z" fill="url(#g)" opacity=".2"/></svg>