<svg viewBox="0 0 94.95 93.24" xmlns="http://www.w3.org/2000/svg" xmlns:xlink="http://www.w3.org/1999/xlink"><linearGradient id="a" gradientUnits="userSpaceOnUse" x1="38.18" x2="48.7" y1="92.54" y2="59.4"><stop offset=".16" stop-color="#ffe036"/><stop offset="1" stop-color="#fa761c"/></linearGradient><radialGradient id="b" cx="-206.31" cy="-156.71" fx="-206.31" fy="-156.71" gradientTransform="matrix(.8660254 .5 -.5 .8660254 118.61 317.31)" gradientUnits="userSpaceOnUse" r="9.03"><stop offset="0" stop-color="#d0f2ff"/><stop offset=".2" stop-color="#d5f3ff"/><stop offset="1" stop-color="#85bcf1"/></radialGradient><linearGradient id="c"><stop offset="0" stop-color="#fff"/><stop offset=".1" stop-color="#fff" stop-opacity=".85"/><stop offset=".29" stop-color="#fff" stop-opacity=".59"/><stop offset=".47" stop-color="#fff" stop-opacity=".38"/><stop offset=".63" stop-color="#fff" stop-opacity=".22"/><stop offset=".78" stop-color="#fff" stop-opacity=".1"/><stop offset=".91" stop-color="#fff" stop-opacity=".03"/><stop offset="1" stop-color="#fff" stop-opacity="0"/></linearGradient><radialGradient id="d" cx="819.49" cy="-2042.85" fx="819.49" fy="-2042.85" gradientTransform="matrix(-1.30677574 .58072124 -.74459337 -1.94524488 -435.67 -4372.34)" gradientUnits="userSpaceOnUse" r="1.41" xlink:href="#c"/><radialGradient id="e" cx="-195.57" cy="-150.21" fx="-195.57" fy="-150.21" r="9.03" xlink:href="#b"/><radialGradient id="f" cx="818.28" cy="-2048.86" fx="818.28" fy="-2048.86" r="1.41" xlink:href="#d"/><radialGradient id="g" cx="-164.38" cy="-180.92" fx="-164.38" fy="-180.92" r="9.03" xlink:href="#b"/><radialGradient id="h" cx="787.75" cy="-2052.3" fx="787.75" fy="-2052.3" r="1.41" xlink:href="#d"/><radialGradient id="i" cx="-167.91" cy="-166.18" fx="-167.91" fy="-166.18" r="9.03" xlink:href="#b"/><radialGradient id="j" cx="797.35" cy="-2055.09" fx="797.35" fy="-2055.09" r="1.41" xlink:href="#d"/><radialGradient id="k" cx="-682.47" cy="9.2" gradientTransform="matrix(-1 0 0 1 -606.53 0)" gradientUnits="userSpaceOnUse" r="46.81"><stop offset="0" stop-color="#f8f8f8"/><stop offset=".16" stop-color="#ede9f1"/><stop offset="1" stop-color="#9b9da2"/></radialGradient><radialGradient id="l" cx="786.33" cy="-2202.57" fx="786.33" fy="-2202.57" gradientTransform="matrix(-.84113854 1.15645404 -1.61768823 -1.31205248 -2825.25 -3784.2)" r="7.03" xlink:href="#d"/><radialGradient id="m" cx="-3472.2" cy="2875.86" fx="-3472.2" fy="2875.86" gradientTransform="matrix(-1.17344712 -1.10232566 .21979136 -.72650768 -4650.37 -1689.8)" gradientUnits="userSpaceOnUse" r="6.78" xlink:href="#c"/><radialGradient id="n" cx="52.66" cy="20.92" gradientTransform="matrix(-1 0 0 -.73 105.32 36.2)" gradientUnits="userSpaceOnUse" r="64.15"><stop offset="0" stop-color="#b6ccd2"/><stop offset=".2" stop-color="#97b6be"/><stop offset="1" stop-color="#5d87b4"/></radialGradient><radialGradient id="o" cx="806.02" cy="-2193.38" fx="806.02" fy="-2193.38" gradientTransform="matrix(-.84113854 1.15645404 -1.61768823 -1.31205248 -2825.25 -3784.2)" r="7.74" xlink:href="#d"/><radialGradient id="p" cx="805.78" cy="-2207.68" fx="805.78" fy="-2207.68" gradientTransform="matrix(-.84113854 1.15645404 -1.61768823 -1.31205248 -2825.25 -3784.2)" r="6.08" xlink:href="#d"/><radialGradient id="q" cx="9.98" cy="55.39" fx="9.98" fy="55.39" gradientTransform="matrix(.90100132 -.43381635 1.26240557 2.62191384 -68.95 -85.56)" r="4.45" xlink:href="#m"/><path d="m50.32 72.08h-3.98l6.57-12.76c.28-.56.51-1.19.65-1.83.84-3.96-1.68-7.85-5.64-8.7-3.96-.84-7.85 1.68-8.7 5.64l-4.39 20.62-.14.63c-.06.29-.09.59-.09.9 0 2.45 1.99 4.45 4.44 4.45h4.86l-2.62 10.93c-.09.39.05.82.4 1.08.46.33 1.11.23 1.44-.23l10.44-14.39c.48-.66.76-1.47.76-2.35 0-2.21-1.79-4-4-4z" fill="url(#a)"/><path d="m23.33 79.3c-1.04 1.79-3.33 2.41-5.13 1.37s-2.41-3.33-1.37-5.13 7.45-5.39 7.45-5.39.09 7.35-.95 9.15z" fill="url(#b)"/><path d="m16.94 78.67c-.58-1.52-.23-3.12.79-3.57s2.31.41 2.9 1.93c.58 1.52.23 3.12-.79 3.57s-2.32-.41-2.9-1.93z" fill="url(#d)"/><path d="m29.38 90.3c-1.04 1.79-3.33 2.41-5.13 1.37-1.79-1.04-2.41-3.33-1.37-5.13s7.45-5.39 7.45-5.39.09 7.35-.95 9.15z" fill="url(#e)"/><path d="m22.99 89.67c-.58-1.52-.23-3.12.79-3.57s2.32.41 2.9 1.93.23 3.12-.79 3.57-2.32-.41-2.9-1.93z" fill="url(#f)"/><path d="m71.75 79.3c-1.04 1.79-3.33 2.41-5.13 1.37s-2.41-3.33-1.37-5.13 7.45-5.39 7.45-5.39.09 7.35-.95 9.15z" fill="url(#g)"/><path d="m65.36 78.67c-.58-1.52-.23-3.12.79-3.57s2.32.41 2.9 1.93.23 3.12-.79 3.57-2.32-.41-2.9-1.93z" fill="url(#h)"/><path d="m61.32 90.3c-1.04 1.79-3.33 2.41-5.13 1.37s-2.41-3.33-1.37-5.13 7.45-5.39 7.45-5.39.09 7.35-.95 9.15z" fill="url(#i)"/><path d="m54.93 89.67c-.58-1.52-.23-3.12.79-3.57s2.32.41 2.9 1.93.23 3.12-.79 3.57-2.32-.41-2.9-1.93z" fill="url(#j)"/><path d="m45.64 24.66c0 13.62 11.04 24.66 24.66 24.66s24.66-11.04 24.66-24.66-11.05-24.66-24.66-24.66-24.66 11.04-24.66 24.66z" fill="url(#k)"/><g fill="#acadb2"><path d="m53.07 29.02c2.32-.21 3.97-2.84 3.7-5.87s-2.37-5.32-4.69-5.11-3.97 2.84-3.7 5.87 2.37 5.32 4.69 5.12z"/><path d="m51.06 31.22c-1.39.73-1.74 2.79-.79 4.61s2.85 2.7 4.24 1.97 1.74-2.79.78-4.61c-.95-1.82-2.85-2.7-4.24-1.97z"/><path d="m56.56 29.03c-.82.43-1.03 1.65-.46 2.72.56 1.07 1.68 1.59 2.5 1.16s1.03-1.65.46-2.72c-.56-1.07-1.69-1.59-2.51-1.17z"/><path d="m93.07 25.55c-.43-3.02-2.64-5.2-4.94-4.87-2.3.32-3.82 3.03-3.4 6.05s2.64 5.2 4.94 4.87c2.3-.32 3.83-3.03 3.4-6.05z"/><path d="m90.02 18.37c1.35-.8 1.59-2.88.55-4.64-1.04-1.77-2.98-2.55-4.33-1.75s-1.59 2.88-.55 4.64c1.04 1.77 2.98 2.55 4.33 1.75z"/><path d="m84.97 18.09c-.62-1.04-1.76-1.51-2.56-1.04s-.94 1.7-.33 2.74c.62 1.05 1.76 1.51 2.56 1.04s.94-1.7.32-2.74z"/></g><path d="m74.05 22.12c-6.28-5.1-8.73-12.85-5.48-17.33 3.26-4.48 10.99-3.98 17.27 1.12 6.28 5.09 8.73 12.85 5.47 17.33s-10.99 3.98-17.27-1.12z" fill="url(#l)"/><path d="m48.5 30.11c.83-2.73 5.06-1.6 9.45 2.53 4.39 4.12 7.27 9.67 6.44 12.4-.83 2.72-5.06 1.6-9.45-2.52s-7.27-9.68-6.44-12.4z" fill="url(#m)" opacity=".4"/><path d="m66.66 31.3c-.88-12.83-11.55-22.96-24.6-22.96s-23.72 10.14-24.6 22.96c-9.73.48-17.46 8.51-17.46 18.35s8.23 18.38 18.37 18.38h47.36c10.15 0 18.38-8.23 18.38-18.38s-7.73-17.87-17.45-18.35z" fill="url(#n)"/><path d="m42.06 33.59c-6.92-5.61-9.62-14.16-6.03-19.09s12.1-4.38 19.03 1.23c6.92 5.61 9.62 14.16 6.03 19.09s-12.11 4.38-19.02-1.23z" fill="url(#o)" opacity=".6"/><path d="m66.79 50.17c-5.44-4.41-7.56-11.12-4.74-15s9.51-3.44 14.95.97 7.56 11.13 4.74 15c-2.82 3.88-9.51 3.44-14.95-.97z" fill="url(#p)" opacity=".4"/><path d="m13.14 50.79c-4.01-6.26-8.67-9.27-10.42-6.73-1.74 2.53.1 9.67 4.11 15.93s8.68 9.27 10.42 6.73-.1-9.67-4.11-15.93z" fill="url(#q)" opacity=".2"/></svg>