<svg viewBox="0 0 92.11 93.73" xmlns="http://www.w3.org/2000/svg" xmlns:xlink="http://www.w3.org/1999/xlink"><linearGradient id="a" gradientUnits="userSpaceOnUse" x1="39.18" x2="50.71" y1="92.96" y2="56.67"><stop offset=".16" stop-color="#ffe036"/><stop offset="1" stop-color="#fa761c"/></linearGradient><radialGradient id="b" cx="57.67" cy="13.78" gradientTransform="matrix(-1 0 0 -.73 115.34 23.84)" gradientUnits="userSpaceOnUse" r="70.26"><stop offset="0" stop-color="#b6ccd2"/><stop offset=".2" stop-color="#97b6be"/><stop offset="1" stop-color="#5d87b4"/></radialGradient><linearGradient id="c"><stop offset="0" stop-color="#fff"/><stop offset=".1" stop-color="#fff" stop-opacity=".85"/><stop offset=".29" stop-color="#fff" stop-opacity=".59"/><stop offset=".47" stop-color="#fff" stop-opacity=".38"/><stop offset=".63" stop-color="#fff" stop-opacity=".22"/><stop offset=".78" stop-color="#fff" stop-opacity=".1"/><stop offset=".91" stop-color="#fff" stop-opacity=".03"/><stop offset="1" stop-color="#fff" stop-opacity="0"/></linearGradient><radialGradient id="d" cx="669.82" cy="-1894.43" fx="669.82" fy="-1894.43" gradientTransform="matrix(-.84113854 1.15645404 -1.61768823 -1.31205248 -2449.15 -3241.46)" gradientUnits="userSpaceOnUse" r="8.48" xlink:href="#c"/><radialGradient id="e" cx="670.4" cy="-1909.35" fx="670.4" fy="-1909.35" r="6.66" xlink:href="#d"/><radialGradient id="f" cx="10.94" cy="51.53" gradientTransform="matrix(.90100132 -.43381635 1.26240557 2.62191384 -63.98 -78.88)" gradientUnits="userSpaceOnUse" r="4.87" xlink:href="#c"/><radialGradient id="g" cx="-324.72" cy="-126.43" fx="-324.72" fy="-126.43" gradientTransform="matrix(.8660254 .5 -.5 .8660254 235.41 349.37)" gradientUnits="userSpaceOnUse" r="9.89"><stop offset="0" stop-color="#d0f2ff"/><stop offset=".2" stop-color="#d5f3ff"/><stop offset="1" stop-color="#85bcf1"/></radialGradient><radialGradient id="h" cx="758.69" cy="-1705.81" fx="758.69" fy="-1705.81" gradientTransform="matrix(-1.30677574 .58072124 -.74459337 -1.94524488 -264.54 -3682.22)" r="1.55" xlink:href="#d"/><radialGradient id="i" cx="-312.96" cy="-119.31" fx="-312.96" fy="-119.31" r="9.89" xlink:href="#g"/><radialGradient id="j" cx="757.37" cy="-1712.4" fx="757.37" fy="-1712.4" gradientTransform="matrix(-1.30677574 .58072124 -.74459337 -1.94524488 -264.54 -3682.22)" r="1.55" xlink:href="#d"/><radialGradient id="k" cx="-278.8" cy="-152.94" fx="-278.8" fy="-152.94" r="9.89" xlink:href="#g"/><radialGradient id="l" cx="723.94" cy="-1716.16" fx="723.94" fy="-1716.16" gradientTransform="matrix(-1.30677574 .58072124 -.74459337 -1.94524488 -264.54 -3682.22)" r="1.55" xlink:href="#d"/><radialGradient id="m" cx="-282.66" cy="-136.8" fx="-282.66" fy="-136.8" gradientTransform="matrix(.8660254 .5 -.5 .8660254 235.41 349.37)" r="9.89" xlink:href="#g"/><radialGradient id="n" cx="734.45" cy="-1719.22" fx="734.45" fy="-1719.22" gradientTransform="matrix(-1.30677574 .58072124 -.74459337 -1.94524488 -264.54 -3682.22)" r="1.55" xlink:href="#d"/><path d="m52.47 70.55h-4.36l7.19-13.97c.31-.61.56-1.3.71-2 .92-4.34-1.84-8.6-6.18-9.53-4.34-.92-8.6 1.84-9.52 6.18l-4.81 22.58-.15.69c-.07.32-.1.65-.1.99 0 2.69 2.18 4.87 4.87 4.87h5.32l-2.87 11.97c-.1.43.05.9.43 1.18.51.37 1.21.25 1.58-.25l11.43-15.76c.52-.72.84-1.61.84-2.57 0-2.42-1.96-4.38-4.38-4.38z" fill="url(#a)"/><path d="m73 25.15c-.96-14.05-12.65-25.15-26.94-25.15s-25.98 11.1-26.94 25.15c-10.65.52-19.12 9.32-19.12 20.09s9.01 20.12 20.12 20.12h51.86c11.11 0 20.12-9.01 20.12-20.12s-8.47-19.57-19.12-20.1z" fill="url(#b)"/><path d="m47.95 27.65c-7.58-6.15-10.53-15.5-6.61-20.9 3.93-5.4 13.26-4.79 20.84 1.35 7.57 6.14 10.53 15.51 6.6 20.9-3.93 5.4-13.26 4.8-20.83-1.35z" fill="url(#d)" opacity=".6"/><path d="m73.14 45.81c-5.95-4.83-8.28-12.18-5.19-16.43 3.09-4.24 10.42-3.77 16.37 1.06s8.28 12.19 5.19 16.43c-3.09 4.25-10.42 3.77-16.37-1.06z" fill="url(#e)" opacity=".4"/><path d="m14.39 46.49c-4.39-6.86-9.5-10.15-11.41-7.37-1.9 2.78.11 10.59 4.5 17.44 4.4 6.85 9.5 10.15 11.41 7.37s-.11-10.59-4.5-17.44z" fill="url(#f)" opacity=".2"/><path d="m22.92 78.46c-1.13 1.96-3.65 2.64-5.62 1.5-1.97-1.13-2.64-3.65-1.51-5.62 1.14-1.97 8.16-5.91 8.16-5.91s.1 8.05-1.04 10.02z" fill="url(#g)"/><path d="m15.92 77.78c-.64-1.66-.25-3.42.87-3.91 1.12-.5 2.54.45 3.17 2.12.64 1.67.25 3.42-.87 3.91-1.12.5-2.54-.45-3.17-2.12z" fill="url(#h)"/><path d="m29.55 90.5c-1.14 1.96-3.65 2.64-5.62 1.5-1.97-1.13-2.64-3.65-1.5-5.62s8.16-5.91 8.16-5.91.1 8.05-1.04 10.02z" fill="url(#i)"/><path d="m22.55 89.82c-.64-1.66-.25-3.42.87-3.91 1.12-.5 2.54.45 3.17 2.12.64 1.67.25 3.42-.86 3.91-1.12.5-2.54-.45-3.17-2.12z" fill="url(#j)"/><path d="m75.95 78.46c-1.13 1.96-3.65 2.64-5.62 1.5-1.97-1.13-2.64-3.65-1.5-5.62 1.13-1.97 8.16-5.91 8.16-5.91s.1 8.05-1.04 10.02z" fill="url(#k)"/><path d="m68.95 77.78c-.64-1.66-.25-3.42.87-3.91 1.12-.5 2.54.45 3.17 2.12.64 1.67.25 3.42-.87 3.91-1.12.5-2.54-.45-3.17-2.12z" fill="url(#l)"/><path d="m64.53 90.5c-1.13 1.96-3.65 2.64-5.62 1.5-1.97-1.13-2.64-3.65-1.5-5.62s8.16-5.91 8.16-5.91.1 8.05-1.04 10.02z" fill="url(#m)"/><path d="m57.53 89.82c-.64-1.66-.25-3.42.87-3.91 1.12-.5 2.54.45 3.17 2.12.64 1.67.25 3.42-.87 3.91-1.12.5-2.54-.45-3.17-2.12z" fill="url(#n)"/></svg>